<mxfile host="app.diagrams.net" modified="2021-02-26T06:09:33.868Z" agent="5.0 (Windows NT 10.0; Win64; x64) AppleWebKit/537.36 (KHTML, like Gecko) Chrome/88.0.4324.190 Safari/537.36" etag="vVOQtzwzMXm23DrQ9jMo" version="14.4.3" type="github">
  <diagram id="lHTKNruM1wH9CbN-zuv8" name="Page-1">
    <mxGraphModel dx="1422" dy="705" grid="1" gridSize="10" guides="1" tooltips="1" connect="1" arrows="1" fold="1" page="1" pageScale="1" pageWidth="827" pageHeight="1169" math="0" shadow="0">
      <root>
        <mxCell id="0" />
        <mxCell id="1" parent="0" />
        <mxCell id="NESUgxM1b8WvcfN6Ao-w-13" style="edgeStyle=orthogonalEdgeStyle;rounded=0;orthogonalLoop=1;jettySize=auto;html=1;entryX=0;entryY=0.25;entryDx=0;entryDy=0;" edge="1" parent="1" source="NESUgxM1b8WvcfN6Ao-w-10" target="NESUgxM1b8WvcfN6Ao-w-12">
          <mxGeometry relative="1" as="geometry" />
        </mxCell>
        <mxCell id="NESUgxM1b8WvcfN6Ao-w-10" value="Database" style="shape=datastore;whiteSpace=wrap;html=1;" vertex="1" parent="1">
          <mxGeometry x="60" y="120" width="80" height="60" as="geometry" />
        </mxCell>
        <mxCell id="NESUgxM1b8WvcfN6Ao-w-14" style="edgeStyle=orthogonalEdgeStyle;rounded=0;orthogonalLoop=1;jettySize=auto;html=1;entryX=0;entryY=0.5;entryDx=0;entryDy=0;" edge="1" parent="1" source="NESUgxM1b8WvcfN6Ao-w-11" target="NESUgxM1b8WvcfN6Ao-w-12">
          <mxGeometry relative="1" as="geometry" />
        </mxCell>
        <mxCell id="NESUgxM1b8WvcfN6Ao-w-11" value="Logfile" style="whiteSpace=wrap;html=1;shape=mxgraph.basic.document" vertex="1" parent="1">
          <mxGeometry x="60" y="200" width="60" height="70" as="geometry" />
        </mxCell>
        <mxCell id="NESUgxM1b8WvcfN6Ao-w-12" value="" style="rounded=1;whiteSpace=wrap;html=1;" vertex="1" parent="1">
          <mxGeometry x="210" y="160" width="120" height="60" as="geometry" />
        </mxCell>
        <mxCell id="NESUgxM1b8WvcfN6Ao-w-18" style="edgeStyle=orthogonalEdgeStyle;rounded=0;orthogonalLoop=1;jettySize=auto;html=1;" edge="1" parent="1" source="NESUgxM1b8WvcfN6Ao-w-15" target="NESUgxM1b8WvcfN6Ao-w-17">
          <mxGeometry relative="1" as="geometry" />
        </mxCell>
        <mxCell id="NESUgxM1b8WvcfN6Ao-w-15" value="" style="shape=image;verticalLabelPosition=bottom;labelBackgroundColor=#ffffff;verticalAlign=top;aspect=fixed;imageAspect=0;image=data:image/png,iVBORw0KGgoAAAANSUhEUgAABLAAAAJxCAYAAABSRUvkAAAABmJLR0QA/wD/AP+gvaeTAAAgAElEQVR4nOzde4BcdX3//9f7zM4mwRAukoTszuwmyE0DUg0aciWQVEVFBV3MbgJiq/l6v/zU2npNRSvWeqdWkVIKyQZcKii0qA0YYghCwQsQlSSS7MzscgkIgQDJ7sx5//4IaAwBMrNz5jMz+3z80ZadPec8uyybnXc+53NMAAAAAAA0qE1LjpwwRrtO8thfHkkz3NQpabKkwySNlbRdkuQakOkPct8si24rDafWTOvbel/AdABlsNABAAAAAACUo3BO+wtLw3qLmZ0h6RRJrRWe6reS/8Bkl2Z7C5uqmAigyhhgAQAAAAAaQn93x3Qp/qCZlkoaV92z200m/2rm6MLVtlxxdc8NYKQYYAEAAAAA6trWszunRXF8vty7lPz72Dtdfl5H78CVJnnC1wKwnxhgAQAAAADqUr4rMy5u0XIzfVDSmJpe3LUmlYrf1b5i8O6aXhfAPjHAAgAAAADUna1L214eua2Q24sDZuyS7AvZ4fw/WZ9KATuAUY8BFgAAAACgruS7Mx9z0+dV+ebsVWXSDcOe7jli1Zb7Q7cAoxUDLAAAAABAXdjQNb31wJZHL5T520K37MOgW3xW58rBm0KHAKMRAywAAAAAQHD5rsyhntYPJJ0cuuU57FRkb+1Ykf9R6BBgtIlCBwAAAAAARrc/dB1xkKf1E9X38EqSxir2H+S7M+8IHQKMNgywAAAAAADB/KHriIPS6aGfSjoxdMt+Srnpwv7u9v8XOgQYTbiFEAAAAAAQxJZzp45NDZVWSz4ndEsFSu7e07lq4PuhQ4DRgBVYAAAAAICac8mioeJFDTq8kqSUma3IL8mcFjoEGA0YYAEAAAAAai7fk/2kSUtCd4xQ2l19he72WaFDgGbHLYQAAAAAgJrK92TOdOlKNcl7UpceSLfEr2i7dDAXugVoVk3xwwIAAAAA0BgKS9ozsdtvJB0auqWaXPp1enw8p+3CwSdCtwDNiFsIAQAAAAA14csVxbFdpiYbXkmSSX9V3BF9L3QH0KwYYAEAAAAAaqKwMfNpmRaE7khQT25J9iOhI4BmxC2EAAAAAIDE5bszL3XTbZLSoVsSVozc52dWDdwcOgRoJqzAAgAAAAAkypcrctN31fzDK0lqic1WbFpy5ITQIUAzYYAFAAAAAEhUfmP7ByWdFLqjho4YE+/6ZugIoJlwCyEAAAAAIDFPPXXwd5LGh26pObPFHSvzV4TOAJoBK7AAAAAAAIkpyb6o0Ti8kiT37+YWZ9tCZwDNgAEWAAAAACARWxe3vcxcPaE7AjrIIn09dATQDBhgAQAAAAASkYqiL2uUv+90eVd+SeaM0B1Ao2MPLAAAAABA1eV6sq+W/MehO+rE4PBw60te1HfP9tAhQKMa1ZNwAAAAAEBS/BOhC+pIWzo9fH7oCKCRsQILAAAAAFBVhSXtJ8VuN4fuqDOxxZqdvbxwS+gQoBGxAgsAAAAAUFUu+1TohjoUeaR/9S6lQocAjYgBFgAAAACgagpL209w12tDd9SpGfl0dlnoCKARMcACAAAAAFSNx/YesV3Nc/Avbl3aOSV0BdBoGGABAAAAAKpiy7lTx7p0VuiOOndQFBf/KXQE0GgYYAEAAAAAqqJluHimpINDd9Q/e1t+aWZB6AqgkTDAAgAAAABUhbveFrqhQZjHuuC2ZTPSoUOARsEACwAAAAAwYoUl7RlJC0N3NJDpkx574P2hI4BGwQALAAAAADBiJbczJaVCdzQSN1+ePyfTHroDaAQMsAAAAAAAI2by14duaDQmHehF/0roDqAR8GhTAAAAAMCIPNA1cfzO9JgHJY0J3dKIzPTa7MrCdaE7gHrGCiwAAAAAwIjsahnzajG8qpi7vrHl3KljQ3cA9YwBFgAAAABgRNy4fXCEjkrtKn0kdARQzxhgAQAAAABGyE4NXdDwzD+59ezOaaEzgHrFAAsAAAAAULF7eqZ0SuoI3dEExkWl0r+GjgDqFQMsAAAAAEDF0p6aF7qhiZzW3912eugIoB4xwAIAAAAAVM7EAKuKzKIL7jt78gtCdwD1hgEWAAAAAKBibs4Aq7o6hkotfx86Aqg3FjoAAAAAANCY/tB1xEHp9NDD4r1ltQ2VPD5h2qrB34cOAeoFK7AAAAAAABUZk971cjG8SkJrylLfCh0B1BMGWAAAAACAirjbiaEbmpcv6u9uPyt0BVAvGGABAAAAACri5jNCNzQzi+wbf+g64qDQHUA9YIAFAAAAAKiQMcBKkuvwdMuuT4fOAOoB9yoDAAAAAMr2QNfE8TvTY7aLhRFJK5rp5dmVhTtDhwAh8YMGAAAAAFC2odbW48R7ylpocfdvOwtQMMrxwwYAAAAAUDaP7bjQDaOHzc0taT8ndAUQEgMsAAAAAED5TAywasjcvlI4p/2FoTuAUBhgAQAAAAAqcXzogFHmhXFJnwsdAYTCAAsAAAAAUDaXTw/dMOq4vSu3OHti6AwgBAZYAAAAAICyDHa3HSbZ5NAdo1CkyL/jXUqFDgFqjQEWAAAAAKAspVTE/lfhzMi3tr8zdARQawywAAAAAABlcTduHwzJ7Z82nz15UugMoJYYYAEAAAAAyuMxA6ywDmkttZwfOgKoJQZYAAAAAIAysQIrPDs33505OXQFUCsMsAAAAAAA5XpJ6ADIXLrgtmUz0qFDgFpggAUAAAAA2G/3dE+bLOmw0B2QZDpu0o773hc6A6gFBlgAAAAAgP0WaYjbB+uIy/4xf06mPXQHkDQGWAAAAACA/ZZi/6u6YtKBXvR/Cd0BJI0BFgAAAABgv3nEAKv+2OJCT/spoSuAJDHAAgAAAADsN3d/aegGPFMsY0N3NDUGWAAAAACA/eKSmcQKrPr0kkmPPfD+0BFAUix0AAAAAACgMeTemn2RUr45dAf2zaXHLLZjOy7PD4ZuAaqNFVgAAAAAgP1iLdw+WM9MOtAj/+fQHUASGGABAAAAAPaLux0XuqFC7uafkDQUOiRpJvXkuzMnh+4Aqo0BFgAAAABgv1jDbuDu/Z0rB75orjdK2hW6JmHmpm/5ArWEDgGqiQEWAAAAAGC/uKkxB1iuOyQpu6rwY5l9JHRODRyfa29/X+gIoJrYxB0AAAAA8LwGl7UdUNwRPSopFbqlfH5eR+/AZ6TdT1LM92R+LOlVgaOStr003HLstL6t94UOQWPZcu7UsS3DxaPkOiqWMiafKNkUk01waaykcbs/0x832ZBbvM3dtpn5fS5tain5xvbLB/PV7mJJIQAAAADgeRUfT02XvAGHV5Lb7hVYkmSSD7bE7ywWo99KekHArKQd1JIu/rOkc0KHoH75ArX0H952fGSpWWZ+kkszNVQ80p+6Y2/3qqfd/9PlzzxeLrnt/oyn/ncpMuV6Mo9Kutlc68385+2DAz+3NSqOpJUVWAAAAACA55XvyfytSxeF7qhEVPJjMlcMbNzzY/1L2v/B3P4pVFONuHs0v3NVbl3oENSHDV3TWw9MP3qSFC+S7GRJM1SbQe5Dcv1QkV2RXZn/X9M+pmHPgwEWAAAAAOB55Xsy33DpA6E7KvB49ujCBFuueM8Pbuia3jo+vf0Ok44JFVYTrt9k7y2cONLVL2hMLlmhO3O8yxbJfJGk+Qq88tCk37vsmzbsl2T7Ck+WcRwAAAAAAM8t1535mUwLQneUzXRLx8rCSft6qb+nbZEp+t9aJ9WauT6QXVX4VugO1MaWrqmHR+nheZFskUuvlZQJ3bRPrgE3fa7j6MJFew+Y94UBFgAAAADgeeV6Mg9KemHojnK563udqwrLnu31fHemz01vqWVTAI8UPX3sEau23B86BNWX78ocqhad4uYLJVsk6ajQTeXxdaU4ffa0y7dufa7PYhN3AAAAAMBzyp+Tafdi4w2vJCnaYwP3fb7u8f9Xsug0NfeG7ge3qPglSeeGDsHIbTl36thoeHhOJFvkroUuvVxSqnHXKNncVFT8dX93+7LOVQPff9bPqmUSAAAAAKDx5Hsyr3Xpv0N3VCSy+R0r8j9/rk/p7878vZm+WKukQFyyBR29+bWhQ1AeX64ot7HjZVI8N5LNieWvMenA0F0JcJf+obO38KV9vcgKLAAAAADAczMdV/4zw+qCl1pSdz7fJ+0oHvTVCentb3Pp2FpEBWIm/7p36RXWp1LoGDy33FuzL/IoXhTJFuU36hRT/EJJcnkzr0Qyk87P9bSP7+gd+PQzXgxRBAAAAABoHLmezEpJPaE7ymVSf7a3MHV/Prd/SftCc1udcFJ4bu/tWJX/dugM/KXB7rbDhs1OeWrj9b+WNC10U1D7+D5lgAUAAAAAeE65nswdko4P3VE+u6ajN/+G/f3s3JLsFXI/K8miOvBwerh4zJS++7aFDhnNBpe1HVB6LJrvpoUuLTLpBDGj2VNRkZ265+2/3EIIAAAAAHhWG7qmt0rbjwndUZn4N+V8dqT4I7HstZLGJxRUDw4Zbmk5X9Lfhg4ZTbxLqVy646+keJHJFhV3+DyZxkhMrZ5Fi2L/zwe6Jr50Ut+2HZIUhS4CAAAAANSvCS3bj5XUGrqjEu563v2v9pRZOVAw03lJ9dQN07mFJe0nhc5odlu6247N92Tel+vJXJ1PZx4yxbeZdL7ki6Tdwys8p2lPto75zNP/wAosAAAAAMCzis1PsAZdI9KS8rJWYEnSo0MHff3A1kfOlduLk2iqE1Hs0b96l17Jhu7Vs/nsyZPSpZaTI9kiSa92qbMxn31QP8z1/q1LO782dUX/vQywAAAAAADPzuz4Bn0C4RNtuwY3l3vQ9L4NQ1u7298Xma5PIqp++Mvzre3vlAa+E7qkUW37m8MOfGLXmJMjt0UuLVJJ0yU16H8udWuseenDkv6uMcfoAAAAAICayPVkfizp1aE7KnBrR29hZqUH53raL5fsrdUMqkNs6F6Gvfexkny+GvT22gazLTtYaGMFFgAAAADgubw0dEAlXLpjJMeXhtMfSqWLp0maUKWkenTIUEvLFyQtCx1Sr/p7Oo6Q4kWRbFFe/ipTfNDuV1hnVUMT823ZhazAAgAAAADs02B322FFixpydY5LH+zsLXxzJOfI9WQ/KvmXq9VUp2KTZmV7C7eGDqkHA4vbsiVLLZL5IskXSjY5dBMkN32LFVgAAAAAgH0ajuwEa9CFJpGr7A3c95YdzH8935Y5R9LxVUiqV5FL3/bleqUtVxw6ptYe6Jo4/sl0+qRI0SKXFpWkl0v+1GIf1vzUC3OdxAALAAAAALBvbseFTqhYUXeO9BS2RsVCj38wlt1QjaQ6NiO3MfMOqXBh6JCkbTrtyDHjDnlydqxokeSLdkozTEo16Jx2NDmBcSIAAAAAYJ9yPe0XS/b20B0VKHT0FrLVOlmup32VZIurdb469ccWj49pWzX4YOiQattzHyuXv1rNva9Z02IFFgAAAADgWdio3MB9b6Xh9Ief2tD9oGqet84cWrTUeZLeHTpkpHKLs20exXN2D6z0eilukyRn4/WGxgosAAAAAMAzeJdS+XTmMUnjQreUy13/3Lmq8PFqnjO3JPsRuf9LNc9Zh2LFNrPj8vxtoUPKMdjddtiw7FTJFplpoaQjQjeh+liBBQAAAAB4hv5oytFRAw6vJCmy6q7AkqTsQP4bT23o3pCr0vZTpMj/zZdrZj1v6J7vyoyL0/GcpzdeL0ovMykK3YVkMcACAAAAADyDRVHjPnkvgQGWrVExt9Tep9hvVHPfzXRiYWPm7VLh30OHPM27lMqlO/5KihfZ7n2s5pqisdwQOLo08390AAAAAIAK5Xraz5PsU6E7KjD82PBB46f3bRhK4uS5nsxKST1JnLuObHNFx3T25h4OFTCwtO2YkqcWKfaFMp0i6eBQLagPrMACAAAAADyT66UNuuTh90kNrySpNNzykVS6+Do194buE81Kn5f03lpdcPPZkyelSy0nR7JFkl5ditUpOctu8Cd8KwAAAAAAniHXk7lH0rTQHRXo7egtLEnyArme9g9L9tUkr1EHSnEUv3LqisFfJnHyB7omjn8i1XpyZNEimS+UdJyYUeDZFVmBBQAAAAD4C5uWHDlBvnNq6I5KuKq//9XesoMD38pPybxNphOSvlZAqSiOvuPLdVI1NnTfex+rnfJ5kTRGYicr7JffMcACAAAAAPyFVj1xvBQ15GoYj/2upK9ha1TM9dgHJF+j5l419Ir8pvZl0sB3Kjm4v7tjuixeFEmLctLJpvjA3a8wtEKZXP/HAAsAAAAA8BfMUy9t1CFDa6vfWYvrdPTm1/Yvyaw019JaXC8Yt6/mzs6u67gs/7yDwcKS9kxJWijZIpMWyePDpd3fSc085UPyXH4rAywAAAAAwF7i4xt05PDIlEsH87W6WDzU8rFUuvgGSRNqdc0AxqnkP+zv7nhD56rchj1f+EPXEQelW4ZPkflCkxbFrmMb8rsGdS9K2fUMsAAAAAAAezs+dEBFXHdaDZeOTevbel//kvbPmtvXanXNQI4wi3/d35P5aSRtdrPD5T5dGjpWUkpq1PV6aAjmv8uuGNjMAAsAAAAA8CcuWV52XOiOiljyG7jvrWNg4IL8lMy5Tb6huyS1mPRalyRnXIXa8diukaQodAgAAAAAoH7ce05bVtLBoTsq4V6b/a/2ZGtUdEXvE4uQgES4x5dLDLAAAAAAAHsoFaPGXH0lKaXar8CSpM5VuXUmrQhxbaDJ3TH18sFfSQywAAAAAAB7iBt1/yvJn4zGbXj+T0tGcbjl7yRtD3V9oCm5fffp/5MBFgAAAABgT406wNp61MrNj4a6+LS+rfe59NlQ1wea0B/HFnde+vQ/MMACAAAAAPyJNe4AK8jtg3vqGC5c4NKvQ3cAzcBNF0zq27bj6X9mgAUAAAAAkCTdtmxGWtIxoTsqYn5X8IQ+leTR+8WG7sBIPd46VLxgzw8wwAIAAAAASJImPrbtaEljQndUwuPwK7Ck3Ru6S3ZZ6A6gkbnpK1P67tu258cYYAEAAAAAJElm3qi3D8rj+M7QDU8resvfSXokdAfQoB4c0tiv7P1BBlgAAAAAgN0sPi50QoV2dt5/76bQEU87YtWW+831mdAdQEMy//S+HsjAAAsAAAAAsJtHLw2dUBn7ra1RMXTFnjLFwrfZ0B0o2+3ZoYHv7esFBlgAAAAAgKd4o67ACr6B+96sTyVZ/D6xoTuwv4oye7f1qbSvFxlgAQAAAAD0QNfE8ZKmhu6oiNXHBu5761w5eJPk/xm6A2gELn2hY2X+/57tdQZYAAAAAAANtbYeJ8lCd1TCY6vLAZYkDaWKH5f0cOgOoM7dvm385C881ycwwAIAAAAAyGUN+wTCuBjVzRMI93bkZfc/YGJDd+A5PB6VvOfEC28ffq5PYoAFAAAAAFAsNeoA68FpfVvvCx3xXDLDhX8z6VehO4B6ZKYPZ64Y2Ph8n8cACwAAAAAguRpyA3dTfe5/tSfrU8nc3ys2dAf29oPsysI+nzq4NwZYAAAAAACZGnOA5V6/+1/tKbNq4GbJLwndAdQLk36/y8a+fX8/nwEWAAAAAIxyW5d2TpE0MXRHRSLV7f5Xe4ta9DFJD4XuAOrAw4p0+lErNz+6vwcwwAIAAACAUS7yuFH3v5LUOAOszKUDD8nss6E7gMBik5ZmVxQ2l3MQAywAAAAAQKMOsOLWaOi3oSPKkT0q/2+Sbg3dAYRjH8/2Fv6n3KMYYAEAAADAaOfx9NAJFfrD4Zfd/3joiHLYcsWR+QclxaFbgNqzSzt68/9SyZEMsAAAAABg1LOXhi6ohDfAEwj3JbNy4BeS/iN0B1Bbvm7Xw2OWVXo0AywAAAAAGMW8SylJLw7dUYmogfa/2lvU4h+X9GDoDqBG7kkPl8486rrNuyo9AQMsAAAAABjFBqL2F0k6IHRHRVx3hU6o1O4N3f3ToTtQcztc+h+ZfdRcZ4eOqZE/RiU/bUrffdtGchIGWAAAAAAwinlkjbqBu2SNeQvh07JDA9+TdHvoDiRqSNJak5a7R/MeGD/50M7ewus6Vua/ItOLQsfVwJBFenPmioGNIz1RSzVqAAAAAACNKTYdb6EjKvNE5ujCH0JHjIT1qZRfrPd6pPVigUmziCX7teQ3mOv6dMvwz//yQQM5SdKWrqmHu4rvC9RYO27vyq7Ir6nGqRhgAQAAAMDodlzogArdZcsb/0l+2csLt/T3ZC426R2hW1CxjZJf76YbUin9LHNp4aHn+mSXLJ8uXizpsBr1BWGm87O9+ao9rIABFgAAAACMYibxBMLAomF93NN6k5p8oNE8/H5TtDaWry6p9JMjeu/tL+fofE/285KfllRdPXDpv7JHFT5ZzXMywAIAAACAUWpwWdsBxR06InRHhRp2A/e9ZfsKf+zvbv+UmX0ndAv26RFJa2S2Oi4Wb5h6xb2/q/RE/Uva3yb3T1SxrR7dGg3r7GqvkGSABQAAAACjVPHR1EsUeSp0RyVS8qZZgSVJHccMfC+/KfN2uWaGboGKkn5j0upY8ept46fceOKFtw+P9KS5pdl5iv27VeirX64BS+vMbG/hyWqfmgEWAAAAAIxWUcPuf6XUcKlpVmBJki1X3N8TvdcU3yo2dA/hnt0DK189ZON+ctTKzY/++aXBEZ+8v6fjCMXxf0kaM+KT1SmXHouk12YvLQwkcX4GWAAAAAAwasXHSw35DMLBKX33bQsdUW2dvbnb8z2Zi1xaFrplFLjXZOti+eqoRf+d1NBFkvJdmUNd8XWSJiZ1jTpQksdLsqsGE1sZyQALAAAAAEav40MHVOjO0AGJGdY/KK0zxYbu1bZDsl+4fLUUre7szd1ei4vetmxGWjvu75N0dC2uF4pJH+pYNXhNktdggAUAAAAAo5XZ8fLQEeVza54nEO4t21f4Y39P5pMmNfdeSclLZB+rck3ecf8FLp1a6+vWkknfzPYWLkj6OgywAAAAAGAUGuxuO6zoOjx0R0Xcm3cFlqSOowsX5Tdl/oYN3cv2p32sDhi768cTL37wsT+/NPJ9rMqV685+0uXNfTuo6ceZgcJHanEpBlgAAAAAMArFZo16+6BSzXwLof5iQ/dbJDXkUyJr5E/7WFls13Zcnq/9lOpZ9C9pf4vcPxe6I2EbhodaF9saFWtxMQZYAAAAADAKlWSvbMjt26XicGv696EjktbZm7s9tyR7kdz/X+iWOvKQyW6I/7yP1T2hg/Ylvzgz012XqrmfJnlvKo5P6+i7Z3utLsgACwAAAABGIXO9pjEfQKiN0y7ZujN0RC3YkH/Cd2/o3sxPr3suT0p209Mbr3ccnfuVLVccOuq53NMzpdPlP5RsXOiWBD1psc5ov3wwX8uLMsACAAAAgFGmsLT9hDjW3NAdlWnu/a/2lO0r/DHfnfmEm74XuqVGYkm/NNu9j1WcTt/USMPKTUuOnNAS77xWpsmhWxIUm+vs7OWFW2p9YQZYAAAAADCK5Lsyh8ax/l2N+n7Qo1EzwJKkzDGFi/ObMu9o4g3dN0u22i2+PhqyG7J9hT+GDqqEL1BLXjuvkOm40C1JcukTHasK/xXi2o35AwsAAAAAUBZfrih3d9vr3Pybkk0NnFO5VHNv4L63JtzQfZvkN5jb6qK3rJ52+datoYOqId/e/g25XhO6I1GuiztXFb4U6vIMsAAAAACgSblk+cXZGYp0Rn5j3GNmU0M3jVRso2sFlvTUhu497RdK9u7QLRV4QtLPJVsdx6XrO48d/E2972NVrv6ezAflek/ojiS59LNtB05+l1QI1tCYW/YBAAAAAPbJu5TKtXTMiizucukMSdnQTVX0aLa3cLBJHjqk1vp7Og4xxXer/jd0L0n6tUmrY8Wr49bWdY20j1W58ksyp7nrGjXH6rh9culuKZrV2Zt7OGQHAywAAAAAaHD5rsy4uCVeFFn0epe/UbIm3UTaburozTfo5vMjl+/J/K1LF4Xu2Id7dg+sfHU0bNc36j5W5erv7phuFt8k6aDQLQl6yKRZ2d7CptAh3EIIAAAAAA0o35U5NE77wkh2uktnmKLxu5clNfM6hfiO0AUhZXoLF+d6Mn9r0qzAKdtMtiaWr47jlp82yz5W5di6tHOKxaX/UXMPr4YjeVemdyD48EpigAUAAAAADWNgcVu2GEWnRdLpLr3aZOnRdS/d6Nv/ak8m+dYofp/F0a2q7S1rT0i23uWrpWh1x9G5XzXbPlblyHdlxrmXrpLUEbolQe7yv830DvwsdMjTGGABAAAAQB3r7+k4QopPN1lXST7bJBtdQ6s/c7dRPcCSpKkrBn+ZW9L+XbkluWn4X+xjNfTwAT8/6rrNuxK8XsPw5Yryd2ulXDNDtyTJTed1rhy4LHTHnhhgAQAAAEAd8eWKchs7XibFp5v5WfL4xU+9EjYsPI/HRHeFjqgH7qlPSfFbTJpUxdP+aR8rKbU69Ibd9Sq3KXO+mc4I3ZEkk/VlV+aXh+7YWzPfHA0AAAAADeEvnhzoerNM7aGb6lCuo7fQGTqiXuSWZP9G7v9e6fEuPRDJbozlq0sq/eSI3nv7q9nXjEb6NW8Qt7WMj09uu3DwidAhe2OABQAAAAABbPubww584skxp1lkb5LrtWruzaBHzEz/nV1ZeH3ojnrhkuV6MtebdMp+HrLDTDfG8tUWRas7Lsuzmq0M/UvaF5rbdZLSoVsStGUoNXzSkZfd/0DokH3hFkIAAAAAqJHNZ0+eNKaYfoMivenJnVpoprHcGbjfRv3+V3syyQvm58Sy/5Pr8H18SlGyW1y+2iK7/oEDJv3ixAtvH655aBPY0t12rLn1qbmHV9vdotfX6/BKYoAFAAAAAInq7+k4wtzfJPmbVNJsN6UYWlWEAdZeMisHCrnF2RmK/MuSTpB8UB5tcJVuOGDc0JqJFz/42J8/Ox+ss5ENdrcdVrToWkmHhG5JUFFmZ3WuzP02dMhz4RZCAAAAAKiy/u6O6bL49SY7XfLZ4r3XiLlHx3Wuym0I3VvKmG0AACAASURBVIHRY0PX9NYDW7b/RKYFoVsS5fbejlX5b4fOeD6swAIAAACAEfLlinJ3d8yOLH69S2dI8dFPvRI2rHkM7SgeuCl0BEYPl6yQ3n6Rq9mHV/6VjlWFuh9eSQywAAAAAKAiW86dOjYaGpobKTo9v1FdZvEUxlUJcf1uet+GodAZGD1yPZnPmnR26I4kufQ/HcWBj4fu2F8MsAAAAABgP9139uQX7CqmTo0s6vKh4hulaAJDq+R5xP5XqJ3+7vazTPpM6I4kmfSrscO73mp9KoVu2V8MsAAAAADgOdzbdfjEoXTqtEjWNVTSq8zUytCqtiI2cEeNbF3cNtvM/lPNvW/dvVEcv3FS37YdoUPKwQALAAAAAPaSe2v2RRb5mW46c1h6pUkRQ6ugGGAhcf09HUeY4qsljQ3dkqDH4yh+fUfvYMM9lpIBFgAAAADomU8O9OZegdFYUrojdAKa26YlR06weOcPZZoYuiVBsdyWTl0x+MvQIZVggAUAAABg1HpqaNVl5mfJ4xfv/ihrrerMH7OXFgZCR6B53bZsRnrMjvuulNlxoVsS5faxjlX5q0NnVIoBFgAAAIBRw5cryt3dMTuy+PUuvUWKX7T7BRZb1S1n9RWSNWnHfd+Q7K9DdyTs3ztW5b8aOmIkGGABAAAAaGrepVSupWNWZHFXfpPOMosPZ41V4+AJhEhSvjvzMZfeHbojUa41jxUPeo9UCF0yIgywAAAAADSdwWVtB5Qei05z05l56XWm+CCXuDuwAfEEQiQl1519k5ufH7ojYb8tjWk5Y/qqDUOhQ0aKARYAAACAprDl3KkHR0PDfx3JTi/u0BkyjQ/dhJGLPWrIDadR37YubnuZzFdIikK3JOhBi/TGaZdsfSR0SDUwwAIAAADQsArntL+wVNTrIlmXDxVfJVkri6yaynDcGm0IHYHmklucbVPkP5L0gtAtCdoZx/Ebp/YObg4dUi0MsAAAAAA0lMFz2jqGi9FrIun0uKjXmNTC0Ko5ubRh2iVbd4buQPN4oGvi+Ccj/2+TMqFbEuQmvWPq5YPrQ4dUEwMsAAAAAHVvS3fbsVFkZ5jbmcWiTjSxndVoYPJfh25A8/AupfLpsb0m/6vQLUky1/LsqsLK0B3VxgALAAAAQF3q7+6YLou7THq9pBlMrEYfM/td6AY0j3xL9l8kPz10R7L8isyqgfNCVySBARYAAACAuuDLFeU2drxMik83qVuKjw7dhOA2hQ5Ac8h3Z97h5h8K3ZEsX7fr4XFvsyZdoMoACwAAAEAw3qVUrqVjVmRxV36j3mKK20I3oX54ZAywMGK5nuyrXf5voTsStmUoVXzzUddt3hU6JCkMsAAAAADU1JZzp45NFUuvUkln5s1PN8WHNuVyAYxUbDv9D6Ej0Nj6uzumS/EVau75x8Mlj1975GX3PxA6JEnN/C8QAAAAQJ0YXNZ2wPBjWhhZ1OVDxTdKmiALXYU6tyHbV3gydAQa12B322FFi38o6aDQLQkadvOuab2Dvw8dkjQGWAAAAAASUTin/YVxKXqjuZ9R3KG/NtMYVlph/9nq0AVoXPmuzLii6RpJLwrdkiST3t2xcuD60B21wAALAAAAQNVsOXfqwanh0plydcdFP0XyFEMrlM+3llpbPhe6Ao3JJcu32iVyPyl0S5Lc9c8dqwr/HrqjVhhgAQAAABiRfFdmXNzqr7PYejRUfK2kMaGb0LB2ytVrRfvYtN6tj4SOQWPKL2k/T+5nhe5I2A86jin8Q+iIWuKucwAAAAAVyS/JHO/u75ZsiaQJoXvQsIZkusFdV0XDujLbV/hj6CA0rv6e9nNM9p+hOxJ2W8v4+OS2CwefCB1SSwywAAAAAOy3DV3TW8enH3mjKVom+ULxngKVecKkG2J5X3F4zA9f1HfP9tBBaHz93R1zzeLVau5VoIOR+czMyoFC6JBa4w8bAAAAAM8r35U5NE7rA5LebdKk0D1oSNsk/cjNr47T6dXTLtm6M3QQmke+J3OUSzdLemHolqS49Fgq8nmZFQO/Cd0SAntgAQAAAHhWg91thw1b9D6XPmjSwaF70HByJv049vjabQdO+fGJF94+HDoIzSfflTk0lq6xJh5eSYotsqWZFYVRObySGGABAAAA2IetSzunRHH8saJ8mUkvCN2DBuK6S+ZXxZFfPXXF4C///MJguCY0rQ1d01u9Zft/mXRM6JYkufThzhX5H4XuCIkBFgAAAIA/2b3H1fZ3Ky6dJ+nA0D1oCLGkX7l0bezx5dNWDf4+dBBGjwnp7d9yaUHojiS563udqwrfDN0RGgMsAAAAAJKk/u620822f13SEaFbUPdKkv3C5X1Ri67MXloYCB2E0SfX0/4Jl5aF7kjYTzruLbwndEQ9YIAFAAAAjHJb3zrlxVGq5ZuSLwrdgrr2uLmuk+nqYmvLf0+7ZOsjoYMwevUvaX+L3M4L3ZGwO3fZ2LNsjYqhQ+oBTyEEAAAARimXLNeTeadJX5N0QOge1KU/mvTfsfyaccND103q27YjdBDQ39MxwxSvVTP/3DLdV/TSSUf03tsfOqVeMMACAAAARqEtXVMPT6WLF0s6LXQL6k7epOt4ciDqUf6cTLsP6xaZ2kO3JGhnZH5KZuXAL0KH1BNuIQQAAABGmXx35jVuxVWSDg7dgrrxW5lfpVJ0dfby/O0m+e4P8+RA1I9NS46c4MWd1zX58Mpdfg7Dq2digAUAAACMIv09mWUuXSApHboFwf3WpT4vla6YesW9vwsdAzwX71Iq77tWSDo+dEuS3PyTnSsH+kJ31CMGWAAAAMAo4F1K5dOZr0t6X+gWBDMs2Y1yXWVp/yFPDkQjyacz35D89NAdyfJLOlcOfDF0Rb1igAUAAAA0OZcsl858x6R3hG5BzT1p0vWxdM1wavjqIy+7/4HQQUC5+nsyH5T03tAdiXL9fNcj494VOqOesYk7AAAA0MRcsnxP9tuS88Zo9HjYZKtjxdeOGx76AU8ORCPLL8mc5q4fqbkX4NyTHi6eNKXvvm2hQ+pZM38DAAAAAKNevifzTYZXo0JB0tVufnXHwMCNtkbF0EHASBWWtp9QinWFNffs4iGTXsPw6vk18zcBAAAAMKrlerLvlpw9r5rXPSZdG3vU17Eqd9OfnxwINL4tXVMPj+Pij0w6MHRLgoZj97OmrhrYFDqkEXALIQAAANCECkvaT4rd1kgaE7oFVfVbl/qk6JrO3tztoWOAJOS7MuO8VT+Ta2boliSZaVl2ZeF7oTsaBSuwAAAAgCZTOKf9hfGwXSljeNUEiiatlXSVmV+dWTlQCB0EJMmXK8pv1IpmH17J/AvZlQMMr8rAAAsAAABoMvFw9BWZt4fuQMV2mrQ6lq4pefqHR6zacn/oIKBWcndnvmimM0N3JMlcV2aOHvhM6I5Gwy2EAAAAQBPJd2dOdtPPxO/6jeZPTw48YOyuqyZe/OBjoYOAWst1Z98u84tDdyTstpbx8cltFw4+ETqk0fCHGgAAANAkbls2Iz1px/13STo6dAv2y6DkP3RPXbXtwIlrTrzw9uHQQUAoW7vbT43MfiwpHbolOb616K0nsaqyMtxCCAAAADSJSY89sFTG8KrObTHpmtijvo5jcuttueLdH86FrQICGljadkwptivVxMMrlx6L3N7I8KpyDLAAAACAJuDLFeU2+se5xaIu8eRA4FkUzml/Yalo10g6JHRLgkoy78n2DtwROqSRMcACAAAAmkBuY/ubTTomdAckSSW5fu6mq9It8dVtlw6yvArYh02nHTkmLj55taSjQrckyu0Dnb2Fa0NnNDoGWAAAAEATMLO/kYeuGNV2SrbO5dfGwy1XTOvbel/oIKCeuWSFQ3Z+z2VzQ7ckyu3rHavy3w6d0QwYYAEAAAANbrC77bCia2HojlHocZN+Fsv7hmzc1Uet3Pxo6CCgURR6Mp9x6ezQHQm7LlvMfzR0RLNggAUAAAA0uGGLzrQm3vy4zjxo0nWxx307iof8ZHrfhqHQQUCj6e9p73Lps6E7ErZheLi12/pUCh3SLBhgAQAAAA3OpFeHbmhuvtVkP4oVX9MxOLjG1qi4++ODYbOABpRbkn2F3C+R1MzPnLg3FcendfTdsz10SDNhgAUAAAA0vleGDmhCPDkQqLIti6dOlQ9fI9kBoVsS9KRJb2q/fDAfOqTZMMACAAAAGtjWpZ1TFJcyoTuaQCzZzS6/JlXyqzJXDGwMHQQ0k01LjpyQ8p0/kmxy6JYExWZakl1ZuDV0SDNigAUAAAA0sFSpdII38404ydplptVyXdUyXPzRlL77toUOAprRbctmpMfsuO9KyY4P3ZIkc/19trdwVeiOZsUACwAAAGhgLpsieeiMRlKUdK27rzpg3K7rJl784GOhg4BmN3nH/Re47K9DdyTJpYs6VhW+HLqjmTHAAgAAABqYyyezAGu/7JTsq4r1rx2X59l9HaiR3JLsR9x9WeiOJJl0/QPjJ79HKoROaWoMsAAAAIAGZmaTWIH1vDa5RW/qXJn7begQYDTJ9WTfKPd/Dt2RKPPfFdPpt5x44e3DoVOaXRQ6AAAAAEDlTM7v9M/DpVgqvSrflTk0dAswWmxd2vZyyVequecO21SMTp92ydZHQoeMBs38jQQAAACMBjtDB9Q7k44xt695WoP5nuz3+3vaFrnEnZdAQh7omjg+iqPLJb0gdEuChizSWR1X5P8QOmS04BZCAAAAoIHF0k4mMfttjMu7TFFXridzd87sey1x6T/bVg0+GDoMaCZPpsd8zaSjQnckyVwfza4orAndMZqwAgsAAABobA+HDmhEJh0j938pWlTI9bSv2trdfiqrsoCRG+xuO8ykc0N3JMmk6zOrCheE7hhtWIEFAAAANDCPfbNFzF1GYIxkiyPT4nxPZlPedNGuaPiSIy+7/4HQYUAjKqZSL1bsTT1riBWfbzw9o+aa+psKAACEMXfu3EPcW44x9xdLPsnlE0w2XtJYyXdI9qi7b49M+ZLSv16//oZ7xC+CQEVSkW3kP56qOcpdX2otpc/Ld2d+FCu6sOOY3PW2XHHoMKBhWPOvCo2Go1+GbhiN+KsaAA1h1qxZh6ai9D/JK/i55bZ63c039iWQFcycWfM+ZGYvruIpi2b2kMf+kJk/5JH/7uGHH75zw4YNQ1W8Rt2bO2v+B2V6SQWHPrlu/doPVT2ogcyfOf+oUosvNI8WSj5H0pQyT/GYpNvc/UdpT1295hdrtla/snrmzZ632GWnlHNM5PrO2pvX/iqppj3NnT3/k5I6yjlmuLTrY7fccsujCSVVbMErFhxeTMf/GLpDktxKH73pppseC92xt9uWzUhP2nH/DkmtoVua1D1ufpFbyyVTV/TfGzoGqHe+XFF+Y+ZuSUeGbklKZJ7NrBwohO4YbRhgAWgI8+bM/7K7PlrZ0XbtuvU3nl7dorDmzJ6/xaSpCV/mSZN+5rIrD9gx5vs/veOnjyd8vaBmzVpwbMriO1Xh6uRYxcnr168fVbebzJp1anvKiku1e5+LY6t5bpP+z92+1jLG+tasWVOs5rmrYd7s+T9x6VXlHBMrOn79+jV3JZS0J5s7e/4jkiaUccxj69avPUh1uApu7tyTT1fsPwrdIWn7uvVrD1Edfo0kKdedWSvTvNAdTW5YrmtNujBzTOGnrMoCnl2up/3Dkn01dEdy7O0dvflLQleMNmziDqDuzZp1aru73lP5GfyE6tWEN3PmzAkmddbgUuNceq3kFz8xfmdh3pyTP7NgwYLxNbhuEC0Wf0kjuLU+iltfWsWcujZ79smz5s4++ZqUFfslna8qD68kyaVXyLy3OBTfPe+keXOqff6Rcun4Mg8Z2r5928ZEYvYyf/78qSpveCVJd6pOBzPmZX+tk2G6S3X6NZIkN90QumEUSMt0hpuuy9+dyeV7Muff0zOlFn8eAw1n7PDQ9yS/P3RHUkz+gdANoxEDLAB1L2XFz0k6YASnyL7ylQtfWK2e0MZEY45T7VfQHuzu/1gcijfMPWnBohpfO3Fz586d6dLIVulFcVMNSvdlzpyT582dPX91JF8v+eslpWpw2SPcorYaXGe/zZo161CVfYuk/a5Wt+R60csfppruTCClKrxOBlgW1+/XSJLk0erQCaOKqd2lj7cotTnX3f7DrYvbX+ddNfmZCDSESX3bdrjsi6E7kuLSy7Z2t58aumO0YYAFoK7NmTPnGEnnjPQ8ra2lungDVA2lqII3p9XToSj+8ZxZ8yu8nbNOlex8jXQoaGraFVgLXrHg8Lmz511q7jdKWljr68emrbW+5nNJpcZU8O86vqP6JfvmsvJ/3tX3cKYufn67VIvbPyu27cCJt0jaFrpjFGqR2RuiyK7NpzNb+nsyywcWt2VDRwH1YOjhsd8xqT90R1KiyP7J2ZapphhgAahr5i3nqxpPTI2DDn2qymTHBU5ImenLc2bN+3TgjqqYO2vu62W2YMQncmvGFVg2Z868dxXT8e8kO1uBfkkrlVpyIa77bCwufyButVzhVMGKpahOV2BNnz69VfKjQndI9fs1etqJF94+LLeVoTtGuaxJny1F0dZcT/Z/+3vau25bNiMdOgoI5ajrNu9y2fLQHYlxzcz3ZN8QOmM0YYAFoG7NmzXvlZK/sSon8+YZYMnrY6WPmX1u7qz5I14dF1gki86rzqn8xbvfbDeHmTNnTpg7a/7l5vZvkg4OmPLkLbdcX1eb41ew/5U8TtVu+FHBasCdxfSGJFJG6tDxhx6rOnmyXr1+jf5Ci/49dAIkSZHki0z2/Uk77u/P92TO33p257TQUUAI2eH8ZZJ+G7ojOf4Fbh+uHQZYAOqWWxVu63qaqZlWx4RegfVnpn+dO3duR+iMSs2dNX+ppL+q0ulan3qz3fDmnTTv5enUmF/JdFboFu2+9aC+Ns52K3tA5NFwTW4hXLBgwViV/9jywq23Xv9QEj0jlqqPgb2kgbr9Gu2h47L8XZJuC92BvzDFpY9HpdLm3JLMdfklmTNYlYXRxPpUMqkpVu0/i+m5dPuS0BGjBQMsAHVpzpz5r5V0ShVPOX3BggUjvxUxsAUzF2QkHRK6Yw/jFae+EjqiEtOnT2+V6bNVPWn9vNmu2Jw5J5/ikf1M0hGhWyRJ5ltDJ+zFZHpJmcf88aabbhpMpGYvxWJxusq97drr99a4Sla7JcK8br9Ge3PzL4VuwD5Fcr3GXT+Y9Pj9uXxP5vzcW7MvCh0F1EK2t/ADSb8I3ZEUk/5x02lHjgndMRowwAJQjyK5Pl/lc46Ld8Z1sY/KSAy3xHU4IPE3z569oH5Whe2ngycc+h5VeUgTe1SH/37239xZJ59h7v8jaULolj+zutr8de7cudMkHVjmYb9JomVfLK5gA/d6Hs54Bf//JMDjqH6/RnvpWDnwX5Jq9tAAVMB1uEsfV8o3Pr1X1oau5rkFHdgXc/196Ibk2NQxh+56R+iK0YABFoC6M2/2vB6TXlbt85aaYHVM5ME3cN8XixS/O3REORYsWDDezP6h2ueNzBv2VtV5s+ctlvmVksaGbtmTy+tqgFXRgKiGw4RKViyZ6ncFlqw+VmDVdBP+ETLJXV7tvwRCMv60V9aB6e335Xsy3+3v7pgeOgpIQnZV4UbJVofuSIq7f2bb3xxW7l9woUwMsADUlenTp7e6tDyJc0dx4z8lLq6X22me6S1qoD9TSsP+d5ImVfu8Xr39tGpq3qx5C112ierw36HF9bUCy1X+AMtrOfyoYAN3j+pzBdaCBQsOltQeukOSIve7QjeUo+Pogf+SdGvoDpTlEJeWmcV35nsy1+d6sou5JQnNxuSfVL3ta1klJk16cueY94fuaHYNvx8MgOZyyEGHvUvyRPaEcGv8JxFaZQOsX0r2LL8seKukQzXyN4mT5s6de/y6detqdqtUpebNmzfRS/6hhE4/aebMhZNvueX6+xM6f9XNmbPgRPf4aknVfqN0j+S3mEV3xfIBSY9JKkoap9inmNlRcs2QaYae4/cR8/pagSXX8eU+WiKKazggKv+Wu+KBBx74+0RaRmh42I+38h/k8WD1bzt1j8ZEv6vuOZNlyxXnu/VON90uft9vNObSqZKfOuaQnY/kezLfl+mC7MpCXQ6agXJkewu35noyV0k6M3RLMuxj+a7Md7J9hT+GLmlW/IEGoG4sWLBgfHEo/kSCl2joFVgzZsxIS17uU+4eWLd+7Yzn+6QFr1hw+HBr6e3m9ilJB1TS56XoJNVwr59KeWyfVfl7GO23lpbiSyX9b1Lnr6ZZs2Ydal66UrLx1Tmj/0FuF5UUXXnzzWs2788RM2fOnNDSMuYMc3+HZHP3fr1o6a3VaauS8m9pi8c9Pm5DIi172T2c1eSyDnJtvO6663YllDQi5hXcDmn2rZ/fdOPnkuhpNNlVhTty3dkLZIkN7JG8g11aJteyXE/mdpcuTI+PV7RdOPhE6DCgUqko/kQpjt6g5pxFHKxWfUxS1bepwG51d6sAgNGrOBR/VCrzzVd5Mq985cIXJnj+RI0dO/Zolb9KZr/+xnbN/62576abfv5FRfF8STvKjpNkprrfJH/+/PnT5HpnoheJG2YfLGux9H9I1lmFc93lpjevW//zo9bdvPb8/R1eSdItt9zy6E03rf3Pdet/Pi+STpb0yz1eHrr55hvurUJfVZx22mljpLK/z//w0zt++ngSPXvz4VTZ33v1vLeTuZe/4tTjuh+i19LY4s5Pm1RfqxhRqRkmfbe4I8rnurNf61/SUe7TUIG60L5i8G7JLwvdkRR3fWDr0s4poTuaFQMsAHVh3rx5EyV9OOnrtLaW6nUPqecVeVTBaoTy3pyuW7fudnf9Y7nXkSSTMpUcV0tx0b8gKdEnPVmD3Ko6d/bJ73fpDSM8zQ7JPrhu/doTbrpp7Q80wn0t1q5fu3ZK++RXSvq0pJLkeUnxCBur5vFHHn+JyvwbY6/l0+Ci8r/3vI43cPeoghVYLcbT9/YwqW/bDsV6q6Sh0C2omkNl/iHzeEOuJ3Nbf09m2X1nT35B6CigHC0tvlxSXa7+rYIDIi9+KnREs2KABaAuxCV9WtKExC9UihtldcwzeVT+m1Mv/83ccCn9H6pgaOCyuv4Fet7MeS+V7K2JX8jq/2EBC2YuyGiETylz6VdRi166bv2N31QVh0x9fX2ldevXfl4ev8lkd1frvNVQyUMUavmEv0qeQKiobgc+Jle5T2N7dO3atVuTiGlk2csLt5jp06E7kIgZJn13qJQeyPdkvlvoaW/IB4lg9Gm7dDAnt38L3ZEYt3fm3ppNZE/f0Y4BFoDg5s+fP81ky8o/0srfV8Ya5vauZzIv+9Hablb2m+dbb73+IXklt5x4uvxjascjO1/l/7lXklTe5s2uY6dPn57oKq+RGk7FX9cI9gEz6YrYh+esXbt2SxWz/sK6m9ddm2qN3pbU+SthFawIUgVD5EpV8pCHlmL5PyNqYfbsUzskHVzeUX6HmvTpViOVWVn4sqQfhu5AYg5yaVks+9XTq7Ie6JpYpb0NgWS0qPQFSY+G7khI2nevMkOVMcACEJwXdZ4qeAKam94v6ZHyjip/FVO98PI3NC7t3PnYbyu6mGl72ce4arLPTyXmz54/X6bTyj3OpMslv67Mw1oPOeSQF5d7rVqZM+fkvzbpzZUe77KLDm+fvOTmm29+sppd+7JmzZoHk75GOSr4b1Al1WZA1NXVlZK83D1xHlvzizV1uT9S5EMV3O5dt6vJgjPJXdHbZd5QT1NERWaY9N2d6TGF3JL2f2VVFupV26rBB136WuiOpJirJ78k07Bbl9QrBlgAgpo/a/7xLnWXf6Svu+mmG38mV5m3GPlxCxYsaLinnsycOXOCTFPLO8o233777RU+qcgPKfsIs7r9WzSXzq/gsFLRo89LUfm3scWpuh2Umsefqfhg1/dvWn/j/+vr6ytVMamRlPeLqOvxm29ec09CLX+hUNh2lKRx5Rxj0l2q0xVLHlnZv/S713C/sQbU2Zt7OJJeJakQugU1cZDc3sOqLNSzccO7/sWlB0J3JCTyeGTbNeCZGGABCCqWvqQKfhaZ61OSZNLvyzx0TKlUOrrc64U2JhpznCQr87CKVn7svv3Nyn8apMe5Sq6XtHmz573ZpVllH2haefPNa34fycv9HpNUn7eqzp89/1TJ5lZ4+PoDD37BOaqjTdVradasWYdKaivzsLtUo69XFMVNtYH7/8/encdHVZ/7A/88ZyYbYREUFEgIoOASwWVUnJkzk1NKaVO1vV1SJS61vS1atepta7WtV6mtW5dfW61auV2sSrDSRa8LrSJ3mEwSUaOtinUXkrCJyg5ZZr7P7w+iUsqSc3LOfM+ced6vl/e+gHzP+ZBOhplnnu/zJQfdbkzSgXUgVQtWdylDfRoOT5sVBStCwJ07S8rWdDZW3blqzgSn/w4I4aoxizZsI6abdefwDNGnVp41LqY7RpBIAUsIoU08Xpdwsq2LgaXNbc3LAEAZbL87JgffdsfsS87BbBtm5ejN3Kjho6IAyu2uIzJed3I/LzU0NIQY9AMHS3OM3A0AkEXWQQHLn48xBXzX4dKNCuHGxYsXB/XEoAMKhcrs/29KnL/5V44KPuzbAhZguwOLc7lu+3MRi9DEe9c8y2zUM7BVdxaRXwQMY2AukWruaKxasaqx6srOhqpRunOJ4pYrC90OoFN3Dq8YZDjZBSD2QQpYQghtiNnRE3oI+P4H11CG7eICF8ApcXsygGPtriEYLzq5FxM1OllnMP/dyTovrVuz7ksAbM+jYtA9LS0trwBAa2vr2wDes3kJ380cicVmHg5gpqPFjMtbW5f6clZSvpDKBe4EQkP5swOr/xAEW52yBLyxfPly325j9puahR0ZkJIiVnE7hoCbuASrOxur71/VOG6W7kCiOE26a2U3Ma7TncMzhMSqORM+pjtGUEgBSwihRSKavlq/FQAAIABJREFU+A8A9ltqiZekW9PpD34ZVrY7sIj92R2zP0z235wqCtnu/kjOSE4BcL7ddQDeS7elfdX9YFlWOTM5mfeUIyN34+6/QbA7aw2jrZOtwxzc2zMhyn0R9rehAkBzpi19j9t5Co2TAhHyOJPJyfNaT67UUZHba6OGjjoKgK2TPGX+lX01C9a0gFQ9bB+GIgKmnMENBOPxjjlVf++YU33RGw2TR+gOJYpL1dquu9j+a62CQaRuYGevwcQeCm6QsRCi8DU0NITWrn77h05mBzOMf/mEZseOHa9VlFX2ASgZ+DVQcB1YsP/meVtr69K37CywLGtotlf9CTbfOAIACE/AZ7ORcr18KYBqB0t/n8lkXt39Nxj8MkC25mjlwrnjAKxzcH8vGMzqPCevnUjxd+DTQd/5RKBj7X4TckRlpmlGPAm0GyNnlCnbhzxgzVNPPfGuF3kGiw2y3XEKwiY3v9eZTOY5+Ow5zQs1C9a0rJozwSTKPQzQRM1xhG6E4wC+raSk96edjdUPKeTm1zStWaI7lgg+SiG7qpH/G6D7dWfxyEldc6o+i4Vdf9IdpNBJAUsckGVZ4d5eYzxRbgIxJhLUQSBjGDMPB+EgAMOgMAzgYSBj2PvrGLyZiP/lxR8x7WDCJjA2MfMmIuNdJl7JbHQw93S0tbXZ3aYjCtDarvVfBKHW7joCHsu0LGve/ffa29v7zFjyLdjbbjLesqxDUqnUO3Yz6BCNzhwPZO3OqLA1PNo0zanZPrUITrpMABDzH5ys84plWQdle9WVDpb2wVDX//tvk/1PBQ1MB/A3Bxlcl4wmj1NAjYOly5qfbG5xPVDhIYb95ywD+BuU983uyslnunmcz2UbOeqS/TKU8WWXEmwEUDRzgWoWdqxYM2fcyVkyHgA4rjuP8IX3u7IaOhurXlbAXSWsfjNu4ZqCeN0kCtOEptV/7Dy7ajkYM3Rn8QITbmALD1IKWd1ZCpkUsASAXR0xXV0bpoQpdzzYmA7iCQyuAagm26vGGVCh9z9/ZxDAH/xiF3r//3z4+TQBAP/rq2rebQ3Rrq8nBggKoBKYseQWAlYw4XkwPc+EF7q7t7W3t7fv8OivLvLMsqzybK+61slaNoy9DuMm4GW2OS+lr4+nAfg/JznyLQTloKh04OHMs6fPrtw2tDtuAGdC4VzY6GLbwztZzj7qcK0nsr3qKjh6A8p3ZTKZN/f8XQK/zHa7l9g/s9bY4Fl7Ph8PaB3hdg/iFJxkMjlRZTFcdw43sTJ8Of8KAAiYprPlz8+nM3pl3MI176yZO252dmvodhB/UXce4R8MHEXATVkyru1srPqjYmN+zcKOjO5cIngI4A7QNQD74sM/D0ztHF99HtD5W91BCpkUsIrQro4qPoGYTzSA45lw/Nqu9dNChEoG7fqcGYCmbbrDGYiCEX2/uFVRVtlnxpJPA2gmcHPFtorUY88/tl1HODF4fT3qEiJMsL2QsTiTSe31BVP/9q5P2bqeUsehQApYRDzd/ps5OteMJT+/ny8o2YHuoW70hhDRrW2tbTtduJQr4vH4ODC+7mBpnxGmG/f2B4rUy8QhWxdjH51EyM6Gt28qKTH+1/UwBYizPD1ooyuI/FukcTRvzEV+/t54adz8NTsAnN/ZWNXMwK0AKnRnEr5SwcC5ROrcjjlVzZTFx6sXdfnm334RDBMWdD62qrHq/wj4iO4snmC+9rX6IxZMWfx60Z7qPFhSwCoSpmlOhgrNAvGsbK+aZQAjQbv1S/n7dXkJdg37jjHoyh1Du7vNeCIDRQ8bJfhzOp0O7LGrQTMrMmtED/Ve5eiT9ZD6/j7/jOkVu49hcrZFRQuGOtbBD2l5/3+eIuDdrOr9pdf3sYPYmAdgiP2F+G06nd7r3LCSkpI3sr2qF/bmgx1dX19ftnjxYt0vUghMDrYF0ZJUKtXtfpzCwyCtBRUvKJAvizSzIrNGdKO3SmcGBvtyuH2+VDd1/aZzTtXTTLgXmouJwpfas5Q7d/KitVK8Ep4IEX9XMbXpzuGRCaWjdn4NwM91BylUcgphQEWj0VFmNPnlRCx5nxlLvg1lvAHwnWA0ABipO98glYNpFgg/V1msMmOJ5kQ88ZVZkVlyYorP9ZT2XcnAwQ6WPpLJZJbv6w8N4GX7l/TP9q4DM3xbbFPEV/tpdp1pmlMB+pKDpX3hnHHTvv4wlUplAbxh85rhzZt3Hu0gi6tM06wGMOyAX7gHJvWEB3EKEwfuTXy2tNTJ86b3uiuy06D5YzUjV5wdWLurXtj1/Na+ESeB+HpA5rUIALvmat6WKw2bk5vWrtIdRgRX1YLVTwJ4UHcOzzB9Z8OXD7H9ukzsIgWsALEs66BELHG+GU0+GqKSdSD8hoEzAYzWnc1DBJDJTP/TXda71owlmkzTMnWHEv8ukUiMZfClTtYS83X7+/M+9Dl5I1YbiUScznzKG8uywgAfpTvH3jCwtKWleb7uHLtjZdwAR93F/OvUk6mV+/8a+4PciZT2QinlyFERjdlodztLwaKAFbAYr/q2u06x9oJ9qDy0QncGP6hdtKJ3woLVVzOMUwF6VnceoQ8DrzAbdROaui6ZdNdKfz53iEBhNr4HIKc7hxcIGNO9s/y/dOcoVFLAKnCRSGRIIpY4x4wm/zfbq9Yx6Hcg1MP5MOZCVgHQHCjVbMaST8fjybNra2vtbPcRHmJF14JQaX8hHmpua35qf1/S3wG0weaVy8rLy20Nftchl8tNBVCmO8e/Iawr6TPOho+OmY/F6k4m4LMOlvYqlNx8wK8itl0oJdb/ZpxBTgqgnMt12z95MYDq6+vLAEzRncNNfp7xRMy6i4WdqVRqk+YMvlLT1NFePbXzZAZ/Efb/rRWFLUvALSVD1YkyuF3kU83CjhUALdCdwyuK8K3Xzz10jO4chUgKWAUqGrWOMGOJn1aUVXYx6B4QzoAf3+TqcxIx7h054uA3ErG6r0khS6/kjOQUMBwdb66I9nry4F7YLy6osPbiwgHlfDmrawvl+LTU06l1uoPszgDfCCdbjwj/09q69IDbIYjZfkHHB7PWCHSog2Vbli9fvsX1MAWofxtooGaG+vmUPTY0D3D38fdGJ5oHVdO0+m4jzEcz4VYAvbozCa/Rswb45Oqmrsv6B/wLkVc5FboWAX2uIWBYaa7kCt05CpEUsAqLkYglTtu1RVC9AtA3UPjzrLxWxeDbR44Y9WoinvhKIWwZCyIVxvVw1BVID7S2Lnt6YF9rvzsGxNq3dx0Ig2p1Z9jDRhjGac1PNvtqO0kimvg4gI86WNodzu579tXuFIXsP8ZY/6w1Nni4g2VbXQ9SoAxW2ouQbmP/dmARGFqf8/xc3PODqrtXv1uzoOvScFhNIWA+ArrFp8h1M/D9rX3Do1VNq//u0T38fXyU8IVJ961cyYQ7defw0CWrzxpXrTtEoZECVgGor68vS8QSXzdjydcY9HD/FkH5384WqmGm/6koq/xHLJacrTtNMYnHrZPA+LyDpaxA+z558N/Yn08E1t8dcyAEP2XkN3JsxDKZlN+2ERAT3eBw7fzU8lTXQL6wpMTR0OvRiURirIN1brI/wF2GNn+ANHcEeSEU8meRpv/AgYN0ZqAiP4FwoMbdvaajuqnrAiZjOgH3QJ4zgiJt5Pi4mqauebWLVrja+TJjxozh8Wjdj8xo8s14PD7UzWuL4MqpkusBbNedwyPlyjCu1h2i0EgRxMcikUiJGU2et3XT9n8y6BYAk3VnCoCjDeBvZjzxePLUpPbTwYoBIedsWxfjL62tqQF/8keOOrCgvTvmQJRfCliEReHS0EltbSnfnVxmRuvOAnCig6XdOQ7/aKBfnEqlNoFge9skZ0N6H2dMQ+wuIWenhQYSB+8Ewm3pdHql7hB7Q4q0f6/ZYF8W9/yqZkHHS9VNXeflVHgKgNsA7NSdSTiyBaCLqpu6rKo/rH7V7YvH48lPloTKXiDiK0AY1tLSIl2+YkAmL3xrPcA/053DKwx8ubOxKlBzNr0WqJkOQRGJREoqSivngPgaAIfrzhNITLOUgWfNWPLmnT3br29vb+/THSmIzFOtWWA1y8laJtpixpJXDvTrFdOhRGz3NuMsyzoklUq9Y3dhPsTj8WHEqNEagvESG7iipSX9qNYc+xCJREpA6gfOdiPQGyHKnmPGkgNfwrD9XEHE0wH81e461xD3wvaPBoZZllXu25Pq8kt7UcVlLwIOHhF5wEzTNG8syg4bNsx3RfpCMOm+lSsBXPJGw+TvhUt6zyfGFSCM151LDMjicFhdOO7uNR1uX9g0zZFQxk1gzN3tt990+z4i2Pr6yn5SUtL7NQTzw7Uwg68DMEd3kEIhBSyfMaN1c3a9GcPhsj3cc+UArh1SVvnJeDz+pZaWFjk2210Egwc0W2jvi/l8W19vv3gFAFC9ajqApY4We4w5fCyBdTwRMAP/B8IvWlrTD8NHJw3uqaK0ci4cF/q5FoDjx+iA76J71hrzdkf/nnTjMAAr3Y5TSKLR6CgA42wtYrwENi7zJtEetzJyHyHQd22u8m2HERGOtftMTqCLWNFrbtyfQ9yzePHiHjeuVawOX/TmZgC/WNFQe8fQkk1nEehbCF4ROCg2MnBVTVPXfC8ubkbrGqD4NgCj//VPSApYwpbDF725uXNO1c1MGHDXfGGhM1eeNe5HE+9b85zuJIVAClg+EY/Ha0kZvwSxJYWr/GLgZOJQuxlLfi/Tmv5/8Okn04UmHk9+AcwR3TkOpL+44MsClpHfF/2bwGgD8DeE1F9aMhnXP4l12+zpsyt3GN1X+/4nVvOsNSLazA6+R1lSMRR5ASuM8DTb3zri5Zm21BIv8uzJjCVNu2v8fMoe298yzYqy97Y8KduR/KZ/ftLdAO5eNWeCaZC6koHTIC9yfYFAi8J9fRePXbRug9vXTiQSY1nRbWD+zF7vzXjL7XuK4MuWhW8N9WYvBVClO4sHiAzjh9j1HCkOQApYmkUikSEVZZXfBuM7IJTqzlPEygD8xIwnPhHuDZ2bejple86N+FAkEikhxg905xgIxYY/ZkztBUMdS3Zf6zPuBx3wxWEWwFYCbWGmtwyl3kgvT78BH3da7c32yp3fIKbDdOcYgKO0bsdj7nD0npFQB6DJ9TwFRBmYZre5k/J5wh/D/pY7xvOeZBmk/lOCj7S57C2ZpeN/NQs7MgAy/XNeLmHgKwBsz+YTrlhLhIurF3T+xYNrkxmr+yrn+McA9n367YFfowjxbybdtbJ71ZzxPySiX+nO4gUCPtl5TpVVfW9XSncWv5MClkbxePJMYvwUkBkBvsE0K1uinonH6+a0tCxr1h2nUA0pG/oVBhfIQELN27v2i2xny8H4Xltr6nUv0viJZVmHZHvVt3TnGKCw6lFHA9DVGu50u8Ys7Kp8+b3HzTPE9oeKcy6UvwIW2e/S7MmV+vKUvcrSyqMU7H2Qxz7uJhP/rrqp6zUAl61tOOyHvSXhLxNwKexu0RVOMQH3og+XVy/qes/ti8diMw8nZOcDPPPASZRsIRSOTMiu/nVXSdXlDBylO4sXWNEPAdjurC42cgqhBolEYnQ8lnyAGPdBild+NJ6YlyZiia/rDlKIotFoBYO/pzvHQBFwTP8n/75jALU2l+xoa0sVxQvDXJ/6Hvb3Ca/P6JyDxQb/0+HSyYlY4pOuhik8tjs0+zg/BaxoNFoB+6cTr3nqqSfe9SLPYCkHW6b9vB1S7NvYRes21DR13dyzsXwyg78Ihi+LqgHyJhN/rLqp6zy3i1eWZYXNaPIyg7P/IODAxSsAHGLpwBKO0CLkGPR93Tm8w/HOxqpif911QFLAyrNYLDmbc/R3Aj6tO4vYrzCDbjFjyTv9WtzwqxCVfAOFVZgtKysbZnfbiuei0Znj2f5pKy+iwLYBOhGLzaxhxtd057BD51bVTCbzJoD1TtYq0DdcjlNICMAxNte8s3z5E46+13aFQqFjAIRsLvNvwcewX8BiksJHIZuy+PWemqbVd09Y2DWN2UgQ8DCKuOPTA1kCbikN9U2vWbD6CbcvnpiRmJ7tVW0g/ByEyoFm2rlzZ6fbWUTxqG7q/ANAz+rO4RUGbuJ5UqPZH/nm5EkkEhmSiCbvMHYdpS7t0oVjbkX5kEfj8fgw3UEKgWmaIwF8U3cOuwxWvpuDFYKyP8Cdffzm1EUGZa/Drrl1hUP7SYR4yskyAmYmoomPuh2nECSTyYmw2eXHyN98KVL2tzfmdT6XXWy/gGUY/j1RUdhTs7AjU93UdYaR46MIuAXATt2ZCtwLIIpVN3Vddtg967e7eWHLssrNWHIeh+hpACfZWszobG9v73MzjyguBDARX607h4emdb5a/QXdIfxMClh5EI9bJ1WUDX2WCRdCTl8pPEyziMP/F4vFxuiO4nuKrgYwUncM23QXF/aCjJyTEwgD/2YuFrOOBeNs3TnsMgCtjzEiWux0LRP9/pRTPmq3G7Dg5XKOtrTlrSOIHWy5Y+Xr5wi7f5+eHTt2vOZJEqFN1R9Wv1rd1HVZri88GeAfAnhHd6YC0w2mq98eemhkwoLOp92+eOLURDzbq54DcC1szqwDAJDjmYxCfKB6QddiAGndObzD1z0zV3YA7YsUsDyWiNV9lVi1AOy7LUrCDo4YHH4yGrWO0J3Er6LRmeMBKqhtXR8g+3NuvMZOuhH83F3hEgN8I+xvm9KOgYPj8bi+7tuQegDOt5eOLw1nfw0PXzNYljU0Hq+r9+r6TpCDn0GifHYE2e/AMnxa5J4VmTUCQLW9VfSydHIE16RFK9dNaFr93z0by6sY/EUAL+nO5HdEaFW53IkTFnZef9J8d382Zk+fXWnGkjexQWkMYoA2g2T+lXAFk/qu7gwemjJ62/ov6Q7hV1LA8kgkEikx48lfMng+nHxCIfyHMClEalk8Hpdi5F4YlPshgArdORxh+6f9ec/+zKQssoGeB2Oalgnw6bpzOBfW9jhrbm5eC2AQJ6vyf5ix5P80NDS4XjxMxpLJbK9qN4CT3b72YJCTDqe8FrBwrM2vzxplhtOB/p7qrshOg80OdTmBsDi8PyeruqnrWIb6mMzJ2qsdDFxV1duVnPiHta7/jMfjdfU7hna/BOBKDPK9o0GQApZwRc2CNS0MPKo7h1cIuHbN3HFDdOfwIylgeeCUUz56cHlZ5V/BuFh3FuG6ccShZYlEwu5g30CLRq2jCHyO7hyDMNZPW0QtywoDbO8TTsK61tbWtz2K5A+sbtIdYTBI6Z6DRbcN8gpfXrt6/SMzZnz0UDfimKY51YwnFyggBWAqWHW4cV23OOiCZGbOS5dINBodBWCszWWvpVKpbi/yDBYpDkw3mfAGAVzTtGZJdVPXGYbBJxAwH4AvH895RfhrFrljapq6bqZFyLl5adM0R5qx5J3E/CiACa5clJVsIRSuMQhXIbiHF43LbgtdpDuEH0kBy2WJGYnppaG+pwd6lKwoSIdyjpYmT00erTuIX4RJ3QwgrDvHYIQ45GTmlCdyudxU2B1SHvAB7vF48lNgxHXnGBRirVtVd/ZuewBA1yAv8/GSUN+LZqzuotraWifdxUYimvhoPJb8I5SxAoxG9HfeEMg3Baz6+voyEKbaXPZWS0vLVk8C7SEUKrP/WPLxcwQ7OLRCEQe641TsW9W9q/9R3dR1QZZLJjLwfQDv6s6kwSYGLqhe0PXJyU1rV7l9cTNa1wBlvAJgrpvXZYOlA0u4pnpB1wsA3687h3f4u2+dP/Eg3Sn8pqDfcPqNGTVPZ9B9No6SFYXrUGXgsVhsptnautT1Fw6FxDTNGaxwhrPV9M1M67L/52aeWZFZI7rLejfZXcdkHAfA9WOmnVCKptk/7SHQp3EZxHSds10jtCLTumw6XP6EzozVLQL487YWad6q2t7e3mfG6n4A8J2DvNQhAN82csTBV5uxxD0G6JHKEZXLFy9e3LOXrzVisZmTQuiLKhh1BD6DgUP39vjuY8M3BazNm3cebdh8jZTPLW2kctPY7pkwvp6RR3a3Q4IUDjFPtWa5mSJHxj/b2paudvOawjuTF761HsC81+qPuLF05M4ziXAVmAL/4SIBD7OiC2ru61zj9rUTicRYVnQbmD/j9rUBgIikA0u4ikDXMPA5AEEcej7S6Mv+F3YdmiD6SQHLJWa0bg6If49g/vCIvasKIbskFovFA791a39ydBPI0emaa3f2bPuV23GWtC/ZbMaT68A4zM46Yr3dMbtzNDw6wNtpErHEeQxn2++Y+Bp40l7Or9heQphqWVa5zm1c4VL6bbYX33DpYJGxAH1bAd/eunl7LhFLvsWMd2HwVjAdBNAwgCcB2VIGgfZfgOSDDqrodCGTKwzY39KWz59BdlLw8XeR234HLOH3IHd/tEOMegBSwCowUxa/3gPgbp6HezteHTfTgHEZAwU8L3EfCOtI4ZLqhV1/8uLqZqzuq5zjHwMY7sH1AWBbc3PzBo+uLYpUdVPXa6vmVN1FhK/qzuIFYnzjzTmTbu8v2AvIFkJXxOOJC0F8L6R4VXQYOCKE8MOWZQ3VnUUHM2qeDiLLyVoC39je3r7D5UgAAGa8ansNwTeD3J0Mj4bC8x5E0a62traUma5xuPyFlpb0A64Gep+DxxiAcK47p3V+XiqVyhrgi+D+EOQQA0eAMANMswCc1F8kG+g2w3X76ODSwskpoEzI25Y2RwPmDX8WsJLJZDUAX2yRyMHw5fdIDAzNg3p/TpZS6kQC7gEQhJMqmYB7qBe1XhSvYrGZh8djySX93bleFa8AyAB34Q1imgdgp+4cHhkaRvYq3SH8RApYgxSPJ75DTHdAvpdFi4GTsz3qfi9O5/I5A2T8wOHaNVnO/trVNLshJ90xwDEOZ/q4zsGb51yWsr48XWywRo445BIQJjlabND34NVwz5By8hgDG4b2Qmm6Nb0UwB26c/wLhm+2DwIAGfZnMhn5KxARA7W2VjC2ZzKZld7EGZxczkHB3hsbZftgcEy8b81z1U1d5+X6whP652S9pzuTQ28x1Ozqpq7zqhd1ufp3sCwrbEaTlxmc/Uc+ZvcyINsHhScm3Ne5BmB/va5xE/FFK8+tcfZaOICk6OIcmbHEzcR0g+4gwgcI9evWrP+J7hj5ZEaT5wA43slaZlzX1tbm4Scl5KS4UHrw8IPd2FY1KPF4fBgIE+2tote9/X7qEY/HhwF8pbPV1J7JLHvY3UQfCofDjgpYpHmQ+/uGbCv/NgPP6c7xASLfbB8EADDZLar07Nix4zVPsuzBOtWqgd0uiV3zr3x5UhMp+OJnIp8zzET+TFq0cl1NU9e88r6eGgYuYMDRc7cGioD55X0902ua1ixx++KJGYnpuV7VCsLP8za7l2X+lfBOmPlGAFt05/BIqZHNXa07hF9IAcshM5b8GUDf1p1D+AczLk/E6gK5/3pPtbW1pSCnAwV51aYt7/7O3UR73sJZd0zO0P9Gijl8LGBzphhxILcPEoeuBDDG0WKmq+H+NrkPpFKpTQBsz75j9sdW1ceef2w7KHc6fDPvh31zGEY0Gh0FYLy9VfRye3t7XrYqZcP253P5+pAHwx8dWOTrIfdisMYs2rCtpqlr/oSpXccwq08B5HpRyDWMFwmIVjd1XTBm0YZtbl7asqxyM5acxyF6moGT3bz2gRikZAuh8My4hWveYeBnunN4hvDFlWeODfwhFQMhBSwHEvG66wBcpjuH8B8G35aIJup05/DaQcNHXQRgsqPFTNetWLGi191Eewg5mk8EKL2nxAGA4WS2jfLxm1OHYrHYGACXOlzemmlL/dXNPPvgpFCq/TH2vpaWljUKxukA3tGdhZm7dGd4Xxhh+z+D+TyBMGiHPDj4+3iBwXmbYSb0oXlQNQvXPDShqfNjylCR/jlZWd25+vURcHPPpvKTqpu6nnL74olTE/Fsr3oWu040y/vIBGaWApbwVEVfz0/YwYeLBSIUMkLX6Q7hB1LAssmM1V3KzP+tO4fwrRImuj8anWnz0/vCYVnWUCL6jpO1BLweLjPudjvTnsLh8JtwMLjVD9u7iO13Vxh+fnPqkIHQPADDnK1Ffp6jnQ1yH+Wn54fW1tTfFYyPANB7uo1BvpmBpRx0BOXzZ5BZ2T6BkI2QL58jIpFICQDtW7cBwMgF73lU7N/Ee9c8W93UdZ4yQu/PydqoMc6TzMYJ1U1dV/WfquiaSCQyxIwlb2KD0gC0dXBQWLYQCm+NWbRhGxH9SHcOrzDhc51nVc3QnUM3KWDZkIglzgf457pzCN8bE6bsov4X5oGT6+Nvw+G2LgZdl0qlPP+kc9c9HLxQ8sFJhEz23zznqCRQb7ySyeQkgP7T2WrO9A8p9xwZjg4LgGFktT/OdtfamnoxnDNOAvCkrgxEyjdbCMn+/CuovG4/s5+PKLfCiySDVVY2zM5JlV7iUHnIl98j4b2J965aW9PUNa+ivLuGgQsAh13czuxg4Krqvi6zZmGH64/BeLyuvqKs8p8AroTe9328Y8eOlRrvL4pEriR0GwB/zdV0D7GBou/CkgLWACViic8x6NewO5tGFCUGouWlQ6/XncNtiURiNDNf7nD5q+FSWuhqoP1wdBIh47D+rWvaEGCvu4KxvbV1aaDa8jmLG+HwTS0x8jbkUjk7LAAA+6qABQCp5amucKnxEQbfCg3Dvon804FFDrbxlmQpLwWs/g9Gptpctra5uXmDF3kGy3DQceqRzv65dqKIjf7tO1trmrrmV0/tOrp/TlaLx7dME3B8TVPXzbQIOTcvbJrmSDOWvJOYHwUwwc1rO0JY397evkN3DBF8k+5a2c3AD3Xn8NDslXPGe35qqJ9JAWsAYrHkbAYtBBDSnUUUDiL+ViKW+LTuHG5iRdfC4bYuJlyTj+6r9yl2VlwwVKm2bYTxeHwcAwfbXPYifHq6mBOmaR7HQIPD5Y83tzUvczXQfuWcnUTIhvatqnuTSqW6W1qXyxd1AAAgAElEQVSbL2Uy4gD9I4+33tHc3Kx9Dlc/YqDW5prNqeWpvAzDryytPAo2i7t+nn/lpFjoEd9+j0T+7TYny2QYJ3kwJ2sTAxdUN3VZ1U1drp9eakbrGqCMVwDMdfvajjFk+6DImwl9Xb8h4GXdObxiEN3IRdxUIwWsA4jH40cawB8ABHI7mPAUMeiuWGzm4bqDuCGZTE4Cw+Epi7SipSW9yN1E+2cYytkWAENp644xlGF/eDTlp/Mjb5TxYzj8t4nJuMblNPvV3d3taNaaHzuwdtfSknoy07rsRBj0KYDaPbzVRgDzFYwZ8PDESDusU60aAMPtreIXkKf8yskhDz4uzjjZMu0JOYFQ7ENNU0d7dVPXeSoUmkrAzQAG1alHwMMUxrE1TV3zyeXnjUQiMdaMJ/8M4vsBjHbz2oNFQKA6xYW/0SLkmCnIW+1O6Tyn+gzdIXSRAtZ+mKY5kjj0EICDdGcRBesgg7J/jkajFbqDDJbK8vVwuK2Lia9BnruEFAxn27sI+rpjDPv39nN3hV39J3h+zMlaAh5taUnldYZTe3t7H4CVDpZOLYDnBJXJLHso07rsZBhGAsB8uDHgmLAO4N8x4XMbN797WKY1fUFra8o3p7/1hZSTn//8nUAIsj/A3dfFGeWLAhbv6mQVYp8m3rPqreqmrqsqyrsnMHA5ATbn9vF6Bn+huqnrjOq7u9zu2CQzmjyPc7QCjM+4fG13kAxwF/lVvbDzPgKe053DMzm+nucVZy0nrDuAX1mWFc72qkUApujOIgocY3qISn6OXYNBC1ZYhb6bDWcdzRdqyWTy/slbd/e2JysqKmx3vxHRTi/yDERPX+lvS0t7/mRnzZAtQ/SeHueinlzpi6WlPY46Fnv7+rRsQWPKWURUbnddWbjMQeeWFpzJpDIAMg0NDRetWbPhBChlEXAyE6bQrn8jh+5j7XsEvMLAC0z8AhG3ZTKZZ+GTbqu9yWZ7UiUlJXYfg/k7uSysfgbmX9tZonK5tV7FGSwjTB9RSmnfBuHn75Hwl9G/fWcrgF/wPNza8cq400DGdwiI7m8NgRZRmL9Wdffqd93OE4vNPJyQnQ/A1zNxmKUDS+QXAbyK+Bpiekh3Fk8Qju16paoR6LpXd5R80/6iwa/MWPI2ABfpziGCg8Bfam5tvkt3DiGEcFM8Hh9W0ltSmS3LDun/rY2ZTGYTfFyoEkIIt3ScU51gxZcRcBqA3T/QeJIYV1Uv7HJ9NqNlWeFsj7oYwPUgVLp9fbcRs5XfGZVC7NLRWJ0BOK47h0fe3No34ujaRSt6dQfJJylg7YUZTV4Mwi915xCBs4Mpd0pLS4sc1S2EEEIIESCvnX3E8FLecYrBxggQnvdiQDsAJGYkpiNEv2bgZC+u7wlD1WQyGd+cNiuKR0djdRLg4BZPiS6ZsKDzNt0x8kkKWHuIxepONsAZOJz1I8T+0YqdPdtOkaOEhRBCCCHEQFmWVZ7r4WuY+AoU1hiY3rHjDx2yaNGinO4ghSSRSIzOZrPb2tratI22CIqOs6sWg/EJ3Tk8srY01DflsHvWb9cdJF+KcvDXvsyKzBphMP8BUrwSnuHaitLKW3SnEEIIIYQQhSEZTcayvepZJv4OCqt4BQCrpHhlTyQSGYIcPWgYZbW6swSBQXwV8nyYVB6N7cmWfF13iHySAtZuust67gBhku4cIuAI/2nG6s7VHUMIIYQQQvhXJBIZYsaSNylCM4CjdedxgiAD3O2IRCIlFaWVf2QgSsy+OKm10FXdu/ofBLJ1SFIhIcKVnQ1Vo3TnyBcpYPWLxxMXAjRHdw5RLPj2aNQ6SncKIYQQQgjhP/F4XX1FWeU/AVyJQn7PxnhTd4QCQuVlQ+eDUL/rlywdWC6hnLoaQFZ3Do8cxGH6lu4Q+VK4T4YuisfjtcT0U905RFEZGiJ1fzQardAdRAghhBBC+INpmiPNWPJOYn4UwATdeQaNSDqwBigRT/6IwOe//2sCHHdgvdEweYQroQKi6g+rXwXwe905PEN86cpzasbqjpEPRV/Amj19diVxaBGAIQf8YiHcNS1EYSmcCiGEEEIImNG6BijjZQBzdWdxj5IOrAEwo8mLmfEvXTQMHOv0eiWlvX/raKx6o7Ox6s5VjeMbXjv7iOGDT1nYwmF1HYAe3Tk8Ummo3Pd0h8iHoj+F0IwlfwHgUt05RBFjnJ1pSzfpjiGEEEIIIfIvHo8PA4fuIeDTurO4zlAnZTKZdt0x/MyM1s0B8b3YS3NJb7bkkKeeeuJdu9fsmFP1AuhfCmA9BLQo4LEQ+G/jm1b/gwAeTO5C1DGn+mcgvlx3Do/0Moyja5o6Al00LuoOrHjcOhXAxbpziCJH+JVpmlN1xxBCCCGEEPlHHFoYyOIVgFwuJ1sI98M81ZoF4ruwj/flZaFeR11YZGDVnpdiYCYBNynQc52NVes7G6vvX9VYNbfzvKrxTu5RiMLIXc/AVt05PFJqQM3THcJrRVvAqq+vLyOlfgMgpDuLKHb0BIANulMIIYQQQoj8SsaSSQCn6c7hkc1tbW3v6Q7hV6ZpRmCoPwMo3dfXMMjZNkLGiwf4itEMbiDgTs6iq3+74S9WNY6b9Vr9EWWO7lkAxi1c8w6Bf6E7h1cYOLvrnPHH6c7hpbDuALps3bJ9HgjH6M4hiloPGFdm2pbdgiJs4RVCCCGEKHZMOCOorwIZcgLhvsRiMw+Hyj4CYNj+vo6czsFivGhzWNBkBi4lGJeWjeze0dFY3crgJYCxpKapI1BbQPv6yn5SUtL7NQAH687iAUMp+j6A/9AdxCtF2YEVi1nHg/FN3TlE8WJgJQxVl2lL/wJSvBJCCCGEKErMOFp3Bg9JAWsvEonEaAPZRwEceqCvZWJnWwiJD9SBtT9DAJ5FwE0E9UzH2VVrOxur7l7VOL5hVeOEkYO4ri8cvujNzUT4ke4cHvp015zxUd0hvFJ0BSzLssIG1G8AlOjOIooU488lpcYJmUxmue4oQgghhBBCq8m6A3jFIMj8qz3E4/FhnKO/Ahjg/FuaBgcHr+3cWPFPAFm76/aKcRgD5xLofoLa0NFY9UxnY9VNqxrHzXpmbqQg31NnS8K3AOjSncMriugm3Rm8UnQFrGyv+iaAE3XnEEVpJ0AXZNrSn0ulUpt0hxFCCCGEEFoRgBrdIbzCTFLA2k0kEikhDi2CvfeiI6wZlu0h61MWv94D4tfsrhuAEIAIA1cSjMfHbFv/Xmdj1UOrGqvmvtk4tmAey5PuWtkN0A26c3gouapx3CzdIbxQVDOwYrHYGADf1Z1DFCN6BUbuzEwm8w/dSYQQQgghhH7xeHwsGEN05/AMk2wh/BBVlFf+GoyP212YNXAsHHQLERsvMtjrLapDGTidgNPDCKGjsepNApYo8JJeqvjblAWvb/H4/o69PXTMr8dsW/9NAIfrzuIFgnEjA09QwMbVFFUBy6DwdWAM153DpxjA62C8DuJ3AGwA0wbQBw/4CgDlDDqYwGOxq915CorsMeQM3xMuNS5KpTLbdCcRQgghhBD+YOSMSRzg/TBs9EkHVr94tO6nYD7PyVoyctMA/NX2QuYXQWhwcs9BmMzAXALNLePubEdj1T8YeBgwHprQ1PGsn4opJ81v7+ucUzWPCffozuKRk7oaqz6Dpq4/6w7ipqIpPsRi1rFg9RXdOXwkx0CLQfywgvFMRXfJs0val2y2c4Ha2trSUcNGHcuGYYK5DoTZAIZ6lLcQ7SDwxc2tzXfpDiKEEEIIIfyFiQLZ+dFPDR8+fKXuEH6QiNV9m8H/5fgCimodrTPwguZyURhAhIAIoK7tbKza0AlKKfASI4xHqu/uWq01HYCqI7uaOl+p+hYIx+nO4gUF3MAW/pdSLs1D84GiKWAZUD/Brj27xe5JZtyVVSUPLF/+xPrBXGjFihW9AJ7t/+8Wy7LKc725jzPhQjB9HA4GDgYHraCQ+kJzc/NLupMIIYQQQggfIkzSHcFDaxYvXtyjO4RuZjTZyOBBDdRmgrMCFmMwJxF6YTSDGwho4Cze3274sIJ6qHfjkOYpi1/P++OF5kF1NNK1AD+Q73vnAwFHdo6rPgfovEt3FrcURYHBjFqfAKnFunNopAh4mA3jx5lMKpOPG8bj8SOJQ5cCOA/F1pXF+M3O3u2Xtre379AdRQghhBBC+FMimryLCV/UncMLDKRbWtN1unPolIgmPspEjwIoHeSldmRa08MAKDuLeB6MzlertgCoHOT982EHQK0MXgIYS2qaOtrzefNVjVWtBETzec98IWBV98byI3UUCL1QHAWsWDINIKE7hx6coRwubl7e/LyOu0ej0VEhKvkBgAsQ/A64bUy4sKUlvUB3ECGEEEII4W9Bfo9CjN83t6XP151Dl1is7mQDvBQufZCvED6itXXpG3bXdTRWPQ3gJDcy5BVhHTEeV+CHgNCSmqaOjV7erqOxOgnwMi/voRMDl9U0dd2iO4cbAjw2cJdYrO5kBPQfhgPYCMblmdbmOl3FKwBoa2t7L9OavljBOAmEFl05PMd4iSl3qhSvhBBCCCHEAE3WHcArTCjaAe7RqHWEAX4ILu5CIco620YI9ts2woFhHMbAuQS6n6A2dDRWPdPZWHXTqsZxs56ZGylx+3YTmjrTAD/u9nX9goCrN3z5kGG6c7gh8AUsA/i27gz5xsBShexRmbb0L2Cz1dQrra2pv2da0gkCXQSgW3ceNxHjV+EyI9LS0rJCdxYhhBBCCOF/lmWVAxirO4d36E3dCXRIJBJjDVKPAzjUzesaoGMdLSSjMAtY/yoEIMLAlQTj8THb1r/X2Vj10KrGqrlvNo6tce0uyvgufHRKostG7+yuuEx3CDcEuoCVTCYnAfwZ3TnyiAHc0t2z/ROtra1v6w6zF9zcuuwOgxEDEIR/1LaCqbG5Lf21VCoVqKKcEEIIIYTwTk8PJiLI78UMKroOrBkzZgxXOXqEgIluX5vBQRnk7oahDJxOwJ1hhFZ2NFa90dlYdeeqxvENr519xHCnF51wX+czAP7iYk6f4W91nTf+YN0pBiu4T5oAVA7fRPDnLr2vlwlnZVrTl7W3t/fpDrM/6bb0czDUSQA9rDuLc9SuED4h07Zsoe4kQgghhBCisBiGCuz2QQBg7gvCh9UDVltbW1oSKvsjASd4cgMmZwUshRdcTuJHkxmYS6D7y7j77Y7G6sc751Rd0XXO+OPY5sxvJuO/4ZMdTB4YkcvRlbpDDFZgh7hbljU026PWgQri1IXB6iHw55pbmx/RHcQmw4wl7wAwV3cQG5jBvxw+YugVcjSwEEIIIYRwIh5PXEJMt+rO4ZHuTGt6CIK7HWtPhhlP3gdGg4f36AmXGkNTqVTW7sKOxqp3ABR8541DGwiUUuAlRhiPVN/dtfpACzrnVC1iwufzEU6DboN4StWC1V26gzgV1h3AK9le/kyxFK9gUENzJl1oxSsAUJnW9IWJeHILM76lO8wAbGHCV1tamu/XHUQIIYQQQhQuYkzSncFDb6F4ilcwY8n/53HxCgDKenpwBICXHaxdASDpcp5CMZrBDQQ0cBboaKx6iYCHFNSS3o1Dmqcsfv3fGhKI+HoGfQ7BbPYpVzCuBnCh7iBOBXcLIalG3RHyQMGghkxm2UO6gwwCN7ekrwAwT3eQ/WIsDyvjuJaWtBSvhBBCCCHE4BAFtoBFKJ4TCM1Y8nsA8jIcO0w5hycRFsU2woE65v1h8GUju9/raKx+fFVj1ZWrGidE3v+CqqbVfwfoCZ0hPcX8n6vPGXek7hhOBbIDK5FIjOYczdKdIw+uK/Di1Qcyrenvm7HEEID8dmokA7h145Z3r1ixYkWv7jBCCCGEECIAmCYHtkmJA3FY0wElYolzGPhBvu7Hu04i/JPthcQvgoPYTDRoQwCeRcAsQKGjseotED1G4L8BfDszglpPCOeUcQ2As3UHcSKYHVg5nIWAFuc+RA9nWtN5e8LMh0xr81Ug3K07x242E/gLmdb0ZVK8EkIIIYQQ7uHAdmAxBf8EwkQscRqDfod8bjMjOOrAYhUK4kmEXpgE5guY8WdmBH3XzZldZ46fqjuEE8EsYIHm6E7gsW19ufBXELwTEnjjpne/ysBS3UFAaDHCmNbc2vxH3VGEEEIIIURwWJZ1CIDhunN4hoO9hTARTZzCTH9AvhsmlLMCVjYbfgGBbffzTMCbYRBSRmGeSBi4AlYikRjNwKm6c3jsp8uXP7FedwgvrFixoreip/SzAF7VFIFBuClcYljpdLpTUwYhhBBCCBFQuZ7cZN0ZPBXKBXYLYXJGcgoTPaTlsDDC1Pr6+jK7yw5f9OZmAAc8fU8UGcK5b501caLuGHYFroDFWcNCME8MeN/bTLmf6g7hpSXtSzYrGJ8DsCPPt36HCadnWtLfcXJErRBCCCGEEAdECHQBq6+vL5AdWPF4fJwK8eMAxmiKEN6+abvTbV8yyF3sqSQU6rtCdwi7AlfAAqmP6I7gJWb+VUtLy1bdObzW2pp6kQlz83jLZTkOH9/Skn40j/cUQgghhBDFhowgF7DeWb58+RbdIdw2KzJrBHH4UYBqdOZgYmdzsAgyB0v8O6Yvd5xVPU53DDuCV8ACBbqABUMFfaDcB1pa0gvA+I3Ht1HMfN3Y8Yd+tK1tqbTWCiGEEEIITylGYAe4E4I3/8qyrPLust6HAD5OdxYGOSpgAbzC3SQiIMo5xBfoDmFHoApYiURiLICjdOfw0IstLS1F9eSzs3f7pQS87tHlNxDzJ1vamq9dtGhRzqN7CCGEEEII8QEK8gmEARvg3tDQEMr2qSYACd1ZdqFjHS1jOYlQ7B0xvvrM3EiJ7hwDFagCFmcD3n0Ffkx3gnxrb2/fQcAFcPvkDOIlfbmSac1tzX9z9bpCCCGEEELsDwd4BpaBQA1wX7N63c/A+IzuHB/i6U5WlQzN/hPBO8FeuGPsodvXn647xEAFq4AFOl53Bi8RjJd1Z9Ah3ZpeCsJ8ly6XA/D9seMO+0RQT3IUQgghhBD+ZFlWGIRq3Tk8wxSYDiwzlryWQF/XnWMPk+Lx+DC7i8bNX7MDAdzeKdzBjHN0ZxioQBWwDIdD7QoGq1d1R9ClL9vzbQAdg7zMeiaqz7Sm58mWQSGEEEIIkW+9vUYNgLDuHJ5RFIgOrESs7qsA5unOsRdERMc4WskyB0vs02lvnT/xIN0hBiJQBSxmHK07g5c4xEVbNV++fPkWJrrQ8QUYiynE01palj3uYiwhhBBCCCEGzFAqsPOvAEAZRsG/XzHNujMYfLvuHPtCTNOcLTRkDpbYlzKjr+/TukMMRGAKWLOnz64EQeuxpl5TSnXrzqBTS8uyxcT4vc1lWQBXZdrSpzU3N2/wIpcQQgghhBADYnBw518BuZ6ezYPdMaFVPG6dCsX3wcddcuywgEXgl9zOIoKDGJ/QnWEgAlPA2jF8x1EI0N9nb4jIt0+k+dKTK/kmgIEWojoMRl2mNX0z3B4CL4QQQgghhF0U4BMIgc729vY+3TmcisfjtcTqEQBDdGfZL3Y2yJ0Mlg4ssR/0cW5ASHeKAwlMQYQUHR30CoWRNQ4BsEZ3Dp2eeuqJd+Px5BXEuGu/X8h4KIe+8zNtbe/lJ5koBrMis0bsKMtWh5CrUUxVRDiEmQ42wKMYGAUDo8CoAPD+HvKhAPY8lrYbwE4AYGAzgI0ANhL4PQAbibAOjE4wOhBGZ3Nz89p8/f2EEP/OsqyhPT2oCiN3qDKoipgOBXgMwMNBVMmMSiIeAaahACr7/9sNbcWubmAAaidAmwHeAqItYGwCYxMRr2MV6uJQX6dSqqOtrW1nnv+aQoh8UZgM0h3CMwU7/yoanTmeOPsogFG6sxwQkaMC1s53K14uG9mdRYBqAMJVI1eVjTsOWPOs7iD7E6AHrzEu8E02BiYDeF53DN1aWtJ3x2PJ8wiYuZc/zgK4PtOWvg5yVKxwwLKsg7LZ7JG7iuJ0FEBHApgCcHU3eocbABgE6n/xScQfPvPYfAqivfyKebdf5gAzluwBaCWYV4DwEhNeZDZW9PRsfaWQP+UUwkcM61RrQl+IpxBjCsBTwZgKwiQwqrO9qjJE/T/3DHz4g04A9//k8v7eje7+xEAf/v9/uQwBhgJxCCEKwYwlNwDoBOhNZvU8wXhRUej51talb0H+bROisBECu4WQuDBPuZsVmTWi2+h9FIwJurMM0KhEIjHW7oecUxa/3rOqseoNAo70KpgobIYKzQAgBax8YOKRQa9fMdFxAB7QncMHOKRwiTLwdwClH/4u3iLwWc1tzU/piyYKSTKZrOYsn6gYJxJRBMAJ2V41DjB2ezrR/sRSBvCRIBwJ4LPEAEGhoqyyz4wmnyUDbayoNYdQa1vb0tW6wwrhZ7W1taWjho06FiGcyIwTwXQiCNOzUBW0jzqTJqN3/ccnEtHnAYaBLMxYchsYKwh4DsQtFKZl6XS6U1tKIYRtBEzS/srCK1R4BaxoNFrRTT0Pg511NemSy9E0ALa79AlYASlgiX1SJwO4Q3eK/QlOAYvpENL/RtNbzBaA7+uO4QfpJ9P/NGPJHwP4HgAw8CCF1JeaM5mNmqMJn6qtrS09ePjBJ7HBcVaUAGGGymIMduumKjAlIMxgxgwQXx7a9ea2A+AnmOivROrxjPw8iCJnmuZIIGRCcR2ABIDjGSjdvfupwAwFYQYDMwC6kLNAPJZcSYQ0FJYhpFKZTKZgt/AIEXQzZswYzsDBunN4hqmgnn8aGhpCa7vW3wvA1J3FLgOYBuAxu+uY8CIxPutBJBEIDk+4zKPAFLCIeVQBvhC1hyh2yikfPfipp554V3cUP8hx3/UhlHyGDb6jpaX5l7rzCN8x4nHrRGL1cQAfA3CKAirAVIhvWgdqAkBfIsaXwEbOjCWXA1hsMB5Mt6Vf0B1OCK9FIpEhFaUVM0HGxwCqg+JpAAf7gBdgIhgTQTgPyoAZq1vBUA8yjAdaW5c9Ax+0kQohdikzyg4P8h5gNqiQOrBobdf6O0GFWcwhhsOTCOkl+WdB7IfvtzgHpoAFCvCnGR8qLQ1nzwRwu+4gftDW1raztrb2hBUrVvTqziL8wbKsg/r61GkEfBKMj4HVaN2ZNAoBiAGIKcIPzGjyJTLoD0y5+zKZzKu6wwnhllhsZk0IuU8CfDoDHwFQsetPivUFOtcSqJbA3zVjydUAHiTmPze3Nf8fZH6W0M8wTXMEAORypUNCod4ypUrJMHoPOtDCgWLmbUS0zxmRfX1l20tKevb62jEcDm9NpVJZt7LsKWdgEgX4qYm5t2A6sMxY8gcA/lN3DqeYnBWwWNGLFOQHoRisUasaJ4ysaerw7S6OwPQhmLHk84CzH+QC82qmNX005EWoEACAWCw2xkDJfwD8Wex681p6oDXFjoHnwHy3QvbuNjmpUxSgaNQ6IkTqLBAawCiouSX68CqAfqcQvqu1dekq3WlEcFiWFc7tzB3DBh1PBk2E4tFsYDyAMWCMBTASu07n9P2/z4bCMekn0//06vrxaPJbRPixV9fXirE905YeqjvGQMTjiQuJyddzfgagJ1xqDLVbcH1mbqRkzLb121AAP49CjxyroyctXPOy7hz7EpwOrGD9XfZnqhlNnpVpSzfpDiKELpZlDe3rU58jxrkALIBDujMVEgJOANEJIZTcaMaT9xsKd6bb0q26cwmxP6ZpTuCc8QUinAmokwAUb5OVI1QDYJ6B7DVmLPkEgX87dMTQvyxevLhHdzJRWEzTnExMM6EowoQTs71qOkJUDgDM/UdzFubPJvdR30ovb0CESV5eXytCQXRfJWKJTzNTEEaPlPX04AgAtgoNJ81v7+torHoNQK03sUShCxmhYboz7E+Qij453QHyhnBTJBJ5oL29fYfuKELkkWGeas2EkTsv26M+S4RK3YECoByM8xThPDOWfIFAtw4dMeRueUMr/MKyrPJsj/oswF+Fojqi4HSOa2QA+BiDPrZ18/b18XjiFyUloTtSqdQm3cGEPzU0NITWrl17PJRxBkCnQ3GEgQDt4/jA2ra2tp2e3oF4Mjh43zgAIPj/BMJENFHHoPuwa8xCwQuBp8FmAQsAQLQCzFLAEnvFUMN1Z9ifABWwKFeoH/c4UD2ktPJmAF/XHUQIr1mWdVC2R30RxF8H1OFAoIew6zSNwfO3bt7+QzOWvCNcavxc3tAKXaJR66gQqfOzveo/QThEfug9cygx3ZDtVd81Y8nfGmH8JJ1Od+oOJXyBkrFkQoG/snb1+jMAo39GVYBfa1MeCjBMvh+Q7JjPO7BiMetYhvoLgHLdWdxCBqYBWGR7neIVAa2jCjewvx8dASpgwbOBi37EhIsTscRfm1ubH9GdRQgvxGJ1UYP4kmyv+hwIZfIGNm/GALg226suNWPJ2/sLWe/oDiWCr6GhIbRu9brPMNHlYBXXnafIDAVwqcriQjOWWGCE6QfpdNr33RTCfaZpjoQKNQB8iQKmFdW/vcxeF2AMADUe30MbZv+eQGjNsKqyUI9i1zy2wGCHJxGC8KLLUUSQELztRB2kwBSwCKwC/JnQ3hCD7o1GrZPb2lKv6w4jhEsM06w7DawuBfOsIH/QWwBGAvhetlddZsaSt/Xlem5Yvnz5Ft2hRPBYljU028uNa1e//Q2AjpSfe61KAfqSyuIcM5b8nUL2v1tbW9/WHUp4zzTN40gZ32GFzwBclMOdmb3twLJmWOOyUGVe3kMrw59bCC3LOiTby0sAVOvO4j7lqIBlGGpFThluhxEBwTn4ekxRYApYKLIOrH4HhUj9efb02dHHnn9su+4wQjhVX19ftmXT9vOJ8E0onlJUn/j631AAV5aEy76YiNVdt6Nn26/b29v3eTy5EAOVSCTGQtE3sr3qqwBG6M4j/kUJgLkGwg2JeOLGUEno1lQq1a07lHBfYkZiOofpaih8nov9H1+DPO3Ayhm5w4P8LWbO+m4LYSQSGWg+Px4AACAASURBVJLtVQ8COFJ3Fm/QBDg4NmFcz5rXO0uquhGg7ZTCPQaHfP2BdWBKr0y8WXcGTabtqOy+G0H+F1EEVn19fZkZTV68dfP214nwKwBTdGcS+8A4jMG3V5RVrojHk5/SHUcUrkQiMTYRT/6Mc/QGM74FKV752Uhm+lG2N/eyGa2bozuMcE8imjjFjCUf5hD9HYwGyOtIhDzuwEKQTyAEuHJr5UrdIXYXiURKhpRVLgIQ053FQyWzp88eYncRLUIOjFe8CCQKnurZUtalO8T+BKaABcZa3RG0IXzWjNX9l+4YQgxUfX19WTyeuGTr5u1vgPBLAFW6M4kBm0KMB81o8n+tU62JusOIwpFIJEabseRNnKPXmXE5gArdmcRAUQ2Im8x4YrH83Bc262TrMDOWuJuJngRwGqRw9YE+Dr/h6Q3ICPIA9/U+2w1CFWVD7mTgk7qDeOxtx993wgqXs4hgWD1l8eu+Po08MAUsRhEXsAAA/KNYLDlbdwohDoDMaF3D1s3bXyKmWwGM1x1IOEQ4I2uol8xYcl59fX1wZ3qIQZsVmTWiv3C1CsCVAGx/Wix8gukTWVIvxqOJyxsaGgJxDH2xsCwrbEaTl2VL1MsAnQspXO2pu61tqafvJRQHtwOLvO5es8mMJ28A6Eu6c3iPH3S8klgGuYu98d1W4D0FpoAFKvYCFkIGcE8ymQzggEIRBIlo4qNmLPkMiO8HENxPIYtLBYBrt27e8Q/TtEzdYYS/RCKREjNWN7e7rPcV7CpcScdVEBAqiehna1avf9o0zYjuOOLAEtFEXbZXPQfCzyFbdveBVgFQnt4BHNjXPkz+KWCZ0eRlYFylO0cebILBP3S62FD0nJthRFBwu+4EBxKYApZRzFsIPzQml8WDs6fPrtQdRIj3maY5NRFLPvL/2bvzMLmqam3g79pV1Z05QAgBku6EUSUMYks6VXWq+phAMDKDrcAVcEIUvIKKitcJFRVEnO9FUQSBdIBWFESiGEJ1jSTYDvBFcEAT0pkYhECm7q466/sjUSGETjp9zlmndq3f8/jcRy/Z+4WmuuqsWnttJloM4A3SeVQQ+DXwvJ5MOnut67o6EFQhk8qcNbp57HKAvw9ginQe5T8CjoVnKulk9nJoN08kzZ8/v9lJZa9moiUAjpTOE2nMYXQdWNuBhYh0YKXT2beD8HXpHCGoEvPZxWLxyT1dYNTorSUAejmHehliKktn2BVrCljEpAUsbPtAuX2ouzU/W1Wf2traxjip7JXwzCMNMINAAYYZl1f7vd502n2jdBglI9uePcxJZe9n0E+glzI0ggQRrnXSmfvd49z9pcOo/8hkMke8uGHTQ9jW/aifCXfFBHtsJplMjgZg72uE5Y8dpdMdbyLGj2H/v+8MxkWFSuHXI1lk8o+eeZGAq/0KpexQi8W0gBWWmqmtkM4QGYQz06nMF6VjqMaVSWXOHt089i8APgdA5yM1EsIRxF7FSWU/pzNyGkcymRztpLJXejE8CuAE6TwqZEzHVxPeH3UWZySQk+p4H9foYQCvlw5TNwLuIDLGHAybOxVjRrSAlU1mjyLmu2D/Z05m4ouLlfyP/Fispavv8wBdDPAKP9ZTdY7xxxm3rYx8U5A1BaxSqbSGgGelc0QFgT7ppDrOk86hGks6nT7QSXX8jEELoQPaG1kcwJVrVq9fkk6nD5QOo4KVTmdPjVH8MWjButHtZ4D70snM57V4LaO9vX2Ck+q4Z/vRXb0sYRiCnuFEFLd2/hUAeJ4RO0LoOM7BnsH9APaSyhAWAl1RKhW+5+earV2rrm85fPUhTJ5DwDUgfszP9VUdIfqpdITdYU0BCwAY0NsU/oMA/mEmmemQDqIaAjmpjvcRxx4H+HTpMCoaCMgSx/6QTndoR46FUqnUfk6qo5sYdwM0XTqPioQYEX127er1d6fT6fHSYRqJ4zgHJ2KjygCfLJ2lHhF5TwS6Qc3eAe4ABqdOndQnsbHruvvCi90Htvh45n9cWSj3fDWIhelKeNMXrCm1dPVd0bpg9RFeLHYwAxcRcC+AgSD2VNHDWsAKH4Mfkc4QMU1M9JNUas4h0kGUvRzHOdxJZYvbv/HVBxa1o8nEvMhJZT8Fy95zGpmT7Og0iP8/gN8qnUVF0knEsbI7250hHaQRZGZn0vBMBeCZ0lnq1eDgYLAdRGTvAHcCVnZ3d9fC3retrW1MdcD7BcCvCXtvAd8qlvOfD2uzGbeu/Mf0rr4bWrr6TmmKDe7D7J1KwK0Angsrgwpd7/QFT/5JOsTusOphgmC0A+uV9jWo/uz4tuP12mTlOyeZPR+e6QWQks6iIi0G4Connf2J3pJa3xzH2dtJZW4B8Z0AJkvnUZF2ZNV4D6fTHRnpIDbLpDouZEMPAthPOku9IuDZpUuXvhDwHtYWsIDwB7i3tbUlRjePvQvA7LD3Dh/fVCznPyy1+/63rt80feGaX7R09Z3fMtg3mdlk9KihfYjxTekMu8uqAhYTaQfWzh21tXngpzNnzmySDqLs0N4+d4qTzN4Dwo8BjJPOo+oE44zN4/pL2Wy2RTqKGr5MKnMSPPM4QDpfUe2ufYn5fifZcY50EBs5qewnGHwDgIR0ljoXeAGGAWuPEAY9P2wnaEzT2B8AODHkfUPHoNuK5cJ7AbB0FgCgbtSmL3yy+K+jhgxzCAOXAbQYwKB0PrVnGHhq6/OjuqVz7C6rClgTJoz+PYAt0jkiau7eE/e5GTbfgKJC4TgdpzTFBpeDcIp0FlWP+BivinI2mT1WOonaPTNnzmxKJzu+zqBfQLs81PCNAvGCdDJ7uXQQmzip7JUArpbOYYkwOohmhLCHjIBvcNyRk8pey4QLwtxTBv080UTvAuBJJ3k107ue/Pv0rr5vtXatOsHE+QAGv237UcMN0tnUMBB/5bBFf+uXjrG7rCpgLVq0qB/EJekc0UXnOKnsF6RTqPrU1taWcFLZr8HjuxmYJJ1H1bVpHiGfSWVOkg6ihubOdmfsPXFSDxF/GPoFiNpzRIRrnVRWCy4jR+lkx9ex7dZP5QemQAtY7e1zp8DmbvWA//m91PZC+EfD2k/Qb8ZPHHN2LperSgfZXdNuWf3s9K7V3S1dfee3rOnbd/tRw28DeFI6mxoKrxj45+jrpVMMh1UFLABgYIl0hoj7tJPquFg6hKov2Wy2ZfSosQ9i24cGfYhVfhjHoLudZPZ86SBq55xk9tyq8R5BQ8wYUSH5RCadvRb6PrKnjJPOXr+9oKz8EvARuFisau3xQQBgQ6F0YDnJjnOIcE0Yewkrj9k46oxFixbVTUfMjiiH6vajhpe2dvVNN+BjAfosgIcRkeOQahsCfbqeuq8ACwtYxsMD0hmij7+dSWVOk06h6kMmmTnRq+IPYKSlsyjrxED4USadea90EPUfruvGnVT2ahAWQG8WVT5jxuVOOns9LPwMGrRMOnsdGBdJ57ANe8EWYIjY6gKW5/UH3oGVTWXngPgmWP57g4Hfx5vMSfc/cv8m6Sx+mta1+g+tXau+2NrVNysxWJ3C4AsI1M3Ai9LZGhkBD0zr6uuSzjFc1v0S2H/a/r0AnpfOEXExBt2WTrtvlA6ios1JZi9lol8C2Ec6i7JWjJlucFLZRjgSEHmpVGq/6oC3GMAnpLMoizEuSqc6buzs7IxJR6kX6WT2cmZcJp3DSvFqsAUYz+oC1oZKpfLPIDdIp903esDdAJqD3CcCHh2sJk7I5XJWP8ce0L3u6eldq29p6Vr1NjOIKQzvBAK+DcZq6WwN5oVY3Hs31WFHnHUFrO7u7hpYjxHuhnHE3i+z7dnDpIOo6Jl39LyxmVT2dhC+CUAfMFTQCMDXnFRWiyaCssnssQaxZQA6pLMo+xH4nev61t8IPU64S+l09u0NcnRKQnXLli2rgtyACAcFub4kDngAfio15xBi717YPENsm79SjE9ctuyBZ6WDhKmlu2/L9K41i1u6+i5tWdjXAqJZAF8Fxh+ls1mP6bIDb1lTl/PJrCtgAQAb3CmdoU7s58XwgF5pr14qm822bB7XX2Lg7dJZVMO5Wmf0ycikMu/wCGWApktnUY2DCRc46eyXpXNEWSaZ6SDGj2HpZ3ZxjFW9vb2DAe9hbQGLAryBMJPJTDaoLgIwJag9ImKVh/gJhUJhrXQQSQRw64JVD7d2rf5M68K+11dRm8HARQTcC2BAOp9d6HutC1fdJJ1iT1n5Zrh166ZfANgonaNOtHhV3Oc4zt7SQZS8THvmaK+KEsDHSGdRjYq/m05n3yOdopE4yeylDLoFwCjpLKoBMa7IpDMfk44RRdn27GFM1AhHp8RwwAPcAQBE1h4hJBNMB1Y6nR7PNfoVANtPiqxnqp1QLi9ZKR0kag7uWrtyelffDS1dfafUmuJTwHQuwHcA2CCdrZ4Rofzi4IRLpXOMhJUFrN7e3s0A/0I6Rx05Ep65r62tbYx0ECUnk8ycyDEqANCOPCWJiPF9J9nRKR3Edq7rxp109nvbjwrrMS4lhpmu0cscXs513VG1GO4AMFE6i80I/ESQ68+cObMJwNQg95DE7P8A/JkzZzYZjv0EwBv8XjtinmGqzS2VSn+WDhJ1B9284vnWhasWtnatPrtlsG8Ss8kQcA2Av0pnqycM/HnQS5w5s3t5XXe0WVnAAgAC7pDOUGdmj24ae7vrunHpICp8mVTHB7YPa58gnUUpADEQ35pOd2Skg9jq+LbjJ1YHa4v0RjMVEcRM33OSHWdIB4mKar/3XQKOlc5hu6A7sCaNmzQdFs8SDeCfH+09cZ8fMjDP53WjZgOTmV8qlZZLB6k31I3a9IVPFlu6+q5o7eo7nNkcycAVAJVQhwPJQ/RXNrE3HbzwH+ulg4yUtQWscRPH/QrAc9I56grhlMEBvh76TXxDcVLZTzD4/2DxByxVl5oN88+SSfdQ6SC2cY9z9986aiAPpuOlsyj1EjEQd2WSmVnSQaQ5yey5IOhR6hCYAGc4AQAbq28gBODvDY6ZdPbrAJ3n55oRtJmJTimVcr+VDmKD6QufXD69q++a1q5VTszzpoPpEgD3Q+dmvdSjFMebZty20oo5a9YWsBYtWtQPcN0OJ5NC4Pc6qew3pHOoUJCTyn4NwNXSQZTaGQYmxcj7heu6e0lnsYXjOK3VhNcDxtHSWZTaiVFs6O5GvlwmlXKPBOEH0jkaBgd7ix7I2FzA4kQi4dvspnQ680lmXObXehE1ADZnlUo9BekgNpp6+5pVrQtX/V9rV9+J8XHe3szeqQTcwMBT0tmkEPDA4GBTpuWWvtXSWfxibQELADwkvg2gJp2jDl3qpLKfkg6hguO6btxJZX4M4KPSWZTahddWBzw93uwDx3EORs3kABwunUWpV8XYv1bF3fOOnjdWOkrYXNeNG/DNAHQmaUhizbFAC1iexTcQAliTy+W2+rFQOp39L2L6kh9rRdggDL21WMn9SjpIIzjwhjWbpy9c84uWrr6LWtf0TfWY5xLwLSCEixuigvj/1o+bMv+Q7r9bNfje6gJWubxkJW+7elMN31WZdObD0iGU/9ra2hLVAV7YAC3ayh4nVgc87RQcAcdxjoFnyiCrH6aUJQg4dvPYrT9Cg400qA3wRwBuk87RQF7M5XLPBLoDWX2E0JfiXzqdfQsxbobdr/camC4oFnv0kjEBlEN1xsLVS1q6+i5r7eo7mGEOYeAyi+dmbQDR2a0LVl/yxht6B6XD+M3qAhYAgOhb0hHqFTNd5ySz75bOofzT2dkZG9085scAv1U6i1LD9JFMKnOadIh6lE1mj4VnHgQwRTqLUruN8DYnmf2QdIywuLPdGcz8WekcjYWCPT64jbUFLPLh+GUq1XEcMe4AYHOXNRPoA8VKz0LpIGqb6V1P/n16V9+3WrtWORRHCzO/H8AiAP3S2UaM8TNDfGTrglXWXmhnfQGrVOp5EMCj0jnqFIHw/Uwyc7p0EDVybW1tibV96+8E6BzpLErtAWLQTe5sd4Z0kHqSTWaP8gj3A9hbOotSw0a4NpvMpqRjhKFqvBtAaLhjk6KIAy9gEezteh3pDYTJpHuoAd8LYJxPkaLqY4Vyj861i6iWW/pWT1+4+vutXX1vGTXYvy8TdxJwK4BnpbMN09+I8JbWhX1nTluwuk86TJCsL2ABABOuks5Qx+JMdIeTdN8sHUTtOdd146Obxt4OwpnSWZQagb2rMe82nYe1e9Lp9Gs8g/sB7CudRak9lPAIt7uua/W/w+l09gIAJ0jnaDTs0Yog108mk/sAsPcSkhHc4JhOpw805P0GwH4+JoocIvpUsZy/TjqH2j37dT+9cfqC1T9p6eo7v2WwbwoxXDBfB2C5dLYh/A1E73lq3JQjWhb0LZIOE4aGKGCVSvluBn4vnaOONYG8nzqO60gHUXvEVAdqP9LilbICIz04UPu8dIyocxzncOLYg2DsL51FqRFqqQ14N0qHCIrruqOI9YtWEcYLtAPLmGZrjw8CAGJmj/75tbe3TyCO/ZKAGT4nihRm+kah1PNl6Rxqz1A3ai0L+3paF66+vLWr78h43JtOhPcBuAvAC8LxmIEHATqnZbDvta0LVv3IxllXr6YhClgA2IA/Ix2izo2B592bTWaPlQ6ihied7PiaDmxXNiHQx1OpjuOkc0RVKjVnOjzzAIADpLMo5QcGTrV1Jmd1wLsUwDTpHI0p2BlY5LG1xwcBoFYzw+7AmjlzZlMi3vRTAK8PIFJ0EP63VOn5iHQM5Z8Db1nzZMuCvh+0dvWd1bKmbxIxXBB/CUAewOYQIjAYfwT4iwxz6PSuvjmtXatup27UQtg7Umy+7eEV0qlsDwFZ6Rx17ukam2ylkntcOojaNSed/QoYV0jnUCoAj42fOPbYRYsW1f/ATR/NmjV3UlN8sAjgtdJZlPLZRg/x15fLS56QDuKX49uOn7i1eeDvAPaRztKIamxeF+TnWSeV/QQAW2/Q3Vos58cC8IbxZ4yT6rjD+ouECLcUS/l3YXj/bFQd++372hJTNq4/lpneCIOjmfloAEcSMH4Eyw4S8P+Y8XsYKqGGX7XevmqNX5nrWUPNESFjPgfPe1A6R52bHKPar7LZbCafz6+SDqNeXSbV8QFm1uKVstXrXnh+4/8A+Jx0kKhIJpOjYzR4D7R4pew0zmDwZgAdsOTBcEtz/8cJpMUrGQz0rwx0B8JB4EB3kLQCw3wdOqnsN6wvXjHuijeZ98CS31Fq92w/vrds+3/+7R+dM/aPNdVayONWz3ALsRnPxOMNY+JL/zqP8TwRbQSwipjXcZz6Xtw64S8zu5cPhPi3UTcaqgMLAJx09k4wOqVzWOCvFOOOQqGwVjqIeqVMKnMWg+5E4xwTVo1pEMY7rlgs/lE6iDTXdePVAe/nAE6SzqJUsOiSYrnn/6RTjFR7+9wpCTP4hN48KGZNsZyfGuQGTip7P2wdzs9YVKzk37K7f3k6mfkMEX0hyEjSCLh/3MSxp2pnuFLBariH2/iA+RCADdI5LHAY1+jXs2bNnSQdRL1cJpmZxaBb0ICvb9VwEuSZ69GAX8bsaHCAfwAtXqmGwF92j3Pr/nKCRGzwA1q8EhXCUVS2d4i7wW7PD8ukM++1vXjFwJJYkzlNi1dKBa/hHnBzD+fWMfOV0jkscVRTfHCx4zh7SwdR22Tbs4cx0S8BjJHOolQYGEg6yY6zpXNIcpLZKwj8TukcSoVkYrXJq+tr6dva2hIA3iudo6ERhj2AfDg6OztjALUEuYco3r1/fk7SOZmZrg86jrCHEk3mtFwut1U6iFKNoOEKWABw4LT9v8PA76VzWOL15Jlfuq47TjpIo0un0+O9GP0MwL7SWZQKFfFX5x09ryE7GdLpjvkgXCWdQ6lQMc5Np7O7fXwpasY0jzkLQKDH19Qu7GYBZk89verpFgBNQe4hind9g6PjOO2AuR1Wz1ymP9Z48KRcLrdROolSjaIhC1jd3d01w/x+AFXpLDZgIFkdrP3Mdd1R0lkaVWdnZ8xw7HaAZ0pnaQAMYD2AR0G8eMf/EHA/A3kw/gTg6e1/vQrWtM3jtn5MOkTYUin3SGK+A0BMOkuD2QLgue3/WbX9Qfhf/11f7yEhxnWu69blgzEDl0hnaHi8+0fg9oRnPHuPDwLwiIYsAGYymSPgmfssPyb7l8Fa/MRKpfJP6SBKNZK6fOP3Q6FSWJZOZr5MRJ+VzmIFpuOrA97P58+fr+e/Baxdve7LANXtt9HRxCsZ9AcC/sCER4i8lcy8NpFIPJXL5YZT/Dbt7XMnN5vBAz2iIwHvSDAdBcJMAK1BpW9AH0un0zeUSqWGuGLYdd19q/3ePaARXdGsXul5Ah5jxp9AWAHGk4bQN8hmjefFnttnn6bnd/Ue19bWNmb06NH7el5sSgzefsw0A8QHg+ggMB0B8GFo0C8Qffba2gBfCKCujielUu6RgOdI52h4MRNoAatGOIgsLmeP6Y+/agErmZwzlWuD9wGw+IZNfoLJe9PSpfn10kmUajQNPfjWdd14bcDLM5CUzmINxl3xZvP2YT7gqxFwktlzQVggnaPODQJ4CMD9Bih7xvt9sVh8LuhNk8nkPsYkXALmgXECAKu/sQ0ag79TKhc+JJ0jaJ2dnbE1q9ffT8Ac6Sx17kUCKgwsY8LDnhfvrVSWrA5603lHzxu7afzAUYZrxzFRBowsgClB72up9Uy1w0ql0ovSQXaXk8pcB9BHpHM0uhrHpwX5endS2asAfCqo9SUR8GyhnN/puIrj246fuLV5sAfgY8LOFaLVJo5MPp8P9BiqUmrnGrqABQCO4xwMz/wewATpLPbgW4vlwjsBeLI57JfJZI7gKi2zvEU7KI8z+DdkzG/icXowCvMLUqk5h8RQm+eBzyYgA/0dPVxbaxw/NIwihCQnlf0igE9L56hDNQZKBNzvgZY0NdHDUfmyJZVyjySqnUIenQbCcdAOreG4qljOf0Y6xO5yUtknoF9WSNtaLOfHIsDPqU4q0wXQOUGtL+y3xXL+uB3/x2QyOTpGiV9j2+cXWz1tPHTkH8o/Jh1EqUalD0cAMqnMOxl0k3QOy/yoWM6/FzoPJDDzjp43dvPYrctAOEI6S/3glQDdzlS7qVQq/Vk6zVCy2WyLV8W5BLyXgUOl89QL27uwnKT7ZpD3S2iBY3dtZeCXBLp7oBq/b9myB56VDrQrbrs7bTBeO4/YXADwa6TzRB5jE8X5oEKh8LR0lF3JtGeO5hj9UTqHwuPFcv51QW7gJLMPgdAe5B5iGHcWK/m3v/R/6uzsjK3tW38nCGdKxQrBBvJ4TuGhwu+kgyjVyBp2BtZLFcqFmzPJrMuEC6SzWOTdmXT2n4VSvuEGK4dl87gt1wOkxatdW0uEO+DxwkKlsEw6zO7K5/OrAFwD4KuZZCbLZC4H+CToFw9DItCFyeSca2zswtpW1PRuhRavdoUB5AC6dVR/4q7FvYs3SAcajtzSXB+ArwD4SjaVzXqgDwN8KvTnvnOEsezRRwB8UjrKrnCMzpDOoABCsAPct29ib5edeeU/v3V9679pdfGKsQkxc3KhnNPilVLC9MPQdrFm834wlkrnsAkzLndS2Sulc9jISWbfDdB50jkiroeYzzhg6pSWQin/4XoqXu2AC5VCT7Hcc4oH8wYw7oQezx3KqBgNWjdfpq2tLcFV3AFgp3NHFADgGWa6tsbm8GI5P6dY7rmp3opXO8qX8/liuecMU8NrwbgRenvyzjEuSSaT9TAw+nTpAAqB30Douu44AJOD3EMUv/wGwky64wtM+KBUnBBsQcycXCzmitJBlFL6Tf7LuMe5+1cT3m8BTJXOYpkriuX8NdIhbJFtzx7mxfA7AOOks0TQAMB3kIdv2tzinU6nX0OIfRaMc6C/x3fm+XiTaYnCXDO/ZNIdX2DmupnzE7LHmfC1CRPG3mb7LbjJpPtaQ95VBJwJfe2/DDN/oVQpfE46x6tJp9MHEses6wzdHQysMIweGC56MKtjHq8znnm6mqhukshTq9W2ViqVLUGtb/tRUSaaVyr1/AYA0snsRUT4nnSmAA0Q+MxCufBL6SBKqW30w88OHMdpg2cKAEZLZ7EIE+iSQrmnrq66jqK2trbE6OaxRQCzpLNEzEZi+g7i3ncKhcJa6TBh2Xa8CN8FcJR0luihS4rlnv+TTuGHdNqdTewVoMf+d/RbYv5SoVK4Bw3WlZhNZed4wPUADpfOEiHPjdk4quX+R+4XKYrsipPsOAPEd0nnCNHzAH5cY/O9SiX3uHSYMGWSmdOZ6GfSOYLiIX5oubzkiXQ6eyox7gIQk84UkBoTzi2V8ndKB1FK/YceIdxBsVjsZcIHpHNYhhj8XSeZPV86SL0b3Tz2s9Di1UsNArghPmgOK1R6/qeRilfAtuNF8SbzBjAuA1DXR6X8x5fCgve4eUfPG0vs3QItXr3Uo8R8RrGcn1WoFH6OBiteAUC+nF8SbzLHALgKeqzwX/beNH5LZI/WE/CKW9usxNgE4IoxG0dNK5bzlzVa8QoAmIy986+A2oYN61dlU9ksMe6AvcUrZsJFWrxSKnps/aUzIqtWrfxja8t0AuBKZ7EIgXBqS+v0P69atXK5dJh6lEp1JAn4ESx4KPeBB8JCGO+sYqlw64o1K6w5KjZcK1as8J7sW7n04P0PutmLe0cCpDcWbjNpWsv08qpVK5+QDjISBxw69TsA5knniIg1YHywWMlf/GTfkw1/hfmKFSuqT65a+eD0qa1LQJgL0F7SmaQR08FP9q2MZLd36/TWKwCyubABAu5BzDu5WCrc98T6Jwal80hpaWk9h0B23kAI9I9uHrOCCT+GvaMsmIkvLpUKP5AOopR6JX0QfhXFcv5KAFYcP4mQGDFudZLOydJB6s38+fObDfhGaNEZABc9mLZiKf9fxWIx+JuE6kTu4dy6YqnwFiL+OLZ1pjU8At4nnWEk0umO+eD6/nvwyVYAX4o3TeciFgAAIABJREFUmdcUK/lb0IAdV0MpPFQoxZtirwfoXuks4ghHZJKZOdIxdoLA9EbpEAFiAJ8vlPOnF4vFJ6XDSCO7C5Wjsa14ZXPB/JOlUsHmuV5K1TUtYA3hgKlTPsTA3dI5LJMAmTvT6Y43SQepJxuf3/w5AK+TziFsAxiXFcuFjnI59wfpMBHFhVLhWiaTIuBv0mGkEXDKrFlzJ0nn2BOu644j5u9BZ1U+COMdUyznP23TUH6/5XK554vlntOY6VrpLNLY0CXSGXbkOM5hsPeBfyuYztr+xS9Lh4kImwtYtvu8XjylVLRpAWsI3d3dta39m84F8JB0FsuMJuZ7Hcd1pIPUg2wyeywTf0w6hyQGfspUO6JYyX8L2n2xS6VS7rfN/U1vBGORdBZhTYnY4FulQ+yJ6oD3JQCt0jkEPQ/Qu4vl/NxisfgX6TB1witVej5OxBcCqEmHEcM4KZPJTJaO8VLM5kjpDAFhAl9YrPRYO7B8DxCAGdIh1B759vZCrFIqwrSAtQu9vb2bKcanAvirdBbLjIHn3es4Tpt0kChzXTdeI9yIRh3gTFhH4NNL5fxbS6XSGuk49WRx7+IN8WZzKsA3SWeRRAaRHer8ajLJzCwAkesiCQsDS0wcRxfLPTdBOzqGrVAq/JAJ/4XGPUrcxDVzjnSIlyLGYdIZgkDEnyiUC7dJ54iSdDp9APQm8zrENxXL+cukUyildk0LWLuhUCg8DeOdDOAZ6SyWmQjPLMrOzjb60bhXVe33LiHgWOkcQnrI8BsK5YIe491DuVyuWiwX3g3gCuksYhhpx3EOl46xu9ra2hJM9EM05ry7QQCXl8r5E/L5/CrpMPWsVMrfAaa3o0FvKGTwO6Uz7KBufgcNw68LpULDH1ndEVFCjw/WHfrJAVP3vxD6hYlSdUELWLupWCz+hZhP2n49sPLPZM/gN+5sd4Z0kKhxj3P3B+Hz0jkEeMz8hQOmTplbKBTWSoexQbGcv4YZ70ejHr+smTOlI+yu0U1jPwrgKOkcoSOsgzFziuX8dWjUf099Vqz0/IzADflQRsCx2WQ2Qq8jtq2AtcVDvGG7RIdU87SAVUcYuDveROd0d3c37rFrpeqMFrCGoVApLAO8s9Gg32gGaGrNeL9xj3P3lw4SJbWE9zUAE6VzhOxpsDmpVCl8Tj9M+KtUyX+fiRvzgYNwinSE3ZFOpw8E4VPSOQQ8VPPibywWc0XpILYplAs3E/EnpHNI8AhnSWf4D7KtgHVNubzkCekQkUQ6wL1uEC9ONJmzc7mcPtcpVUe0gDVMxUrxXiB6N9zUOwYOrSa8+x3H2Vs6SxRkkpkOBs6VzhGy3zHVXl+s5H4lHcRWpVLhe0TUiAWS2alUaj/pELtCbK4GME46R7j41hoPzqlUlqyWTmKrQqlwLRg3SucIHeEM6QgAcHzb8RMBRP73zzAMeKheLx0isggHSUdQu6UcT8TOyOVyW6WDKKWGRwtYe6BY7rkBgF6x6r+j4Jn75h09b6x0EGGGyVyHbTfZNAbixYO1/jfpoPbgFUo9XybC16RzhMzEEHuLdIihOI7TDtA7pHOEaIBA7yuWC+dXKpUt0mFsF282HyTgYekcoWIcnUrNOUQ6Rn9T/2ukM/iJQXeWy+WnpHNEFmsBqw78Id5kTsrlchulgyilhk8LWHuoWM5/khg/ls5hodmbx2392fz585ulg0hxUh3/BXAj3c74o3giNn/p0qUvSAdpFIVS/uMg3CKdI0zMFOVjhATPfBONU7R+kZjfUij3/EA6SKPI5XJbKY6zADwnnSVMBtXTpTN4huy6gbDB3jv2gB4hjLZHB6qJ43O53PPSQZRSe0YLWHuONw9suhDAb6SDWOiEF5/f1NXZ2dlwt3Alk8nRAF8lnSMkDODKYjn/Hp0/EDqOJ8xFDPxeOkhoCCe4rhuXjrEz6XT2XACzpXOE5Cny2C1UCg9IB2k0+Xx+FYEvls4RsvnSAeBZNcB984QJY/LSIaLKdd1RAA6QzqF2joC/UYxPXLbsgWelsyil9pwWsEagt7d3cLDW/1aAeqWzWIdw5rq+9d+VjhG2GBKXAmiVzhECZuIPFcv5RrxlMRJyudxWRrwTwAbpLCEZPzDAx0qH2FFbW1uCmBvldbAaxssUHir8TjpIoyqUC7cTsEA6R4jS24sKYoiMTQWswqJFi/qlQ0RVfz9mQJ+tompVzDMn6O3WStU//SU7QkuXLn2BYt58gP4sncU2THi/k8o2SjcSHMfZG4RGuS3qY6VSoeEKlFFTLi95AkzvwrZuOOsZcFY6w45GjRrzHoDE5/SEoK/Gxi0Wi3+RDtLoqjz4IQBPS+cIyShvwEvJRrCqA6ux5qgNkzGeHh+MpqeYaifkHsqtkA6ilBo5LWD5oFAoPG3ifAKAVdJZLPSpTDrzMekQYSCOfRjAXtI5QvDpYjl/nXQItU2x0vMzZvqmdI5QMDqkI7xUMpkcTUyfls4RgtU1Nm+qVHJ/kw6igEql8k+AGuXLEtTAcwW3JwDWzMAi8B+kM0QbawErep5hqs0plUraaKCUJbSA5ZN8Pr/KME4CoEMBfcZM1zjJ7LulcwRp1qy5k5j5UukcIbiqWM5/STqEerkJe435JIDHpXMEjuAgQu97MUpcDGCqdI6A/ZOpdqIWr6KlWO65GeCidI4wEMiV2judTh8AYLzU/n4jj/4knSHKSG8gjJoXmMz8Uqm0XDqIUso/kfkgb4N8Jf8ok5kPxibpLJYhEG5Ip7OnSgcJSnOs+lEAE6RzBOzbxXL+M9Ih1CstWrSoH575b+kcIdg70545UjoEALiuOw7AFdI5AsXYxGRO0oeHSGJifBSNcXz42La2toTExkQJm44PemaU+Yd0iGgz2oEVHZsNcEqplPutdBCllL+0gOWzUin3EOCdDUBvVfNXjBgLM8nMLOkgfps1a+4kJra7eMBYdMDUKR+RjqFeXfGh3OKGGO4cwxukIwBAdYDfB2Bf6RwBqrHB27a9J6ooKlQKyxi4SzpHCEaPSYw5SmRnu24g7MvlclulQ0ScdmBFwwATvTVfzuuNmUpZSAtYAShWivcy4Z0APOkslhnDRD9PpeZMlw7ip6b44AcBjJPOEaDH483m3O7u7pp0EDW0gVriowCek84RJAa9XjrDtm4Qy48MMz5aKuXvk46hhkbG+x80wBduXgwiX34RsTXzrxjQY8C7pDOwIqDKhM5SqWeRdBClVDC0gBWQUim/gMnyBxQZBxiu3uc4zt7SQfyQTCZHA7hYOkeA/lljc0oul9PZcHVg6dIH1hP4c9I5gsTAsdIZRjePeweAVukcgSF8v1jJf0s6htq1YrH4FxDulM4RNGKZApbH9gxwB+jv0gmiLJPJTIZF887qFINxUamUv0c6iFIqOFrAClCpVPguwF+VzmEdwhHwTLfrunHpKCMVo6Z3AdhPOkdAqsT8Nh3eXF/GTRx3A4A+6RxBIeD12/6PYATmywX3DxZj6XPPP/sh6Rhq91GVr4Hls7AIJDL7joBDJPYNAjE/IZ0hypi1+0oaMz5erOR/JJ1DKRUsLWAFrFguXAHGjdI5LDS3NuhdKx1iJDo7O2ME/rB0jqAw8WcLlcID0jnU8CxatKif7C68T3AcR2xOSSaVORWEI6T2D9gzJoHO5cuXD0gHUbuvsLTwCIh/LZ0jSAy8DuEXrgkW3UrHBjrAfQjkkTU/67rE+EWpkv+adAylVPC0gBU8PmDalIsY+Kl0ENsw47J0OnuBdI49tW71upMZOFQ6RyAIpQMP3N/mIojVYk2xHwBYI50jKOTR66T2ZsZlUnsHjIn5Hfl8fpV0ELUHvJjtRz7HpVJzQj22m8lk9gdhbJh7BolZjxAOifQGQlGE41OpOdZ0PCqlXp0WsELQ3d1dSzSZdzCgt2H4jBjXZ2ZnInGr2PCRrbOvNsRr5h06tL1+bbtpiq6TzhEUhhH5kJudnX0diDok9g4aEb5VqBSs7uKxWbGS+zWAv0rnCJJhL9TCNXPMqofppibSDqwheBZ129Wp0QbV/5UOoZQKnhawQpLL5baO7m86FcAfpLNYZjQb3FlvQ92TSfdQBo6XzhEIxodyD+VWSMdQI7Olf+P3AFg6fJ9FHiy9GC6B7PytYDD+VPUG/0c6hhoRJuIfSIcIlveaULereTZ15LyYy+WekQ4RZQTWApa8E51Ux3nSIZRSwdICVogW9y7eMFhLvBmWf8sZPjoEnrkVdfRgGKPaB2Dl649+Uqzkb5FOoUaut7d3Mwh3SOcISOgFrHQ6PR6M88PeNwRVYj6vUqlskQ6iRiY2ELsVgL2ds4SWMLdjoUJ5MPT44K6wRQP76xt/J5vNajFRKYtZ+AAdbUuXPrDexDEXwJPSWSxzkpPM1sWRPNd1RwH0TukcAXghPkj/LR1C+Yi8m6QjBCT0Bw3yYufDyivW+euFhwq/k06hRi73cG4dmAvSOQLD4RawrJqJRKwFrCG4rhsnYJp0DgUAmOjVcGtnZ2dMOohSKhhawBKQz+dXMdXeQsCz0lmsQvhaKuWKXJU9HLWB2skA9pHO4T/6fO7h3DrpFMo/xWJxKRh/ks4RgIMQdscm0YWh7hcKfmJL/+bPS6dQ/iEyd0pnCAyFW2AwNnVgMbSANYRqtdoKIC6dQ23HSK9b89SnpGMopYKhBSwhpVJpOZjfAmCjdBaLjCJ4t8ycObNJOshQGKZub04cwmNb+jd+RzqE8h8Zvlk6QwCaHcfZK6zNMu2ZowE+Jqz9QsOxD/b29m6WjqH8U8PgT2HvMcKQjxBadKSMoQPch1KN29NtZwlm/kwq1ZGUzqGU8p8WsAQVKoVlBjgNQL90FlsQcOw+E/a9UjrHq0mlUvsBfKJ0Dt955kO9vb2D0jFUAAxuA+BJxwjA5NB2ipOFQ2Xp3mIl9yvpFMpf5XL5KQA56RwBCe0177ruOAD7hbVf0NhoAWtIhrWAFT1xw7ygvb19gnQQpZS/tIAlLF/OLwHTebD3G8/QMfHHo/qtC3HsXAAJ6Rx+YuCnxYdyi6VzqGAUCoW1AB6RzuE3UzP7hrUVM84Oaa+wVJmqV0iHUMFgRrd0hoCMSiaTo8PYqLalZlVBw/OMHiEcCukNhJFEOCgRb9bTAUpZRgtYEVCs9HQz4T0AWDqLJWIGfENbW1vkCkUEsu1Btgaq6ZwByzHTb6Qz+I2JQ+nGSKc75sK24b6E75dKpeXSMVQwPMTvlc4QFGPM3mHsw8bYc3wQ4OZmrJAOEWkerCpYWoVxvpPsOEc6hlLKP1rAiohSKf9jJtZCgH+OHDNqzAelQ7yU2+5OA2GWdA5fEe4olUp/lo6hAmZgXQELFM5xIgK/I4x9QrSFDH9JOoQKTqWyZDXAT0jnCEg4BSybBrgDa3K53FbpEFFGBO3AijLi693Z7gzpGEopf2gBK0JKpcJXmOla6Ry2YKbPJ5Nzpkrn+Jeq8c5C2DefBYuNh6ulQ6jgJRJUALBFOoefvBDm4bS1tSXAODXofcJEhP/dfqxUWY16pBMEwdRMKJc3ENk0E4l1/tWuWfTzttLEqqnd2tnZGZMOopQaOS1gRUyp0vMJBv1QOoclxsepep10iH8jnCUdwU8M3JWv5B+VzqGCt+3bd+6VzuErzwRewBo1apwLILTbDkOwGYa/Kh1CBY8JeekMQfBiJpRbiglkTwcWkc6/GkI6nR7PwCTpHGpXyFm7er3OblTKAlrAih4+cOp+7wfo59JBbMDA253Z7vHSOdrb504BkJbO4SOOMfQYUUOh30kn8BMZDvyBg9g7I+g9QkW4qVAoPC0dQwUvUTNWdmAxc1izMe3pyGG9gXAozAl7ipX2uzKddmdLh1BKjYwWsCKou7u7Fm+icwA8KJ3FCoavhvDRvYQZPBF2vd7uz1fyv5cOoULEsKsDCwj6NjIC6JSA9wiTV/PMN6VDqHDkHsqtAHildA6/xRB8AauzszPGQGvQ+4SGoR1YQzCsNxDWkTixtyCdTo+XDqKU2nM2PVBbJZfLbR2s9Z8OwKquBxnclklmThONQPxm0f39xvR96QgqXB4Zu34XMQX6IJtJZo6DVbcP0j2VSu5v0ilUiJiWSkfwG3PwRwjXrl07FUAoRxXDwIa0A2soVs07awgHE5tvSYdQSu05LWBF2NKlS1+gGL8ZIL3lbYSY6IuQ+/fdAHSC0N7+I6zbMrDR2mvW1c5NnTr5Mdg0yJ25OdD1jTk50PVD5oGvl86gwkWGlktn8BsbDqEbO25VQcPzYtqBNRS9gbAO0bsyqczZ0imUUntGC1gRVygUnjZxng9Ab30amSPT6exbJTbOJDNvBLCvxN4Bubm3t3dQOoQKV3d3dw2APcV0E/BRImbx2Xu+YfyjXM4vlo6hwuWBH5fO4DciCv69y7PqSNnWSmWJfv4cArEWsOoRg653HMeeo75KNRAtYNWBfD7/Dw9mHoDnpLPUM2J80XXdeNj7MlnUfQVwzTM3SodQMgiwpyODKbAOrPb29gkMHBfU+mFjwz8A4EnnUGGr2fN6345q3kDge9jVkbMC+tofEts0sL+x7AXP3NbZ2RmTDqKUGh4tYNWJcjn3/wxwOoCt0lnq2OG1gdrpYW9KQDbsPYPCwIM6B6eBEf1JOoKPAuvASiRGdQAIvVgeEGZOdEmHUOF7/vnn/wqgKp3DT54xgRewPIs6cgg6wH0XCMB06RBqj2XW9q3/mHQIpdTwaAGrjuTL+TwMvQ2WfaAME4MuDnO/7bcRtYe5Z5AM8ULpDEoQezZ1ZAQ2ZJmY5wS1dvi4VC4vse42OrVry5cvHwBg1RcWYRwhJLLnCCETdID7EJLJOQci+BttVZAIX3Qcx5rP6Uo1Ai1g1ZlisecXAL0bAEtnqVNvSqfTM8PabN2qdccAmBjWfgHzYPBL6RBKTpVj9hSwKLgOKWbMDWrt0DHdLh1ByWGb5t4BMDVvU+CbWNSBBdYC1lBiMc+en3XjisOjBel0erx0EKXU7tECVh0qlntuBeN/pHPUK+LY+8Lai4kyYe0VOMbDhUJBh7k2sGnTJv8DttxE6AXz9+G67l4AQiuSB4wpzndJh1ByiLBOOoOfvJi3Icj1XdcdBeCAIPcIFZMeIRxKzdP5V1agQ4jNddIplFK7RwtYdapYyV8NQH/Z7pkL5h09b2woOxHNDmWfMBDulY6gZHV3d9cYsORmMg6kgDU4yMfBkvdWAn6rRevGxh6vl87gs0Avw+nvxwxsm4tkBY9IO7CGYtfA/h012PB+ujCdzp4pnUIptWtWfMhuVMVy/mMMuk06Rx2auGVc/7kh7XVsSPsEjmp8j3QGJY+AF6Qz+IMCKWARszWzNBh6ZLjREegp6Qw+4ng8/mKQGxhjz/wrABjTH9cC1hDIpuOir0B/BfhW6RRhIsYPHcdplc6hlBqaFrDqG2/t3/huAu6TDlJvGHxO0Hu4rjsO4MOC3iccvLKwtPCIdAoVAYzJ0hH8wITNwSyMWYGsK4CYF0lnULKIrOrA2pTL5QK9BIc8tuZIGQHPLu5dHOiRy3rHBGt+3q/A/PdR/c3/DXAjXeKxNzxzS2dnZ0w6iFLq1WkBq8719vYObu7f1ElARTpLncnMmjV3UpAb1LbWjoE9r7El0gFUNBBhinQGPxA4mAIWWVPA2hhrjv1OOoSSZVkH1vOB72DXkTKdf7Vr9hawDP6+uHfxBiZzHoCadJwQdaxbs+4j0iGUUq/Olofrhtbb27u5v5o4BcBj0lnqSLw5PnBKkBt4MXuODzLTUukMSl5nZ2eMgb2lc/jD/yOEqdSc6YAtBT6Ug+5WUdE3yEYLWMNh15EyLWANYf78+c2waWD/jrbfQFkq9RQAfFM4TaiY6UupVMdx0jmUUjunBSxLLFv2wLPxmpkHYJV0lnrhgU4Pcn0CHRnk+mEyHmuHn8KTT/5zX1jyvkEBHCE0PHCU32tKYSAvnUHJi8WqwXQqyng66A3Yog4sJuj8qyG88MILM2DJ++HOvPTnH28ynwbjT5J5QpYw4Fva2trGSAdRSr2Stb94G1Fuaa6PqTYfAd+yYwsC5gV6GyHjiMDWDteL+7fuv1w6hJIXi9WsmH8FAMz+d2MQxWx5zYOJlklnUPLi/fEB6Qy+4eALWAR7ClhgvYFwaHF7jw8CYDb/7sDL5XJbEfPejcY6SvjaMU1j9bZ3pSJIC1iWKZVKy4n5DABbpbPUgdFbxm45IcD1Xxfg2mFa1t3d3UgfWtSrsOmGLSJe7feanj2veTAP/lE6g5K3mWKD0hl8Y4ItYLmuuxeAvYLcI1Qe6RHCIdg0sH9ndryBslgsLiXCN6TySGDC+zOpzGnSOZRSL6cFLAsVKoUeAp8HwJPOEn00N4hV29vnTgGwbxBrh43BOv9KbePZ013AHq/ze00C29KBtbZcLts0+0jtoURiq3Zg7aba1ppdBY14VQtYQ7HouOiOXu0GynETxn4aDTZvl0E/TKfTB0rnUEr9hxawLFUoF35CxJdL54g6JsoEsW5zbHBmEOtKMMCj0hlUVPAh0gn8Qkxr/F4SwGt9XlMGsXZfKQDAhAkTbCpgPRPo+saqgkZty5YtOlN1KHYN7N/RTouXixYt6vdA70FjHSXclzh2M7a9xyulIkALWBYrlArfAPBt6RzRxkdtb/v3VY2s6cSAR7G/SWdQUUHWdBjEajFfC1jJ5JwDAUzwc00p7BktWisAwKJFi6w5QsgBHyH0mKwpaDCwqre315qffSAI1rwf7oj51Qf4l8s9FQD/G2KcKDghk85cJh1CKbWNFrAsVyznPwzGXdI5IszU+mttfi9KIDs6MQAQVZ+QzqAigq2Z+VGbPGOyrw+zRLVWP9eTRIQV0hmU8huR8bvrcof1rerI0eODuzZDOkBgzNA//y39mz5JQEN9uclMX0ml3NdL51BKaQGrEXg1DL6DgIp0kKhiIv/fkDy24gghAc8Wi0W91VJh5syZTSAcKp3DJ0/5fTFBDN50P9eTRPBWSmdQ0eC6rjXXyHueCfZInFVHynSA+1CSyeQ+sGlg/452cQNlb2/vZjbmQgAcUqIoaDbsLWhra7Pmd6JS9UoLWA2gUqlsiTWZUwH8VTpLFBFwrP+LkhW3kTGg3VcKADBpwqSZAJqkc/jE9xsIQWjxfU0pNejsGwUAqNVqo6Uz+MTbsGH92kB3IHuOWBt69SNkCjCm2Zqf9U7txg2UxWIuR4zvhxEnMghHjB419qvSMZRqdFrAahC5XO4ZptopAF5xq0ijY8DXYtOsWXMnAZji55pSSIuearuawRukM/iFQY/7vabH9hSwOMFawFIAgFotYUe3AeGp5cuXBzmQngC2pguTPS1gDc2zuoDlGbNbP//Rm0ZdjkY7bsq42HE6TpGOoVQj0wJWAymVSn9mwvkAPOksEXOYn4slElVrBrgz0CedQUUE8zHSEfxiyP9rwAnGlgLWoB4bVv/C7NnRgcXkf9flS6TT6QMAjApyj1DFao1VlBgmsuq46CvU+vs3PLk7f+H9j9y/iZjfh8Y6Skjw+MZMJnOAdBClGpUWsBpMqZS/h5mvlM4RMeNTqdR+fi1mGNYMcAegD7IKAEBE1nRgwfP+5PuazLZ8mN0oHUBFR5xrVnRgETjQApapGasKGkQ6A2tIdg3sf5nh3kBZqBQeAHBTgJGiaDJqdDMAkg6iVCPSAlYDKlUKV+nNhC8X57hvw6k99rejSxIznpfOoOTNnDmzCR6suX2HY+x/AYuwt+9rytAClvo3L2bGSmfwQ9DdxGyMTUfKNhYKBV9vabUOw6af946GXbwc1d/0ETRYxz4D85xUx39L51CqEWkBqzFxvNlcAOBR6SBRUTOY5tdahvg1fq0lzmgBSwH7jN/nOBCseJAF0B+Px4PoLtgngDUlaAFL/Zthz7fuZElMHOjDNdnUkUMNNtNoDxAs+nnvgHj4888W9y7eQOD3B5En2virjuNYM15BqXqhBawGlcvlNnqInwHgBekskeDxgX4txcDhfq0lzXisBSwFNuRKZ/DRX3K5XDWAdScGsKaETdIBVJQYKwpY5AU7A8uzaCYS70EBo5F0dnbGGGiVzhGYPbyBslAu/JJBt/kdJ+KaUTNdyWTSjlmBStUJLWA1sHJ5yRNMuFA6RxQQwZf5Na7rxgGrWsuDeNBX9YbYlY7gFwJ8Pz6YTqfHA0j4va4M0pke6t889vaXzuAHQ8EebyKwNQUssM6/Gsrq1c9OA9AknSMwI/j5D1bjl4Gwzs84kUc4IkaJq6VjKNVItIDV4Eql/J0N+I3JKxDTFD/W6e/HDNj1wSYuHUDJ2jb/ipLSOfzCoGV+r0lEtsy/AsA2/f5SI2RAVnRgecYLej6PNQUsQ552YA2BqGbTl5SvNIIbKJcte+BZBi7yM06d+G8n6ZwsHUKpRqEFLIVEE30AwF+lc0hiIl+O/xjjWXN8EAAYbElXidpT+0zYJ2PR/Ct4QMXvNU3VjkHX2zVLB1DRwYAVBax4PL4mqLXb2toSAKYGtX7YmFkLWEMgz6Juu53wvJEVMEul/D1g3OlXnjpBIHOje5xrRceqUlGnBSy1fR4W/ReA3b421z483o9VDCwa4A6AQNqB1eCY6EzpDD7qnzhxzO/8XtSLe9Z0LbFdHaRqpAx86U4W9s9cLhfY5QRNTeOnA4gFtX7YKK5HCIdk08D+V9pYLpefGuki8WZzCYARr1Nn9qs21W4CoMfwlQqYFrAUAKBc7nmYmb8onUMKARP8WIcZh/mxTlR4hvRhtrERgNOkQ/iG8NtFixb1+72s58WseZ0QME46g4oOZhs6iyjQjiIiz6YjZbx58+YV0iEijayac7ojX14ruVzuGQJf6sdadYXpzU4ye7F0DKVspwUs9W+J5thXAPxBOocEZn+OSDHIqg4sgK04PqL2TCrVMRsWHY0BoxjEssaQTcfuJs2cOdOagpzac52dnTECpknn8EGwBSxFcAi2AAAgAElEQVSLbiAEsK63t3ezdIhIY3sLWAz41n1XKBduB+Muv9arG4SvZdozR0vHUMpmWsBS/5bL5aoe6H0APOksoSN/XgsEuzqwiEnP8zcwYpwhncFPxPxQEOsaz54jhABo8rjJWrhWWLt27VRYcJEHc8AFLJuOlJF/BQyL2fPz3pHPN1DGq+YSAP/0c806MIpjpst13VHSQZSylRaw1MuUyz0PE+NW6RwCRjy/YvublT3dKtscIB1Ayejs7IwR8bnSOXzENaqVA1mY2aqZF4NxaOFagTk2XTqDH4iwItgN7OnIYQ72uGW9a2trGwNLLjbYGb9voMw9nFsHxof9XLM+8MzBfv6ydAqlbKUFLPUKHPO+gIYb6M4jfi14W72DYNlriqAPso1q3ep1b4ZVBVl6xI/htDtdmciy35fegdIJVBRwq3QCPzAF24EFJmsKWGBPO7CG0Nw8/mBYPKQ7iBsoi5X8LQzc7fe6UUfEl6XT2bdI51DKRlY9bCt/FIvFvwON1oU18gdQj7xD/EgSJcyYIZ1ByWCmd0tn8BMx7gtq7aoPvz+ixLbbVNWeIWt+/1cDLsqwNQUsE3Sxr85ZNrD/FQK7gZJqFwN4LpC1o4uIcVN7+1wbbnJVKlK0gKV2qsbmWgAsnSMsDGwZ+SrGugIWCIfrOf7Gk0ql9gPhFOkcfiLwvYGtbVsHlkczpSOoSLChA4sTicTKoBY/vu34iQD2Dmr9sBECKmBYgjyL518FeANlqVRaQ8QfD2LtiNsvYQZvgsVde0pJ0AKW2qlKJfc4gIp0jrCQHwUsmwa5/kfc6/deJx1Chcsg/i4ACekcPnpmyrQpS4NanKhqVQGLCVrAUgBgwwystblcbmtQi/cn+u364iquHVhDsvNz3r8EegNloVS4EcCvg1o/sgjz0+nMRdIxlLKJFrDUEOiH0glCQ+zDmzbZ9UF2u5qBXgfcQObPn98M4EPSOfzFi7q7u2uBrc4c2AOyCMbroJ8PlA0dWEEfiTP2DHAHMJDP51dLh4g0turn/XLB30DJHuIXAXgx4H0ih5i+kU1mj5LOoZQt9AOqelUD1fg9AAJ76IsSYnp2xIuwPXMwXoqYtYDVQDZu2Hw+AKuGeBOCm38FANXqqOeDXD90hLGZ9syR0jGUMK7/Albgt+rZ1ZGzAoAnHSLS7Pp5v0wYN1CWy0tWAnRF0PtE0CiP0KUjOZTyhxaw1KtatuyBZwEEduwmSpjwzAiXIHs/2FBWOoEKR2dnZ4zBH5PO4bMqGw702MLGjeusG07rxaGv+waWyWQmgzBWOsdIBT2UnNmi931inX+1azOkAwQmpBsoi+We60G8OIy9IubI2qD3RekQStlAC1hqSET0gHSGMLDHI+rASibnHAhgtE9xouZYx3GsGVKrXt261evOAHCYdA5fES8uFouBFpiWL18+AMCqY4SkheuG5nkxG+ZfgTnomU5kT+d14P+s6tv22+TGSecISog3ULKJ0fsAbAxpv8hgxkec2e7x0jmUqndWFrAyqcxpqZSrxx/84Hm/k44QBkNm3Uj+fIKqVs6/2i5GNeqQDqGC1dnZGWOmz0vn8J1Ht4ayD8GuY4SMDujNSQ3LcM2KAhZM4MeirClgUXgFjLoUi1Wt+VnvTJg3UObz+X8w82fC2i9CDIz341mz5k6SDqJUPbOqgJVOd2QyqWyZQT8n8Eel89igRonfS2cIh/fkiP60pQPc/8UjzJHOoIK1pm/9e0E4QjqHrxib4s3mnpD2ejqUfcKzX2Z25ljpEEoI1f/8KwCIV7EiwOUNbBh0/y8c+BDvumaY7TkuujMh30BZqhS+DXAxzD0j4sCmeLVxLslSKgBWFLAymcwRTjp7JzHnGUgCAIHPSaVS+0lnq3fl8pJVAKrSOYLmkbdiZCvYOcD9X4jpZGg3hrXmHT1vLBE+J53DbwT8JJfLhXNMgdi627s8g7OkMygZzGRDB9bg5JbJq4Ja3HGcaQCag1o/bMThdeDUJbKn224n+gVuoPSYvPcC2BLyvhHAp2dSHRdKp1CqXtV1Acud7c5wUplbuEaPgtG5w/+72SD+LpFgdvEArJcOEYIRdWBZ/sEGIByUSnXMlo6hgrFp7JaPADhAOoffmM1tIe7VF9ZeYSHQW6UzKClWFLBWdXd3B3iTctyq933TbPQI4dBs7sBaCYEbKEul0p8B2De6YDcw8zeSSfe10jmUqkd1WcDKZDKTnVT2m1XjPQ7QeXj1v4+L29raEmFmsxON9Ia+qFtTKpVeHNEKHqw+QggABO8c6QzKf6nUnOlE9HHpHAFYc0DL5AfD2oxgXwcWgMPT6fRM6RAqfAy2oYAVbEHGs+pI2XO5XM6uOX7+s+nn/XKCN1AeMHXK1wh4WGp/MYSxMfIWzJw5s0k6ilL1pq4KWPOOnjfWSWU/wTX6K4BLsevW7dbRTWP1oXuEGBz6tzKhIv7TyNewvAMLAIHe1tnZGZPOofwVQ/UGWHizEjMtCLb74uWI2LoOLAAgjp0nnUGFz1gw24kR7AB3IpsKGnp8cNcsHhUheHy0u7u7Rh4ugGU3+e6mN+y916SG7EBTaiTqooA1c+bMpnQ688HN47Y+AeBqABOH8cc/gTr5+4wqAlg6Q5CY8dhI/nx7e/sEAJN9ihNlU9atXvdm6RDKP04yez4D86RzBKBGsdr3Qt3Rs/YGr/e4rjtKOoQKj+u64xio+1uyTNC36rFFBQ3BDpx6sO00B02TzhEUZtn3r/xD+ceY+cuSGcQwPp5NZfWiJKWGIeqFHeMks+fuPXHSY8T0HQBThr0C4YhMMnOq/9EaCQ+nYFh3COb/jeTPx2Kj7fkQuwtMuEw6g/JHKpXajwhfl84RBAbuLRaLoT6QxbzYn8PcL0T7Vvu9M6VDqPAMDg7acHwQHHxR2Z73fmZbC/C+aGoaPx2AtR3ohuR//onm2FcA6pXOIcB4wC2zZs2t+y8NlApLZAtYzmz3eCeVfRiEBRjhhwQm+qRPsRoT0/7SEYLkgZaN5M/HULN+/tW/MR3vOM4x0jHUiBEhfoMNXRY7Q8Z8M+w9c0tzqwGEc+Nh2Ig/IB1BhSlmRQHLI6wIcn226AghB92tVueMsWre2StE4QbKXC5Xham9B8CgdBYBU5tigzdIh1CqXkSugJVJZmY5qewSGO83AN7g07KztD1zz7iuuxcIY6VzBGhLUxNG1IEFmMYpYOH/t3fncXJVZd7Af8+51d0J2YgBMYSlQUUxiiMNNFV1q7okIRrcwVYRtwGRed1wHEdwGZfRGdTXDZfXXVFEwADq6NgKSaiulQ40INKKyBKFQEIIIVunl6r7vH90B5PQ6XR31a1Tder3/Xz08+lO17k/unJT9z73nOcACORi2xGoMol44gMCvMZ2jpDcnculey0cVxX4q4Xj1oD4vp/ybaeg2pDAjcJMuRwJ7aa8o6PjEOgMVgXUKa2DAkZdCxxaLjqBetmBMpfL/UFEPmc7hxWCs/1o8nzbMYgaQd0UsOLx+PPiseR1KnILgJdWe/wAuLTaYzaDUgn/ZDtDqAS3p9PpUkVjqNtP5p5O3hyNnrHEdgqamXg8dYqqwxeIiq/AUt8+gd5j47i1IEHwH7YzUI24MbNosK9vzWNhDd7WNu94ABLW+LWmaljAmoRbDfuf5ol62oHyiScf/yyAP9rOYcnXfN8/wXYIonpnvYAVjZ6xxI8lvivq3S3AOQjvguDMeDx1SkhjuyvQas2Cq0+KXMVDCJprBhbQ5knpP22HoOlb3rF8gdHgagCubtu8OdJmfmbr4AJzp61jh02BFfF4V8J2DqoBdeBmXbEeIRayHVtSFhx66OyHbIeoa27vNF1XxcuBgYERo3g7mnEpoWAOAu9nS5cudfUajagqrBWw4vH4PD+W/JQnpb8CciGASNjHFNVLwj6Ge9TtpZdq0lUYxOULmwN5eyyWeqHtEDR1qVQqMjRr+BoFnmM7S4i+mU6nrW3FLdDbbB27FkT1k7YzUPic6O0Udk+nskuf+/pQT0/PsO0Udc2Fou6B1GH/s0wxcwfg5iYzB6cdCxcs+oTtFET1rOYFrGg0OjsR6/qwqPc3AJ8EMLt2R9ezo9HU82t3vMYWjUZnI4TlnHWkpGY0X8kA3d3dHiDHVCtQA/EMAneXoTmoPBx8BSovt50jRNtggq/ZDNA63NoPS8sXa2RZIpp4re0QFC5B49+sKzTcWSUuFPn20PorYNQhhwqW+9H6moG1x7wFcz4JxZ9s57DkI/F4l8v3X0QVqVkBK5VKRRLxxDs9ablXoZ8HsLBWx96L8Qz7eEyVh9aXAzjEdo7QCPry+fyOSoZ49NFHlwBoqVKiRvOKeLzrTNsh6OASscT7VPBe2znCpKpfyuVyW21mWN2/ehuA+2xmCJuKfG3FSStc3tijqfm+vxDAobZzVMqEPatEHSpoCBu4T2Z5x/IFAJ5hO0dYtE4LmD09PcNqzAUAyrazWGBE9SfRaNTZv3dElahJAcs/PbW8NBr0q8r3ABxVi2MekOJNyWjyRVYzNAoTvMt2hDBpgF9WOoaUxZ2nsDOh+t1UKjXXdgw6sHg8+WqFfMV2jpA9UQpGLrcdAgAguNV2hJAdPThv6OO2Q1A4pOTGZ5oGZn2oBxBxp4CF+ixg1IvBtpIT58QBmfotYObz6VtUxerMaouOMtLyXdshiOpRqAUs30+l/GjyFpjgJihOCvNY02BU8DHbIepdMpk8DiorbOcIUwBTcQHLqWUEMyBAe3k4uMx2DpqYf3pquSiuBeDZzhImEflSX1/fdts5AEADZGxnCJ3ig77vv9h2DHq67u5uLx5PvnrGAxg3PtMCkZCLMnpsuOPXjtZhD6R6IhK4VKx8miAI+1ypzNDIzo8D+KvtHDYIcI4fTb7Ndg6iehNKASsejy/148mfIwhuhqAzjGNUQoHuRGeiXgpqdSko6UdQB7tUhkZwV7GYrnipj0LaK87S4FTw7kQ00WU7B+0rGU3GYIJfAJhlO0uYBNgSoPR12zmeYspp2xFqoBVl87OOjg53l5g3oO7ubm/jw5t+IEB0xoM4stvaIcOR0G7KU6emngXAmZnHqvU7A6cuBG6cEwdQ3r59899th5hMf3//oFG8A0BgO4sVgm8mO5PPtR2DqJ5UtUCRTCaPS8SSPxX17oKiu5pjV5lRz/yX7RD1KplMHgfIO2znCJMGWvnsKwCiaK/GOA3OqMgPx3unUB3wfb8zEPTAoZusA1Hg/1bay66a8vn8XwBssJ0jdIIXHNI650u2Y9CY7u5u79FHNv1QBW+HznxGhTqw25oAW8b70YVipEUb/ne0t3I5wgLWJMTpmfb68MDAwIjtFAeTKWYKEHzLdg5L5qqHqzo6Opq13y7R01SlgJVKpQ7zY8nPBSX8WYHzqjVuuPSVftR/pe0U9SgYxRfheGNy8fSGaoyjwgLWuOMRmGvHdmUkm3w/lUJgfg9gvu0sNfDQ7uFd9TP7ag9Br+0ItaCCf4nHk2fbztHsOjo6WjZu2PRjKN4GVLgkzIGbdYWsD3N8EXVpRs5gX9+ax2yHqGsOFHUPrHFm3x2yY9YlgN5vO4cNCpw6q/UQ9p4kGldRoWnFSSvm+LHkJaWR4H4AlwBoq06sGhH5BpdA7CseT54FgdM3JAqsz+Vyf6jScA5f2EzbmY88vPETtkM0s0Qs8RoEQQ+ABbaz1IJAP9jf3z9oO8f+RPUm2xlqRRRXcEm+PdFodPbstrk3jD88BACoejO/KVXjwmdauD19AqcKWA8AUNsh6ppbDfv3pWiYAtaNd924y0DehSb9+yoiH2e7DqIxMypgLV26tNWPdb1/cO7QgwA+h4Z90i/Hzm6b82HbKerFaactWySK79jOETaB/rwa44xP511SjbFcISIf9/2uV9nO0Yzi0eRFCrkejve8eopqOlvIXmc7xkSGS62/RvNs/T1PPfltNHoG/y2ssVQqdagnLb8HdO/Z5OXh4W0z7WkjbjQnD0K9KXdqSZmygftBOHJOHECDNfDPFDJrAf2+7RyWGBW5ku06iKZfwDKJWOItC+cvugfQywEcHkaoGruEzfEAANIWGf0JgKNsBwmZmrJU5cNv9uzZR8Px3d1mwKCsVyejyZjtIE3E+PHkZSL4Nprn72NZAlxsO8SBrFu3ZgugRds5amiJJ6UbotHobNtBmkUymTy6NBr0Akjs/X0FHurv7x+dyZjR6BlHwoECePi76jk0I0caZwaODanO1BI4cE4cUAMWMEfLIx8C8JDtHJYcDTXOTzQgOpgpF7Di8eRZfjx5h0KudKFHwl5mqYerli5d2mo7iE1+LPkxBc6ynSN0omsyfZmqbMcrZXHpPKgewZxA8NvE6YmTbUdxXTwenxePJW+A4lLbWWpK8O1sX/Yu2zEmI4L/sZ2hxk6LSMsvU6mUuzd7dcL3/c6gjHVQTLR0c8YFCc8LnPhMM0HoN+VO/J4ANGQBo5ZGI2417N+fGtNwBcy+vr7tKnKR7RzWKLrj8eR5B/9BIncdtICViCZO82PJtaL43wNcLDU8BU49dP5hn7WdwxY/2nUugP+0naMWqrlEMjDSXq2xHLRAjfwuGk0933YQVyU7k88V9foEeI3tLDW2NdJiPmU7xMGo6K9sZ6g1BVaUhoMbVq5c2Vj9MBuIH+06F4FJQ/Gsif5cKilIBG7crKunoRVlxh92urNc1mucJt52ONXv7GlURxry/c/ne3tE8WPbOWwRxbej0dRzbOcgsuWABazk6ckT/XjyBhXpA/DSGmayQkT/LR7vWmk7R6350dTLIfpjAGI7S+gEGweHB6t2UynKHQgP4nBPgpvi8fhS20Fc40e7ugMPtwI40XaW2pNL0+n047ZTHEwul7sXwO22c9ScYOXObbtYxKqyVCoViUe7vgDRqzDJkiYxMy9IONLbKZg3b97fwhp80dxFx8KhpdpBIJyBNQlxeQdCxa5CobDZdoyZahtpvRjABts5LJnrmeAK7vxNzeppBaxUZ+ooP5b8TmBwFxSvsxHKEiOq1zTTbkpjOw4GvwDQYjtLTSh+MNPeIBMRl5YRhOcoUS8bj3clDv6jdDDRaHS2H0teDtGfo0l2GtzPzblC7/dsh5g6ucp2AhsUOGvHtl1rE4mEC30yrUt1po4qjZRvFtF/x8EeNmkFDczd2F3vkZ6enuGwBlfjxO/oKa2tWG87Q11zo6g7MWnsHShX96/eBg3+xXYOaxTxjY889jHbMYhseKqAFY1GnxGPdn2h5AX3AngXgIi9WNbMVw//kzo1NeHUfJfE48k3iuKXcLk55b6CAJGq3viqcAbWFC0U1ZsSscTrbQdpZPF46hRPWu4E8H7bWSwZDBC5EA10wS1ecDWaZzfC/cW0LDkuc6hMIpZ4RckL7gDEn8rPq5n58jlHPtPCnVEkxqUC1qZ0Or3Tdoi6pm4VLPcmYZ8rNZAr5n4DyDW2c9iiqv8Ri3VFbecgqjXT0dFxiB9NXupJy/3jT/eafBchObbUEvw6lUodajtJSMSPJT8liqvRLDOvAEDwq0JhbXWXFXAJ4XS0KeSaRKzrw2iG5apVtHLlyraxczYoADjBdh575COFwtr7baeYjmw2+6gAa2znsOiEiAS3JGPJpO0gjaazs3N+PNb1PYX8GsBhU32dSEU9jRp/tknIOxAGDi0pkwoa/jcPh3ac3J8jO1COlCLvBbDJdg5LIkb1qs7Ozvm2gxDVkpnVNicHwWUAXC3YzMQppZHgJt/3F9oOUk0rTloxJx5LrgLwSTRXEUFNgM9Uc8Dx/i6LqzlmE/AU+nk/1vU/0Wj0GbbDNIJkNBnb8eSu2zF2zjZPwXk/AhRzhd5v2M4xE6pyhe0MNimwKADW+LHkx9ivY2piseSKFq/tjwJ9J6b3Wb0jm83OqKeNM83Jw95VT9yZkaMhF/sa3fiOqs6uyFB1o//ZunVrtqg07cx0QHBcS6Tt67ZjENWSEehNtkPUqVMQmNWnnbZske0g1ZDoTJw0OHe4T4BzbGepOcVvMsXMHdUccseOHcdiCrt40kT0lZ603JmMJmO2k9Srzs7O+X4seXkgyELwAtt5LBuWABcACGwHmYmt2x+/HoKNtnNYFgHw2Ucf3rg61Zk6ynaYepVIJBb7scRPDPA7AMdMe4AKChILFy5shwPNycMuyjjV+1LdmIETluFhtMPl6zwtO/P+5/OZnytwve0c1ijeNr6jPFFTMAFavosG6ilSYye3Rkb6EolEI99Aih/repd6UgS0KXeDC0SqOvsKAILAtFd7zCZzdCBI+/HkZdFotMmXLe/D+NHk+S1e2z0Y63Xl7sXzlMlHM7dk/mw7xUwNDAyMCKSBGs+HSCRV9oI7/Wjyzbaj1JOlS5e2xqPJD2lZ/gLIWzHTGdJawfLBcsSJmUVe2DOwACd+TwDCn63W4IwJ3HmvJ1BJv7x6ZDz9PwAadlfFiol+K3V6qt12DKJaMIXC2vuh2ms7SP2SZ2tZCn409XLbSaYrGk09x48lbwL0OwAOsZ3HCkVPodB7a7WHdXpr5dppgeJST1ruTkQTL7MdxrZ4PHW6H0vmIfgBuDx1jKInV+j9iu0YlfJK8l0AJds56oECiyC4yo8lb2SDd5h4PPmGhQsOu0sE/xfAvEoG00oKEq4sjYuEV5QZX/ruTrsNzzgzAycMEjh9nadDQ0NOFbCy2exmgX7Qdg6LFpRM+Uou1admMP50n0+HD2IBJPiNH0t+brz3UV2LRqOzE/Gu//Qk+COAZbbz2KTG/GcY4xrIsWGM26SOV5HfJWLJn/q+P/1lMw0uHk+d4keTvxUNigBOt52njmyQiL4dDswQTvelHwbkl7Zz1JkzPQn+mIh3faKjo6PZHrBIPJ48248l7xTFtYA+ryqjmqCCgoQTBayRTCazIazBPc9zqqARBMapAkbVicMFLMGm/v7+Qdsxqi1byP60uT9rxX90w6ZLbacgCpsBgEibuUGALbbD1DkPwCU7tu9a5/v+i22HOQCTiCXeZKTlT6r6HwBm2Q5kkwA35vPpW8IYW12+sLFEgfMQmL/68eQ34vH4kbbzhC1xeuLkRCz5K9FgHQQrbeepM2UY85aZNqSuRwHwBdsZ6tAsVf307LY5f/VjXe9KpVIR24HCtHLlyrZELPEOP9Z1hyiuB/Ciao5vKpqB5cTSuL8hzF55Zc+F39Eeo0uWLHrYdoi65sY5MTGH+5+JF7wbwFbbOSz6VDye4sNQcpoBgHQ6PaTAT22HaQiKkxCY2/xY8judncuOsB1nnPH9rlfFY8nbFHK1AO22A9WBIBDzsfCG1/bwxm5qrVC8R9S7z48lvpRIJFxbSieJWOIV8VhyjRrpV+DVaK4dQafqM7lcOm07RDUVCr23CnCj7Rx16khAv1Ma0bsTscSbXCtkJRKJxfFo4tM7tu36u0J+BGgoD8EkqKAHlkrD36wLuAPhVAnwt1WrVpVt56hrDpwTB6Ko4N+KOpfNZh+F4kO2c1gUEQ2u6uzsnG87CFFYnrpIVCl/T9S72GaYBhIB8K4Wb/SNiXjXF1TK38rlcjWv9i/vWL5gqG30PKi+B4G+gHfB+7gin0/fFtrogvbGX9hU12YD8kEt431+rOtXBvqtTCFzMxp0OVk0Gn2Gh5a3QnCRAifyXJ2EanrxUc/6rO0YoVD9b4issB2jfunzFHL16EhwmR9LfnvWcOu3V/ev3mY71UysXLmybceOwRVQfauW8VoRtIR8SB2V0fUVvLzxZxWHPatEcFxjfgJNyNkCRvU4cE4cgAl5t07bcsXMD/14ohsqDde/uEqOb/FavwrgfNtBiMKwz32UH0vmAXBr++nbKYor1Au+nsvl7g35WCYe74pLoG8H8CYI5oR8vEa0IzJqTkjfmg5l6/qOjo5DZrfN2QnOnKm1e1T1OzDBz/P5/CO2wxxMd3e39+hDm18KL/hnKM5Gky/pnaJNKuWTG+H9nSk/lsgC4tvO0SC2AvhJAHNFoZC+03aYg1m6dGnrwvmHn6Gi5wj09ahtw+9HcoXMkpm8MJFIHK5leazagSy4NFfIfD6swROx5O8VcKMALfhOLp/5F9sx6tVppy1b1BoZfdx2jvDI+blC749spwhTNHrGEk9Kd8OljRemSaDnZgvZa2znIKq2fabpC/R7CmEBa/rmquC9CMx7/VjydgA/L6u5vlhM31eNwTs7O+e3eq0JBV4DyGug+kyWTib1X2EVrwBgTsucYwMWr2x4voh8Bep9yY8lClC5Dl7wi1wu93fbwfZYunRp66GHHtYlGnQ/umHT62BwmENP7MM2bBRnZwruFq8AQMV8QlTX2s7RIBYCuNgguNiPdf1BJPixePLLTCZTN7MHTjtt2aKWltFlRvFqBV4BBIfa+XDQGc+oUdXjXfhI0/BnlbizpKySfmlNIBIpufNeT0C0kg0fGkOxuHZDPJ74iKh8y3YWWxTyrVjsjGKhsPZvtrMQVdM+BazB4cGfz26b81UACyzlccHJAE72JPicH0s+AkFeAy0IvHvglR7YunXr+oGBgZGJXtjd3e1tfmjz0SXgOeqVnyMqL8HYjLgX6FM7RtJBPDBvwZyvhnmAsofjhEUJmwwgPgQ+AvNVP5b8s0JXizE3zdrdkqnxkiMTj8dPFI0sA3QFFCmoznHhZrDWVPCeTCFTsJ0jbPl8782JWPK3CpxlO0tj0Rerype1hC/7seTdEPxGAv1dCaV1xWJxd61SRKPRZxjT2imqXYAsB0ZfAoWpg4+EGRckJJDj6iB/xVQltKJMd3e39+iGTe7skqvu9kCqBhE93uWHT9LSHO9/Pp/9jh9Lng3gTNtZLDnUoHRld3f3S9nzjlyyTwGrv79/0I8nfwrFe2wFcsyRUHSLSDcQAIHBwgWLAj+W3AZgF6DDgIwCmANg7qMbNi2AGStUifIGeEZUPtTT0zMc5iFEpb1BWzG56kSBnIhA3zfUNrglAUYAACAASURBVKJ+rOteBW4V1duM4I+I4K+ZTOZhVPimpVKpWaVS6Xmq5nlQfbFAOgGcCsX8p4bmaTtTX8vnMz+wHaJWyjCXGAQvw9jutjR9L4TihSpyqYeWUT+avF0MigFwm0hwTyQS+Us6nd5ZyQG6u7u9DRu2tBsdOVFhng+RFwu0E8BzoXv+Kamnz4EKbkjFHP+P/6bG1doaXgFrw4YtRxmgNazxa84rN0UBY6YkwHEOf56PHHHEEU7PdN6LRgLzrpIJ/ghgru0wliQefXjTvwP4nO0gRNXytJ1+xOj/07K8G7wVC4vB2LKIhfwVV5cAv80We38R9nFU0S586+qVAPo8AZ4HwVsCACgBfiy5G8B9EN0AxWZV8zhMsFlUAhXdJmrGtl5XnQ3BLBGZo9BnADgSwDNVsaQ0EhwDGCN7DkPVIbo60uL9m+0YtVQopO/2Y8kfgw1Wq6EFgk5VdAoAqEFpJIAfS/4dgoegshnQRwA8BmBIIKrAkwCgGhwiIm0KnS+QOVAshuiRABY/umHTUQZog5jxs73OCzwVNDDXQI934J+07el0OrSeRSJlp2bklMtlLiGcjMDZBu4A1jfTbJz0Len1fqzrY4BebjuLNYLP+L5/cy6X67MdhaganlbAymazf/JjiTybzFKD2S4R1KQhqbh9YeOq2QBeBJUXAYCIAuOzHMdmO+47g0r3m43Q+Pd2dUrxYKTVOzedTpdsR6m1skY+4UmpG8A821kcdQwUx+xfeNK9vhbZU44eP8Plqf9rOGoqmH0kDvR2EqwP9wDa+L+jf9hWLBafsB2irokeD3dXQjRd8TJX6P1GPJY8R4Ck7SyWRBDIVfF4/CX5fH6H7TBElZq4r1ITN7yjxqSKD2cymYdqdLT22hyHyGlbJaKvDHPWRD0rFtduAPBp2znIDUHgVbIk7NlVC2JLyD2dRN15cKWY+Wy9puHQ+/10M9/woYEFYoILAdSsX2L9kWdDI1+2nYKoGiYsYG3dvuU6jE23J6p7CmTyxcx3a3U8gcsXNkQ1MaQir8lms3+yHcSmSKu5HMCdtnNQwxsqFtc+OpMXLl26tBXAkirnqTkNe1c9t2ZeN2MBY8q6u7s9QNxp2L8fCX+3zrqUy+XuVcUnbOewSaDvjMeTb7Cdg6hSExawBgYGRkSlaRrqUkMbGn+qUpPuFPF4fJ4Ci2pxLCJHlQX6lny+N2s7iG3pdLokqhcBCGxnoYb2IGb4d2jhwoXtcGAzASNBuDfl6sAyyz24A+GkNj+0+WgALbZzhKaCfnmNLl/MfBmCvO0cNoni277vO1ugpeYw8RJCACV43wQwUsMsRNMmkE/mcrl7a3U8L/Daa3UsIhep6Aeyhez1tnPUi2wxuw5QPjCiGZMKetpIWZyYWaSqYc8qcaaAZZp0Bs5UBSZw5r2eUNDU739QDsw7AQzZDmLRQg3MlWMzDYka0wELWMXi2g2iuLqWYYimRTX9rCXP/FItD1k2Ti0jIKopVf1EPp/9hu0c9UYl+DdF2E2oyVVaSUFCjBM362rCK2CtOGnFHADPDGv8WlOtoOF/Eyi7tVz0abxZFfXLa3jFYvoeEfmM7Rw2CZDc+MjGD9rOQTRTByxgAUBZzBdR93tHU5ParCY4r9ZbAYtKey2PR+QMwXfyxWxTXzQeSD6f3yHGvBVA02xtTlVUyZIwcWJ3PR0aGgqtKDM0Z8iF39E/eKWmLmAcjEsN+yewNZ1OP2k7hG1ei3wBwG22c9ikKv+ViCZOs52DaCYmLWAVCum7AdxYmyhEU6YwckE+n3+k5gdWtNf6mEQNT/CzxUce8R7bMepZLpfOqcrXbOegxiMazLggoYETS+M29vf3D4Y1uLpR5NsjmDdv3t9sh6hvTr3f+2H/M2C8/2RZL0Bzt8ppgchVqVRqru0gRNM1aQELAFSkpku0iA5GVb6ay/X+2saxxWi7jeMSNS65LtJi3l7r2ZKNKMDIxwAZsJ2DGot6FSyfEycKWGHvQOjC72iPDT09PcO2Q9Q3N/rCTUiUBaxx2b7sXQAus53DJgWeUxoNvmg7B9F0HbSAlc/33iRAsRZhiA5O+p/c/vil1g7v9tRyoupS3BBplXPT6XTJdpRGUCwWd8OUzwaww3YWahyjo6OVFHAcKM7o/WGOHjj0ua9hF/vc4MA5cQDhb3bQUCKt5rMAbredwyrFRX60q9t2DKLpOGgBCwACkU+GHYToYATYAlN+w8DAgM0pv+0Wj03UOAS/2D2y600sXk1PLpe7V6Dvsp2DGsbmvr6+7TN5YSqVOgzA/CrnsSDcZVEC40wBi0vIJudaw/79VbThg4PS6XQpgLkAwKjtLFaJ/r94PH6k7RhEUzWlAlY+33sTgN6QsxBNZlSNeX0ul7N28bW8Y/kCAIfaOj5Rw1D0zJs/59z+/v7mviicoWwhew2g37OdgxqAYsafiaVS6dnVjGJL6Dfl6k5PJMMCxqSca9i/H61kwwdHFQrpO0Wl2ZfRHSbqXYEp1gWIbJv6X1RjPh5iDqJJCeQ9uVw6bTPDYFvJoaewRCFR/Hrr9i2vZZ+VykRavfej2Zc20MGJzLggIYErvX5CvSkXiEMzryto+N8Mysad5aITUTV8/ycw99BDPs3+kzjTj3V9wHYIoqmYcgErl0vnALkuzDBEE1Ho17OFXuuzEYyq0xc2RJWTa3aP7DrH8jJfJ6TT6SGV8qsAPGw7C9UvRQU7EEKcmIEVBF5oN+WJROJZAA4Ja/yaCzgDa1KBO7PtJhAceujsh2yHqEc9PT3DMOULADT5ZjP637FY6p9spyA6mOlNFTTlSwDwqTrV0pqWVu+DtkMAgJig3XYGovql38oVes/jssHqyefzj0igrwEwaDsL1aeKloS50Zx8qFhc+2hYg0vJlVlqYwIvYAFrEiJuvd/70oc4M/rAcrlcH4Cv2s5hWZtB8LOOjg53ivbkpGkVsMb6D+nlYYUh2psCd8wabj2nbppAB+LykzmiSnw+V8i+G0BgO4hrsrdkbxfo2wCo7SxUf6SSnjbixG5rDyLEf3cCcWOW2rihfD4fWrHPDQ5f5yln3x3MvAVzPgbgz7ZzWHbi7FlzvmA7BNFkpt2sbffw4Kf5jyCFTYD7WkbNWav7V2+znWUPFSeeVhNVUwDFB3KFzKW2g7gsW8heD+ATtnNQHYpUcj3mxHKpcHcgdOtz/0GwEH4wLr3f+xI2cD+Ynp6e4QByAZr9YZzi3fF48tW2YxAdyLQLWP39/YNq5D1hhCEat8ELzJnpW9MbbQfZjwsX+0TVMqSCN+eKGc7KrYFcIfNZQL9sOwfVlZIxZkY9bTo6OloAOaragWpNoaHelAduLLMEAAj48PkgBHC61ynf/ykoFHqLCv2m7RyWiSi+n0gkFtsOQjSRyExelM/39vixrusAfX21A1HTe1w8XZEupNfbDrIfARzaiYioAgJsUWNem8+lc7azNJNcIfshP5ZYCMg/285C9UD/NtMl9nMic9oDwKt2olqrqAfYlDgxSw0AoKH/rhpb6tTUESUEzvb+4fs/dUPDg5ce0jZnpQLPsZ3FosNRlisAvBw1nLnp+/4xUPPFao4pZb08e0s2v/f3krFkMhC8d8KfD/Sb2WK2dybH8qNd58Lo6yb6s3IQ+ddice2GmYxL+5pRAQsARsuR97Z4o10ADq9iHmpuTwaQswrZzJ9sB9lfPB5fDMVs2zmI6sA9aoJX5HIZLkeoPd09PHjR7LY5zwTwCtthyLaZLwlSo8ePPZdpcBryEkKXZl6z/cekgkjgzns9Aa2kX16T6e/vH/T91IUIgrVw4h/KmVFghR9Nvr+WM+1N2SwIBN3VHFPF/ALAPgWsAHIsVCc8jkJmAZhRAQui/wHFiRP/YcBWEFUy7SWEe/T1rdkk0AurGYaa2lZRfVmh0Hur7SATEWlx+sKGaEoUPZFWEx3b0INs6O/vH523YM45gPzGdhaybuYFCTFOfKaV4d0f1tgrV65sA3BkWOPXGmfgTK5s3FkuOpFyOcLP7WnI5dJpCL5rO4d1gs/7vv9i2zFqSnBWMpk8erovS5yeiAMHKl5RNc24gAUA2UL2VwB+WKUs1Lw2GUVXtphdZzvIAZXdfjJHdBAK4PO5YuaV6XT6Sdthml1PT8/w1m2PnyPA/9jOQhZVMqNG3Fga19qK9WGNvX379nZUeJ1cT7yABaxJBW6cEwcw2Ne35jHbIRrNaGn4wwD+bjuHZW0om59Fo9GarEIZhdkNSP+B/4c7n/4q+ctkrxEET0wzhheU8PbpZlcj50/3NTQzM15C+NQArebi0kgQA/D8KuSh5vN3U8byTF/mr7aDTMqtnYiIpmOnQN8xvhMe1YmBgYGRpUuXdi9ccNi1gL7Wdh6qPTUzXz6nAY5v+IUxgo3pdHpnaMMHLcdB3NmMLPCC9bYz1DPHdpzc3wPgDpTT1tfXtz0RTZyvIjehiZcSQvACDy2fA3Bx2IcqFtP3ATjlQH/e2dk5v8Vr22eHeqN6fqaYKVR46CEAJQBzAQCK8wH8N6a4I2U8Hp8HxRv2+tbjAA6rMBMdQMVPltLp9E7x9BwAoV1EkKv0/gCRZN0XrwCIQzsREU3DnwOYKItX9WlgYGBk67bH3yjAtbazUO2pyoxn1KgDN+sSck8nEad2pNuWy+W22g5R11y+zmP/sxnLFrNrAL3Cdo468D4/6r/SdogQ7YDudS0lOC4e71o21RcbmDdiT/Fr7PXfr2o62kdVpkZns9k/qeCd1RiLmsYto+XWeKGw9m+2g0yFikONXImmRK/cPbzrlEIhfbftJHRgAwMDI9lC5lxAv2A7C9WW6siM+z+50Jw8gITW/woAFEF7mOPXWKi/KyeINPw5cUAS7mYHrps13PavAB62ncMygZgfpk5NPct2kLAEIj/Y+2sJdMq1DVW54B9fYBckuKaK0Wg/VVvbn89nrgXwpWqNRw4T/CzSal7a17dmk+0o0+Dukzmife1QwVtyhezb+vv7B22HoSnRXCF7CRQfwBSnu1PD214sFqfb1wMAkEqlDgOwoMp5ak+DcG/KVdpDHb+GtJKG/02go6OjBcAS2zlCwxlYFVndv3qbQP/Fdo46cHiptfwjOLqcslDoLQLyh6e+IXhtLBZ75sFeF42mng/g9H+8Tn9ujNkeSkgCUOXmlLlC5sMQ/KKaY5JTxhpB5zNvSafTQ7bDTFUqlZoFh3YiIprELaaMjnw+c5XtIDR9uWLmcoGeB2C37SwUuhkXb0ZG3FgaZ0LeVc+lnkhh/64a3ZzInHYAnu0cofGEM7AqlC1k/1cAXhupvNyPJt9tO0ZYVIMr9vqy1SDy1oO9xpPyhXt/bVS4fDBk1d5dJSgHo+cBuKXK41LjGxbo23KFzKVosEaSw8Noh0M7ERFNYBTApxcvOcJvhJ50dGDZQvaaACamCG93NqoDOvMClofg2dWMYosg3JtyBdrDHL+WKumX1gxKnjvFyokEAd//ahgutVwMwUbbOawTfDHRmTjJdowwjJZbr8RYQ/dxciEmmXG2dOnSVkDeste37skUM8XQAhKAEG7Ki8XibvH01VD8qdpjU2NSYD1M0JUtZH9qO8tMGOPG02qiickfpKyn5AqZT61atapsOw1VrlBI31kqt5wOaM52FgpJBTNq1JGlcaZsQitgrThpxRwAh4c1fq0pZ2BNyvGNenTuzla+/1Wwbt2aLaL6Xts56sAsjciVK1eubLMdpNrWrVuzBdC9VpPp83w/FT/Qzz9jwTNeBeCpZYYi+l002ESNRhTKrJJsNru5jMgKrrkmKG5oaTUvyeVyfbajzJQrFzYi+CoA9jSiPXar6Ed3D+88NduXvct2GKquvr41m7Zue2IZgMvBiykHzXz2kQDHVjOJJcPpvvQjYQ2+c+6IE5/7e3AGzuQMxIVz4kAeu/GuG3fZDuGKbCF7PQSrbOewTnHS9icHL7MdIwwG+y4BlHIwSTN3OX+vL0Zg0JCTNRpNaMuiisW1G+AFy8FdG5rVkIr+n1wxc046nX7SdpjKqAs705SfeHLLJSaCFwL4ve0wZJcCmbKak/P57GX9/f2jtvNQOAYGBkZyhcwHYOQ1AmyxnYeqSGdewFI3ClgPIsQNC4yW2sMa2wIFhhtix2db1KgL58SEpIJ+eTSxSIt5N4DHbOewTUQ/EI8nz7Kdo9oyhczNAty352sVvMH3/YX7/1w0esYSBV72j+/IDdlsdnNtUja3UPv65HK5B0wESUC5fW9zuQcmOD2fz37bdpCqcGAGlgIPDQwMjGQymQdzhczLBfpW3tA2pccE+s/5QiZVLKbvsR2GaiOX6/21Vzb/pEDGdhaqDjWjM59RI3JMFaPYEfIMfxFp+M/9vWwsFovc2GFyzhawwAJW1aXT6ceh8gHbOeqAiOJHnZ3LjrAdpMo0EP3hXl/PRuCdu/8PeVJ6B/ba/EE0YPP2Ggm9MXUmk3kwMur5EHCJivtKAL52yM5Zp+RyuT8c9KcbhYgLDW/3uYDJFrI/LaP0AgWutxWIamoUwNdmDbeekC1krwCXlDWddF/64Xwh81JALoKCy0kaWzB//vz1M3+5NnwBS4BQH4y61MAdwgLGQam7BSwF27mEIVfsvRqKG2znqAPPbDGjP8Ikjc4bUcuI9yOMXTuPEb1ovx8RAd7x1FeKB7PF7M01CUe12VktfWt648hoyxlsKOsy+QNMcHqukLnYvbX2jd/EXSaYBVkoFB7LFzKvh8obAHDKq6tEV6uUX5IrZC5e3b96m+04ZFWQK/R+N5DIiwH02g5DM7ahp6dneCYvPO20ZYsAzKtynppTCbmnk0MzsLgD4eQ6OjpaACy2nSM07EccmkjJvAfAE7ZzWCdYGY8n9i/wNLT0remNCvz2qW8oTvJ9v2PPl/F4V0qB5zz154IfIMRl7bSvmhSwgLGu/lu3PbFMFD+u1TGpJkYBfH7rtsdPy+Vy/bbDVNv4xf582zkqNdkORLli76oApRcq5KfgzByX3KYiK3L57Jn5fH7AdhiqH4XC2vsXLzlimYh+EMAO23loeiqZUdFmRpyYaSIahDqrSNWdGViGOxBOal7LvCXYaxmQc7zwdutsdulb0xtV8EHbOeqBqHwlGU2+yHaOatp/SaCUzVPN3I3qBXv9UamskStqlYtqWMACxhrKZouZd6joRwFwu/ZGp+gpqzkpV8hcOjAwMGI7ThgikZILDdxxsB2rxmZj9b41gHQCWFejUBQK+QtU3pArZE7L53tvsp2G6tOqVavK2Xz2K2WNnAjINbbz0NRNNKN2qlSMEwUsBOEuixM0fu/LPZQzcCZVlrIb58QBlVjAClE+n/mxAr+ynaMOzAoEP0ulUrNsB6mWxUct7gHw0J6vVXBeKpWau7xj+QIFXrfn+wL8tlhcu8FKyCZV0wLWHvl89jIYsxzAozaOTxW7Fxq8KlfMnOV6I2iRxl8+CAA6xR2rCoXeWxcvOSIGxXsBbA05FlWRAPdBcUGkVV6YK/auAmfT0RQUi2s35Aq95xpgGSCcqdcIVFbP+KUInLhZ92Z7od2UL+9YvgDAoWGNX3OGSwgnoxAnzokDGF28eDFvrMMm5XcDaPAd16viheXR4DO2Q1TLqlWrysA+K8fmlUa0e6ht9DwAh+z5phph8/Yas1LAAoBcLp2OjJqTAbDhWeN4QqDv3z2864W5Yu43tsPUggRwYgZWqRSZ8sX+qlWryrli5puRVnMCoF8GMBRiNKqU4C6ovPlZS454fq6Y+WE6nS7ZjkSNJ1PIrF285JkvVsE7AfCGp37dHmkzP5/5y03DN3AH8Fg6nd4Z1uCDbSUnHlztEQSGBazJCFw4Jw5k/fhNOIUon88/IpAP285RD1TxQf/01HLbOaolEpj9elvpO4G9lg8KNkYi0lP7ZM3NWgELGFs7nCtklo/34eAWv/VrB4DPl3X0udlC9uv9/f2jB32FK0RdKGBtW7duzZbpviidTj+eK2T/LVI2z1XI9zG2yyTVjyyMvDqXz/xTrth7NS9SqVKrVq0q5/OZH5R19LlQfASchVlPhgG9MkBpZSVFaoG6MNsk1CVRRt2YeT1udMmSRQ/bDlHPXJ6BJdyBsGayhd7vA/i97Rx1wMAEP06lUofZDlIN6VvS6wXYe9ZzDMDJe75QVT44tsBqAWtckM1nvwITvBCqadthaB87AXxttNzy3Fwhc2mxWGy+nTak8ftgaIUX++m+9MP5Qu+FMMFSCH4GFrJsGgL0R0Zxcq6QSeZyvb8GlwpSlRWLxd25YuZzkVZzDBQfAJf72/QogM+XNfLsXCH7tkKh8FhFo4kDzckl5P5XJmgPc/za0r/z4cbkHCnqTkzDPVdoHxogchG4MQoAHFka0e/ZDlEtwdgOgxNRRcsPaxqGANRHAQsAkMvlHsgVs2dA8XYAlV2gUaX2zLg6NlfIXNzXt2aT7UDWqLgwA6sqFzC5XO7eXD5znongBFF8A8BgNcalKXlARD4mnh6TK2TPzxQzd9gORO5Lp9M7c8XM5buHdz1HVf8VezUzpdDdLNDXR1rNMWMPkKrWILbxl0uFfFMeaOM/uHoKdyCcAmn8c+JAhP3PaqlQWPu38dnLBH1tItZ1oe0U1fDkk1t+iYlqE6JrCoW1M95UhWaubgpY4zRXzPwEJnj++A0yZ3rU1l+h+MBoefiopp1xtZdUKhUBcLTtHBWbYgP3qcpkMg9mi5n3RVrNsQA+DRacw7JbIT9VkTNyhcxzsvne/85ms5tth6Lm09/fP5gvZr8aaTXHC7QbQNZ2JkdtB/RbKuUX5gqZM7KF7PXVXJqw4qQVcwA0/LKOSnZhnNL4Ku1hjl9T3IHwYARQZwtY3IGy9nLFzLcAcAdoAKr6lXg8vtR2jkoNDAyMALhy/++Pt1chC+qtgAUAyOVyW7PFzPtMBCcA+C4ATn8OTwDR1VB5w+IlR5yYK2Yu7+vr2247VD0IguBoAC22c1TMBKE8rR7rkZX51NZtW45WwZsUWAsuZ6tUeez3KBfNGm5dnC/0vjWf770Z/L1SHUin06VsIXtdrpBJBjAvwdjn8zbbuRrcoADXQuXsSKs5IlfIvjufz4eyG+TuBbudWCpVhgl3t0wHWgfsoZyBNalYLHY4gNm2c4TGK3MJYe0FI6WWcxFyr76GIJgj6vUkk8mGnwygUv4e9roWF2DL/PlzfmkxUlOL2A4wmUwm8yCAi2Kx1NcFwacEeB3qtOjWgDYBelVZvW8VC+n7bIepSyU3LmK1yjOw9jf+ZOJaANf6vn+CqLlQFW8GcGSYx3VIACAPxbWjQct1Tb1klxpGoZC+E8BFqVTq4tKwvgqCtwG6EoBnOVojGAbkJqiuUlP+RS6fr0nPlCAwx0rj18KDuTvb/hTyMZwo9AGA4Qycg2g51uXnQ+Vyme+/BevWrdkSi8WiRiNXQLDSdh7Lji6XkEkmk2eM39c3pHw+/xc/nixAEQeAQOUnPT09w7ZzNau6LmDtUSik7wbwet/3j0dgLobiAgjm2M7VgHZD8BuIXLl7987fNdVugjOgkGe7cWETqdn67Fwudy+Afwdwie+nYgiCbgBvBHBErTI0BMUuiNwM4Ndl9f63iv1tiGoqnU4PAVgFYFU0esYST8rnKPQcAXzwgdPedghwM6C/8Fq9X6bT6SdrHSAIRvo8zzul1setpiCIlG+868ZdIR7CIDBnhzh+TZVk+HbbGepZ66g8VIrgDbZzhEEkCJq9FYhN4xtunOX7/gkSeMsUegSAWbZzzYQIPFXMn/HrAZTLchSqsCvm7NmzB0tDOHPv77WORqY9K1e8YLWOek+NY0wwcrDXBBp5uwmC4wDAtJT/MNnPjo6ObvS0bZ+c8wZb2Ue0SsR2gJmIRqPP8KT1HQDOB7Th19aGbAiQ1VD8bPfIzl/19/ez8fYUxWOJ/xLIR23nqFB59/Cu2TaLlalUKlIeLi9TI6+CYiUAFxrjT1cJin4I0ga4cdfwriwLyOSy1KmpZ422ll8LlZcLsAzAXNuZaqwEYJ2qrhbPuykSwS3capuIiIioMg1ZwNqb7/udUPPPoni9Aots56kLgo0I8L8C/c3sXbNvCvlppbP8WNfVgL7Jdo5KKLA+X8jU1VLIeDz+PANzlqq8DEAcbt7YDglwBwR5qKYDCTL5Gi0TIqo3S5cubV20YJEfQF8GSBJAB1zoL7ivAMBfIFgrqjeNlEduZj9JIiIioupq+ALWHqlUKlIaQgqmfDYgrwWw2HamGhoBcJuqrobxfp3Pp/vhxto3q/xYsg/AabZzVEKBtflCZpntHAeSSqUipVLpxSgbHyI+oDE0Xu+sYQB/BvQOgblVTXnd7t277+IMK6KJrThpxZyhuUOdAZAQ4DQVnAzFs2znmoYyFH9RkduhQb8ncvtwefhOFqyIiIiIwuVMAWt/Y/2yvOUQXQ7FmQAOtZ2pigYhuAOKHIzkR0eHennhXH1+LPkYgMNt56iEQr6fL/ReaDvHdCQSicNRwkkq5sUKvEiAFwH6bNg/hzdD8QBEHgT0HoEOBBL8saWl5X4uDSKqTDweP1ICOVmNvEgUJwrk+QqcAGCBxVgBoA8Bch8E9yn0bi+Q22ftmvUHzmwmIiIiqj1nC1h7S6VSkfJQuVONvFSAUxU4GcBRtnNN0SCAuyG4Q6F3mgC3e23e7bxhDlc8Hp8n6jV8UVBFP5rPZy+znaMaotHoMzzPOw5l73iFHiuiiwEcDpXDIPJMQA8HMA9jW2JPpVHmKICdUDwJwS5An4TKYwI8AiOboXhUDTaasq43bebBdDq9M8z/PiJ6utSpqWeVI+VjAiNHSYCjFXKsSHCYQBapYpEIFo23D2jB1JYjD2Psc3UHgCcUeEIEWwA8BsVGFTwkZbOhLHj40ENnP8hdhoiIiIjqR1MUsCYSi8WeKdLSIaonK/ASETwXiuNhrx/PNgD3Q3A/gPsRyF1G9c4jjj7i3L5OQQAABndJREFU3lWrVpUtZWpaic7ESerJpDtMNAIVvCmfz1xrO4cN8Xh8nohMuNPqvHnzBnljSuSeaDQ62/O8pxWwI5HIKIvQRERERI2taQtYB9LZuewIzysd7yF4NsQcH2hwmIgsgmIRxpaTHYaxWR4LDzLUnqe8Q4AOCuQxVTwO4DEIHgVks4puEgnWRyKR+9Pp9OPh/pfRdCSiideqyC9s56iUijk1n0/fZjsHERERERERUSUmnJ3QzPr61mwCsAlAcaqv6ejoOGT27NltAJ/yukLFHO9CH/wgGH7AdgYiIiIiIiKiSrGAVQX9/f2DGJttRY4Q1eO08ecnbisWi0/YDkFERERERERUKWM7AFFdEhxvO0IV3G87ABEREREREVE1sIBFNAEFjrOdoXLC5YNERERERETkBBawiJ5OALTbDlE55QwsIiIiIiIicgILWET7iUbPOBLAbNs5KqWKB21nICIiIiIiIqoGFrCI9uN5gQPLBwEYLiEkIiIiIiIiN7CARbS/cuBCA3eoeixgERERERERkRNYwCLanxs7EJaHh7f93XYIIiIiIiIiompgAYtof+LADoSKv/f394/ajkFERERERERUDSxgEe1PHShgGe5ASERERERERO5gAYvo6Rp/CaGygTsRERERERG5gwUsor2kUqlZABbbzlExxYO2IxARERERERFVCwtYRHsZHkY7HDgv1IAzsIiIiIiIiMgZDX+jTlRNxgSNv3wQgKpwBhYRERERERE5gwUsor1I4EADdwCtrSxgERERERERkTtYwCLamzhRwNqRTqcftx2CiIiIiIiIqFpYwCLamziwAyGw3nYAIiIiIiIiompiAYtobyoNX8AScAdCIiIiIiIicgsLWET70MZfQijcgZCIiIiIiIjcwgIW0bhUKnUYgPm2c1SKOxASERERERGRa1jAIhpXHi43/PJBAIDhEkIiIiIiIiJyCwtYROMCI42/fBBAEHAGFhEREREREbmFBSyip6gTM7BaW7kLIREREREREbmFBSyicaJwYQbW5nQ6vdN2CCIiIiIiIqJqYgGL6CniwgwsLh8kIiIiIiIi57CARfQPDT8DS1jAIiIiIiIiIgexgEUEIJVKRQAcbTtHpVRYwCIiIiIiIiL3sIBFBCAIgqMBtNjOUTHlDoRERERERETkHhawiADoqBs7ECKQB2xHICIiIiIiIqo2FrCIAECMEwWswBjOwCIiIiIiIiLnsIBFBADa+A3cAZS3bdv0kO0QRERERERERNXGAhYRABUnClgbBgYGRmyHICIiIiIiIqo2FrCIAABO9MDi8kEiIiIiIiJyEgtYRGMavoCl4A6ERERERERE5CYWsKjpxePxeQAOs52jUkY4A4uIiIiIiIjcxAIWNT0RafjZVwCgygIWERERERERuYkFLKKy50QBC4ZLCImIiIiIiMhNLGARubEDIVRHH7CdgYiIiIiIiCgMLGBR0xNVFwpYQ/l8fqPtEERERERERERhYAGLmp6KtNvOUDn5G4DAdgoiIiIiIiKiMLCARQQHlhBKwP5XRERERERE5CwWsIigx9pOUDHuQEhEREREREQOYwGLmloikTgcwFzbOSolwgIWERERERERuYsFLGpq5bJpt52hKjgDi4iIiIiIiBzGAhY1NREndiCEGmUBi4iIiIiIiJzFAhY1NaPSbjtDNZTLZRawiIiIiIiIyFksYFFTUwTttjNUwbZisfiE7RBEREREREREYWEBi5qbGzOwOPuKiIiIiIiInMYCFjU3QeP3wOIOhEREREREROQ4FrComQmAY2yHqJiygTsRERERERG5jQUsalqpU1NHADjEdo5KKWdgERERERERkeNYwKKmNdKijb98EIBRFrCIiIiIiIjIbSxgUdMyinbbGarCYwGLiIiIiIiI3MYCFjUtNUG77QxVoIODg+tthyAiIiIiIiIKEwtY1LREpd12hooJNvX39w/ajkFEREREREQUJhawqJk1fA8sYf8rIiIiIiIiagIsYFEza7cdoFLcgZCIiIiIiIiaAQtY1KwMgGNsh6iUqq63nYGIiIiIiIgobCxgUVOKRs9YDKDNdo6KidxlOwIRERERERFR2FjAoqYU0dF22xmqYHNLi/m97RBEREREREREYYvYDkBkw9yFc2/bsXX3meKVX6IqYRVyF4Y0LlR1Y0vgXZdOp58M6xhERERERERE9eL/A4qepR5d6rBiAAAAAElFTkSuQmCC;" vertex="1" parent="1">
          <mxGeometry x="215" y="160" width="110" height="57.29" as="geometry" />
        </mxCell>
        <mxCell id="NESUgxM1b8WvcfN6Ao-w-16" value="&lt;font style=&quot;font-size: 15px&quot;&gt;Preprocess&lt;/font&gt;" style="text;html=1;align=center;verticalAlign=middle;resizable=0;points=[];autosize=1;" vertex="1" parent="1">
          <mxGeometry x="225" y="225" width="90" height="20" as="geometry" />
        </mxCell>
        <mxCell id="NESUgxM1b8WvcfN6Ao-w-26" style="edgeStyle=orthogonalEdgeStyle;rounded=0;orthogonalLoop=1;jettySize=auto;html=1;entryX=0.5;entryY=0;entryDx=0;entryDy=0;" edge="1" parent="1" source="NESUgxM1b8WvcfN6Ao-w-17" target="NESUgxM1b8WvcfN6Ao-w-25">
          <mxGeometry relative="1" as="geometry" />
        </mxCell>
        <mxCell id="NESUgxM1b8WvcfN6Ao-w-17" value="" style="points=[[0,0,0],[0.25,0,0],[0.5,0,0],[0.75,0,0],[1,0,0],[0,1,0],[0.25,1,0],[0.5,1,0],[0.75,1,0],[1,1,0],[0,0.25,0],[0,0.5,0],[0,0.75,0],[1,0.25,0],[1,0.5,0],[1,0.75,0]];outlineConnect=0;fontColor=#232F3E;gradientColor=#4D72F3;gradientDirection=north;fillColor=#3334B9;strokeColor=#ffffff;dashed=0;verticalLabelPosition=bottom;verticalAlign=top;align=center;html=1;fontSize=12;fontStyle=0;aspect=fixed;shape=mxgraph.aws4.resourceIcon;resIcon=mxgraph.aws4.managed_apache_cassandra_service;" vertex="1" parent="1">
          <mxGeometry x="400" y="149.64" width="78" height="78" as="geometry" />
        </mxCell>
        <mxCell id="NESUgxM1b8WvcfN6Ao-w-20" value="" style="endArrow=none;html=1;entryX=0.5;entryY=0;entryDx=0;entryDy=0;entryPerimeter=0;" edge="1" parent="1" target="NESUgxM1b8WvcfN6Ao-w-17">
          <mxGeometry width="50" height="50" relative="1" as="geometry">
            <mxPoint x="439" y="100" as="sourcePoint" />
            <mxPoint x="480" y="340" as="targetPoint" />
          </mxGeometry>
        </mxCell>
        <mxCell id="NESUgxM1b8WvcfN6Ao-w-21" value="" style="endArrow=none;html=1;" edge="1" parent="1">
          <mxGeometry width="50" height="50" relative="1" as="geometry">
            <mxPoint x="270" y="100" as="sourcePoint" />
            <mxPoint x="440" y="100" as="targetPoint" />
          </mxGeometry>
        </mxCell>
        <mxCell id="NESUgxM1b8WvcfN6Ao-w-23" value="" style="endArrow=none;html=1;exitX=0.5;exitY=0;exitDx=0;exitDy=0;" edge="1" parent="1" source="NESUgxM1b8WvcfN6Ao-w-15">
          <mxGeometry width="50" height="50" relative="1" as="geometry">
            <mxPoint x="250" y="160" as="sourcePoint" />
            <mxPoint x="270" y="100" as="targetPoint" />
          </mxGeometry>
        </mxCell>
        <mxCell id="NESUgxM1b8WvcfN6Ao-w-24" value="&lt;font style=&quot;font-size: 15px&quot;&gt;Append Events&lt;/font&gt;" style="text;html=1;align=center;verticalAlign=middle;resizable=0;points=[];autosize=1;" vertex="1" parent="1">
          <mxGeometry x="300" y="80" width="120" height="20" as="geometry" />
        </mxCell>
        <mxCell id="NESUgxM1b8WvcfN6Ao-w-28" style="edgeStyle=orthogonalEdgeStyle;rounded=0;orthogonalLoop=1;jettySize=auto;html=1;entryX=0.5;entryY=0;entryDx=0;entryDy=0;entryPerimeter=0;" edge="1" parent="1" source="NESUgxM1b8WvcfN6Ao-w-25" target="NESUgxM1b8WvcfN6Ao-w-27">
          <mxGeometry relative="1" as="geometry" />
        </mxCell>
        <mxCell id="NESUgxM1b8WvcfN6Ao-w-25" value="Query Processor" style="rounded=1;whiteSpace=wrap;html=1;" vertex="1" parent="1">
          <mxGeometry x="384" y="270" width="110" height="100" as="geometry" />
        </mxCell>
        <mxCell id="NESUgxM1b8WvcfN6Ao-w-29" style="edgeStyle=orthogonalEdgeStyle;rounded=0;orthogonalLoop=1;jettySize=auto;html=1;entryX=0.564;entryY=1.01;entryDx=0;entryDy=0;entryPerimeter=0;" edge="1" parent="1" source="NESUgxM1b8WvcfN6Ao-w-27" target="NESUgxM1b8WvcfN6Ao-w-25">
          <mxGeometry relative="1" as="geometry" />
        </mxCell>
        <mxCell id="NESUgxM1b8WvcfN6Ao-w-27" value="" style="verticalLabelPosition=bottom;html=1;verticalAlign=top;align=center;strokeColor=none;fillColor=#00BEF2;shape=mxgraph.azure.user;" vertex="1" parent="1">
          <mxGeometry x="540" y="380" width="47.5" height="50" as="geometry" />
        </mxCell>
        <mxCell id="NESUgxM1b8WvcfN6Ao-w-30" value="&lt;font style=&quot;font-size: 15px&quot;&gt;Response&lt;/font&gt;" style="text;html=1;align=center;verticalAlign=middle;resizable=0;points=[];autosize=1;" vertex="1" parent="1">
          <mxGeometry x="520" y="300" width="80" height="20" as="geometry" />
        </mxCell>
        <mxCell id="NESUgxM1b8WvcfN6Ao-w-31" value="&lt;font style=&quot;font-size: 15px&quot;&gt;Query&lt;/font&gt;" style="text;html=1;align=center;verticalAlign=middle;resizable=0;points=[];autosize=1;" vertex="1" parent="1">
          <mxGeometry x="460" y="410" width="60" height="20" as="geometry" />
        </mxCell>
        <mxCell id="NESUgxM1b8WvcfN6Ao-w-32" value="&lt;font style=&quot;font-size: 15px&quot;&gt;User&lt;/font&gt;" style="text;html=1;align=center;verticalAlign=middle;resizable=0;points=[];autosize=1;" vertex="1" parent="1">
          <mxGeometry x="540" y="430" width="50" height="20" as="geometry" />
        </mxCell>
      </root>
    </mxGraphModel>
  </diagram>
</mxfile>
